<svg xmlns="http://www.w3.org/2000/svg" viewBox="0 0 1280 400"><path fill="none" d="M0 0h1280v400H0z"/><g fill="none" stroke="currentColor" color="#000"><path stroke="#000" d="M399.74 324.38h9"/><text fill="#000" stroke="none" font-family="Helvetica" font-size="12" text-anchor="end" transform="translate(391.35 328.28)"><tspan>with_memcache/mmap_rw_truncate/1024</tspan></text></g><g fill="none" stroke="currentColor" color="#000"><path stroke="#000" d="M399.74 288.33h9"/><text fill="#000" stroke="none" font-family="Helvetica" font-size="12" text-anchor="end" transform="translate(391.35 292.23)"><tspan>with_memcache/mmap_read_only_fallocate/1024</tspan></text></g><g fill="none" stroke="currentColor" color="#000"><path stroke="#000" d="M399.74 252.28h9"/><text fill="#000" stroke="none" font-family="Helvetica" font-size="12" text-anchor="end" transform="translate(391.35 256.18)"><tspan>with_memcache/mmap_read_only_truncate/1024</tspan></text></g><g fill="none" stroke="currentColor" color="#000"><path stroke="#000" d="M399.74 216.23h9"/><text fill="#000" stroke="none" font-family="Helvetica" font-size="12" text-anchor="end" transform="translate(391.35 220.13)"><tspan>with_memcache/mmap_read_only/1024</tspan></text></g><g fill="none" stroke="currentColor" color="#000"><path stroke="#000" d="M399.74 180.18h9"/><text fill="#000" stroke="none" font-family="Helvetica" font-size="12" text-anchor="end" transform="translate(391.35 184.08)"><tspan>with_memcache/buffered_readahead_tuned/1024</tspan></text></g><g fill="none" stroke="currentColor" color="#000"><path stroke="#000" d="M399.74 144.13h9"/><text fill="#000" stroke="none" font-family="Helvetica" font-size="12" text-anchor="end" transform="translate(391.35 148.03)"><tspan>with_memcache/buffered_l1_tuned/1024</tspan></text></g><g fill="none" stroke="currentColor" color="#000"><path stroke="#000" d="M399.74 108.08h9"/><text fill="#000" stroke="none" font-family="Helvetica" font-size="12" text-anchor="end" transform="translate(391.35 111.98)"><tspan>with_memcache/buffered/1024</tspan></text></g><g fill="none" stroke="currentColor" color="#000"><path stroke="#000" d="M399.74 72.03h9"/><text fill="#000" stroke="none" font-family="Helvetica" font-size="12" text-anchor="end" transform="translate(391.35 75.93)"><tspan>with_memcache/copy_file_range/1024</tspan></text></g><path fill="none" stroke="gray" stroke-dasharray="2,4" stroke-width=".5" d="M399.74 342.4V54.01" class="gridline" color="gray"/><g fill="none" stroke="currentColor" color="#000"><path stroke="#000" d="M399.74 342.4v-9"/><text fill="#000" stroke="none" font-family="Helvetica" font-size="12" text-anchor="middle" transform="translate(399.74 364.3)"><tspan> 0</tspan></text></g><path fill="none" stroke="gray" stroke-dasharray="2,4" stroke-width=".5" d="M534.76 342.4V54.01" class="gridline" color="gray"/><g fill="none" stroke="currentColor" color="#000"><path stroke="#000" d="M534.76 342.4v-9"/><text fill="#000" stroke="none" font-family="Helvetica" font-size="12" text-anchor="middle" transform="translate(534.76 364.3)"><tspan> 5</tspan></text></g><path fill="none" stroke="gray" stroke-dasharray="2,4" stroke-width=".5" d="M669.78 342.4V54.01" class="gridline" color="gray"/><g fill="none" stroke="currentColor" color="#000"><path stroke="#000" d="M669.78 342.4v-9"/><text fill="#000" stroke="none" font-family="Helvetica" font-size="12" text-anchor="middle" transform="translate(669.78 364.3)"><tspan> 10</tspan></text></g><path fill="none" stroke="gray" stroke-dasharray="2,4" stroke-width=".5" d="M804.8 342.4V54.01" class="gridline" color="gray"/><g fill="none" stroke="currentColor" color="#000"><path stroke="#000" d="M804.8 342.4v-9"/><text fill="#000" stroke="none" font-family="Helvetica" font-size="12" text-anchor="middle" transform="translate(804.8 364.3)"><tspan> 15</tspan></text></g><path fill="none" stroke="gray" stroke-dasharray="2,4" stroke-width=".5" d="M939.82 342.4V54.01" class="gridline" color="gray"/><g fill="none" stroke="currentColor" color="#000"><path stroke="#000" d="M939.82 342.4v-9"/><text fill="#000" stroke="none" font-family="Helvetica" font-size="12" text-anchor="middle" transform="translate(939.82 364.3)"><tspan> 20</tspan></text></g><path fill="none" stroke="gray" stroke-dasharray="2,4" stroke-width=".5" d="M1074.84 342.4V54.01" class="gridline" color="gray"/><g fill="none" stroke="currentColor" color="#000"><path stroke="#000" d="M1074.84 342.4v-9"/><text fill="#000" stroke="none" font-family="Helvetica" font-size="12" text-anchor="middle" transform="translate(1074.84 364.3)"><tspan> 25</tspan></text></g><path fill="none" stroke="gray" stroke-dasharray="2,4" stroke-width=".5" d="M1209.86 342.4V81.01m0-18v-9" class="gridline" color="gray"/><g fill="none" stroke="currentColor" color="#000"><path stroke="#000" d="M1209.86 342.4v-9"/><text fill="#000" stroke="none" font-family="Helvetica" font-size="12" text-anchor="middle" transform="translate(1209.86 364.3)"><tspan> 30</tspan></text></g><path fill="none" stroke="#000" d="M399.74 54.01V342.4h855.08V54.01H399.74Z" color="#000"/><text color="#000" font-family="Helvetica" font-size="12" text-anchor="middle" transform="rotate(-90 108.695 89.515)"><tspan>Input</tspan></text><text color="#000" font-family="Helvetica" font-size="12" text-anchor="middle" transform="translate(827.28 391.3)"><tspan>Average time (us)</tspan></text><text color="#000" font-family="Helvetica" font-size="12" text-anchor="end" transform="translate(1187.09 75.91)"><tspan>PDF</tspan></text><path fill="#1F78B4" d="M1195.48 76.51h42.56v-9h-42.56zM966.52 324.37h2.33l.3-.01h1.16l.29-.01h.87l.3-.01h.29l.29-.01h.29l.29-.01h.29l.29-.01.29-.01.3-.01.29-.01.29-.01.29-.01.29-.01.29-.01.29-.02.29-.02.29-.01.3-.02.29-.02.29-.03.29-.02.29-.03.29-.03.29-.03.29-.04.3-.04.29-.04.29-.04.29-.05.29-.05.29-.06.29-.06.29-.06.29-.07.3-.07.29-.08.29-.09.29-.09.29-.09.29-.1.29-.11.29-.12.3-.12.29-.13.29-.14.29-.14.29-.15.29-.16.29-.17.29-.18.3-.19.29-.19.29-.2.29-.21.29-.22.29-.23.29-.24.29-.25.29-.25.3-.27.29-.27.29-.28.29-.28.29-.3.29-.3.29-.31.29-.31.3-.32.29-.32.29-.33.29-.34.29-.33.29-.34.29-.34.29-.34.29-.34.3-.34.29-.34.29-.33.29-.34.29-.32.29-.33.29-.31.29-.31.3-.3.29-.3.29-.28.29-.27.29-.26.29-.25.29-.24.29-.22.3-.21.29-.19.29-.17.29-.16.29-.14.29-.13.29-.11.29-.09.29-.07.3-.05.29-.03.29-.02.29.01.29.02.29.04.29.06.29.08.3.09.29.12.29.13.29.14.29.16.29.18.29.19.29.21.29.21.3.23.29.24.29.26.29.26.29.27.29.28.29.28.29.3.3.29.29.31.29.3.29.31.29.31.29.31.29.31.29.32.29.31.3.31.29.3.29.31.29.3.29.29.29.29.29.29.29.28.3.27.29.27.29.26.29.26.29.25.29.24.29.23.29.23.3.22.29.21.29.2.29.2.29.19.29.18.29.17.29.17.29.16.3.15.29.14.29.14.29.13.29.13.29.12.29.11.29.1.3.11.29.09.29.09.29.08.29.08.29.08.29.07.29.06.29.06.3.06.29.05.29.05.29.05.29.04.29.04.29.03.29.04.3.03.29.02.29.03.29.02.29.01.29.02.29.01.29.02.3.01h.29l.29.01h.29l.29.01h.29l.29-.01h.58l.3-.01h.29l.29-.01.29-.01h.29l.29-.01.29-.01.29-.01.3-.01.29-.01.29-.02.29-.01.29-.01.29-.01.29-.01.29-.01.29-.01.3-.01.29-.01.29-.01.29-.01.29-.01h.29l.29-.01h.29l.3-.01h1.74l.29.01.3.01h.29l.29.01.29.01.29.02.29.01.29.02.29.01.29.02.3.02.29.02.29.02.29.03.29.02.29.03.29.02.29.03.3.03.29.03.29.03.29.04.29.03.29.03.29.03.29.04.29.03.3.04.29.03.29.03.29.04.29.03.29.03.29.04.29.03.3.03.29.03.29.03.29.03.29.03.29.03.29.03.29.02.29.03.3.02.29.02.29.02.29.02.29.02.29.02.29.02.29.01.3.02.29.01.29.01.29.01.29.01.29.01.29.01h.29l.3.01h.29l.29.01h2.91l.29-.01h.58l.29-.01h.59l.29-.01h.29l.29-.01h.87l.29-.01h.88l.29-.01h2.04l.29.01h.87l.29.01h.59l.29.01h.29l.29.01h.29l.29.01h.29l.29.01.3.01h.29l.29.01h.29l.29.01h.29l.29.01.29.01h.3l.29.01h.29l.29.01h.29l.29.01h.58l.29.01h.59l.29.01h3.2l.29-.01h.88l.29-.01h.29l.29-.01h.29l.29-.01h.29l.29-.01h.3l.29-.01h.29l.29-.01h.29l.29-.01.29-.01h.29l.3-.01h.29l.29-.01h.29l.29-.01h.29l.29-.01h.29l.29-.01h.59l.29-.01h1.16l.29-.01h.88l.29.01h1.16l.29.01h.59l.29.01h.29l.29.01h.29l.29.01h.29l.3.01.29.01h.29l.29.01h.29l.29.01.29.01h.29l.3.01.29.01h.29l.29.01h.29l.29.01.29.01h.29l.29.01h.3l.29.01h.29l.29.01h.29l.29.01h.29l.29.01h.59l.29.01h.58l.29.01h1.17l.29.01h1.45l.29.01h3.21v.01h-2.91l-.3.01h-1.74l-.29.01h-.88l-.29.01h-.87l-.29.01h-.29l-.3.01h-.58l-.29.01h-.29l-.29.01h-.29l-.29.01h-.3l-.29.01h-.29l-.29.01-.29.01h-.29l-.29.01h-.29l-.29.01-.3.01h-.29l-.29.01-.29.01h-.29l-.29.01-.29.01h-.29l-.3.01h-.29l-.29.01h-.29l-.29.01h-.29l-.29.01h-.59l-.29.01h-.87l-.29.01h-1.46l-.29-.01h-.87l-.29-.01h-.59l-.29-.01h-.29l-.29-.01h-.29l-.29-.01h-.29l-.29-.01h-.29l-.3-.01h-.29l-.29-.01h-.29l-.29-.01-.29-.01h-.29l-.29-.01h-.3l-.29-.01h-.29l-.29-.01h-.29l-.29-.01h-.58l-.3-.01h-.58l-.29-.01h-2.91l-.29.01h-.88l-.29.01h-.29l-.29.01h-.29l-.29.01h-.29l-.29.01h-.29l-.3.01h-.29l-.29.01h-.29l-.29.01h-.29l-.29.01-.29.01h-.3l-.29.01h-.29l-.29.01h-.29l-.29.01h-.29l-.29.01h-.59l-.29.01h-.87l-.29.01h-2.33l-.29-.01h-.88l-.29-.01h-.58l-.29-.01h-.58l-.29-.01h-.59l-.29-.01h-.58l-.29-.01h-2.62l-.29.01h-.29l-.3.01h-.29l-.29.01-.29.01-.29.01-.29.01-.29.01-.29.02-.3.01-.29.01-.29.02-.29.02-.29.02-.29.02-.29.02-.29.02-.3.03-.29.02-.29.03-.29.02-.29.03-.29.03-.29.03-.29.03-.29.03-.3.03-.29.03-.29.04-.29.03-.29.03-.29.04-.29.03-.29.04-.3.03-.29.03-.29.04-.29.03-.29.03-.29.04-.29.03-.29.03-.29.03-.3.03-.29.03-.29.02-.29.03-.29.02-.29.03-.29.02-.29.02-.3.02-.29.02-.29.02-.29.01-.29.01-.29.02-.29.01-.29.01-.29.01h-.3l-.29.01h-2.04l-.29-.01-.29-.01h-.29l-.29-.01-.29-.01-.29-.01-.29-.01-.3-.01-.29-.01-.29-.01-.29-.01-.29-.01-.29-.01-.29-.01-.29-.01-.29-.01-.3-.02-.29-.01-.29-.01h-.29l-.29-.01-.29-.01-.29-.01h-.29l-.3-.01h-1.74l-.29.01-.29.01h-.3l-.29.02-.29.01-.29.02-.29.01-.29.03-.29.02-.29.03-.3.02-.29.04-.29.03-.29.04-.29.04-.29.05-.29.05-.29.05-.3.06-.29.06-.29.06-.29.07-.29.08-.29.08-.29.08-.29.09-.29.1-.3.1-.29.1-.29.12-.29.11-.29.13-.29.13-.29.14-.29.14-.3.15-.29.16-.29.17-.29.17-.29.18-.29.19-.29.2-.29.2-.29.21-.3.22-.29.23-.29.23-.29.24-.29.25-.29.26-.29.26-.29.27-.3.27-.29.28-.29.29-.29.29-.29.3-.29.3-.29.3-.29.31-.3.3-.29.32-.29.31-.29.31-.29.31-.29.31-.29.31-.29.31-.29.3-.3.3-.29.29-.29.28-.29.28-.29.27-.29.26-.29.26-.29.24-.3.23-.29.22-.29.2-.29.19-.29.18-.29.16-.29.15-.29.12-.29.12-.3.09-.29.08-.29.06-.29.04-.29.02-.29.01-.29-.02-.29-.03-.3-.05-.29-.07-.29-.09-.29-.11-.29-.12-.29-.15-.29-.16-.29-.17-.29-.19-.3-.21-.29-.22-.29-.24-.29-.25-.29-.26-.29-.27-.29-.28-.29-.29-.3-.31-.29-.31-.29-.31-.29-.32-.29-.33-.29-.33-.29-.34-.29-.34-.3-.34-.29-.34-.29-.34-.29-.34-.29-.34-.29-.33-.29-.34-.29-.32-.29-.33-.3-.32-.29-.31-.29-.31-.29-.3-.29-.3-.29-.28-.29-.28-.29-.27-.3-.27-.29-.25-.29-.25-.29-.24-.29-.22-.29-.22-.29-.22-.29-.2-.29-.19-.3-.19-.29-.18-.29-.16-.29-.16-.29-.16-.29-.14-.29-.14-.29-.13-.3-.12-.29-.12-.29-.1-.29-.11-.29-.09-.29-.09-.29-.09-.29-.08-.3-.07-.29-.07-.29-.06-.29-.06-.29-.06-.29-.05-.29-.05-.29-.04-.29-.04-.3-.04-.29-.04-.29-.03-.29-.03-.29-.03-.29-.02-.29-.02-.29-.03-.3-.01-.29-.02-.29-.02-.29-.01-.29-.02-.29-.01-.29-.01-.29-.01-.29-.01-.3-.01-.29-.01h-.29l-.29-.01-.29-.01h-.29l-.29-.01h-.59l-.29-.01h-.58l-.29-.01h-1.46l-.29-.01h-2.04zm8.83-36.05h.56l.56-.01h1.68l.56-.01h.56l.56-.01h.56l.56-.01h.56l.56-.01.56-.01.56-.01.56-.01.56-.02.56-.01.56-.02.56-.02.56-.02.56-.02.56-.03.56-.03.56-.03.56-.03.56-.04.56-.05.56-.05.56-.05.56-.06.56-.06.56-.07.56-.08.56-.08.56-.1.56-.09.56-.11.56-.12.56-.12.56-.13.56-.15.56-.15.56-.16.56-.18.56-.18.56-.2.56-.21.56-.22.56-.23.56-.25.56-.25.56-.27.56-.28.57-.29.56-.3.56-.32.56-.32.56-.33.56-.35.56-.35.56-.36.56-.37.56-.37.56-.38.56-.39.56-.39.56-.39.56-.39.56-.39.56-.39.56-.39.56-.39.56-.38.56-.37.56-.36.56-.36.56-.35.56-.33.56-.32.56-.31.56-.29.56-.27.56-.26.56-.24.56-.22.56-.2.56-.18.56-.16.56-.14.56-.12.56-.09.56-.07.56-.05.56-.03.56-.01.56.02.56.04.56.06.56.08.56.09.56.12.56.14.56.15.56.17.56.19.56.2.56.21.56.23.56.24.56.25.56.26.56.27.56.28.56.28.56.29.56.29.56.3.56.3.56.31.56.3.56.31.56.31.56.3.56.31.56.3.56.3.56.3.56.3.56.29.56.28.56.28.56.28.56.27.56.27.56.26.56.26.56.25.56.24.56.24.56.23.56.22.56.22.56.22.56.2.56.2.56.19.56.19.56.18.56.17.56.17.56.16.56.16.56.15.56.14.56.14.56.13.56.12.56.12.56.12.56.11.56.1.56.1.56.09.56.09.56.08.56.08.56.07.56.07.56.07.56.06.56.06.56.05.56.05.56.04.56.04.56.04.56.03.56.04.56.02.56.03.56.02.56.02.56.02.56.01.56.02.56.01.56.01.56.01h.56l.56.01h1.12l.56.01h7.28l.56.01h1.12l.56.01.56.01h.56l.56.01.56.01.56.01.56.01.56.01.56.01.56.01.56.01.56.02.56.01.56.01.56.02.56.01.56.02.56.01.56.02.56.01.56.02.56.02.57.01.56.02.56.01.56.02.56.01.56.01.56.02.56.01.56.01.56.02.56.01.56.01.56.01.56.01.56.01.56.01.56.01.56.01.56.01h.56l.56.01.56.01h.56l.56.01.56.01h.56l.56.01h.56l.56.01h.56l.56.01h1.12l.56.01h1.12l.56.01h1.12l.56.01h2.8l.56.01h4.48l.56.01h4.48l.56.01h1.68l.56.01h1.12l.56.01h1.12l.56.01h.56l.56.01h.56l.56.01.56.01h.56l.56.01.56.01h.56l.56.01.56.01h.56l.56.01.56.01h.56l.56.01.56.01.56.01h.56l.56.01.56.01h.56l.56.01.56.01h.56l.56.01h.56l.56.01h.56l.56.01h.56l.56.01h1.12l.56.01h1.12l.56.01h1.68l.56.01h2.24l.56.01h17.36l.56-.01h2.8l.56-.01h1.68l.56-.01h1.12l.56-.01h.56l.56-.01h.56l.56-.01h.56l.56-.01h.56l.56-.01h.56l.56-.01h.56l.56-.01.57-.01h.56l.56-.01.56-.01h.56l.56-.01.56-.01h.56l.56-.01.56-.01h.56l.56-.01h.56l.56-.01.56-.01h1.12l.56-.01h.56l.56-.01h1.68l.56-.01h2.24l.56.01h2.24l.56.01h.56l.56.01h.56l.56.01h.56l.56.01h.56l.56.01.56.01h.56l.56.01h.56l.56.01.56.01h.56l.56.01.56.01h.56l.56.01.56.01h.56l.56.01h.56l.56.01.56.01h.56l.56.01h1.12l.56.01h.56l.56.01h1.12l.56.01h1.68l.56.01h2.8l.56.01h6.16v.01h-4.48l-.56.01h-3.36l-.56.01h-1.68l-.56.01h-1.68l-.56.01h-.56l-.56.01h-1.12l-.56.01h-.56l-.56.01h-.56l-.56.01h-.56l-.56.01-.56.01h-.56l-.56.01-.56.01h-.56l-.56.01-.56.01h-.56l-.56.01-.56.01h-.56l-.56.01h-.56l-.56.01-.56.01h-.56l-.56.01h-.56l-.56.01h-.56l-.56.01h-1.68l-.56.01h-4.48l-.56-.01h-1.12l-.56-.01h-.56l-.56-.01h-.56l-.56-.01h-.56l-.56-.01h-.56l-.56-.01-.56-.01h-.56l-.56-.01-.56-.01h-.56l-.56-.01-.56-.01h-.56l-.56-.01-.57-.01h-.56l-.56-.01h-.56l-.56-.01h-.56l-.56-.01-.56-.01h-.56l-.56-.01h-1.12l-.56-.01h-.56l-.56-.01h-1.68l-.56-.01h-1.68l-.56-.01h-3.36l-.56-.01h-13.44l-.56.01h-3.92l-.56.01h-1.68l-.56.01h-1.12l-.56.01h-1.12l-.56.01h-.56l-.56.01h-.56l-.56.01h-.56l-.56.01h-.56l-.56.01h-.56l-.56.01-.56.01h-.56l-.56.01-.56.01-.56.01h-.56l-.56.01-.56.01h-.56l-.56.01-.56.01h-.56l-.56.01-.56.01h-.56l-.56.01-.56.01h-.56l-.56.01h-.56l-.56.01h-.56l-.56.01h-.56l-.56.01h-1.12l-.56.01h-1.12l-.56.01h-2.8l-.56.01h-5.6l-.56.01h-3.36l-.56.01h-1.68l-.56.01h-1.12l-.56.01h-1.12l-.56.01h-.56l-.56.01h-.56l-.56.01h-.56l-.56.01h-.56l-.56.01-.56.01h-.56l-.56.01-.56.01-.56.01h-.56l-.56.01-.56.01-.56.01-.56.01-.56.01-.56.02-.56.01-.56.01-.56.01-.56.02-.56.01-.56.01-.56.02-.56.01-.56.02-.56.01-.57.02-.56.01-.56.02-.56.01-.56.02-.56.02-.56.01-.56.02-.56.01-.56.01-.56.02-.56.01-.56.01-.56.02-.56.01-.56.01-.56.01-.56.01h-.56l-.56.01-.56.01h-.56l-.56.01h-.56l-.56.01h-2.24l-.56.01h-6.16l-.56.01h-.56l-.56.01-.56.01-.56.01-.56.01-.56.01-.56.02-.56.01-.56.02-.56.03-.56.02-.56.03-.56.03-.56.03-.56.04-.56.04-.56.05-.56.05-.56.05-.56.05-.56.07-.56.06-.56.07-.56.07-.56.08-.56.08-.56.09-.56.1-.56.09-.56.11-.56.11-.56.11-.56.12-.56.13-.56.13-.56.13-.56.15-.56.15-.56.15-.56.16-.56.17-.56.17-.56.18-.56.19-.56.19-.56.2-.56.21-.56.21-.56.22-.56.22-.56.24-.56.23-.56.25-.56.25-.56.25-.56.26-.56.27-.56.27-.56.28-.56.28-.56.29-.56.29-.56.29-.56.3-.56.3-.56.3-.56.31-.56.31-.56.3-.56.31-.56.3-.56.31-.56.3-.56.3-.56.29-.56.29-.56.29-.56.27-.56.27-.56.26-.56.25-.56.24-.56.23-.56.22-.56.2-.56.18-.56.17-.56.16-.56.13-.56.12-.56.1-.56.08-.56.05-.56.04-.56.02-.56-.01-.56-.02-.56-.05-.56-.08-.56-.09-.56-.12-.56-.13-.56-.16-.56-.18-.56-.2-.56-.22-.56-.24-.56-.26-.56-.28-.56-.29-.56-.31-.56-.32-.56-.33-.56-.35-.56-.35-.56-.37-.56-.37-.56-.38-.56-.38-.56-.39-.56-.39-.56-.4-.56-.39-.56-.39-.56-.39-.56-.38-.56-.38-.56-.38-.56-.37-.56-.36-.56-.35-.56-.34-.56-.34-.56-.32-.56-.31-.56-.31-.57-.29-.56-.28-.56-.26-.56-.26-.56-.24-.56-.24-.56-.22-.56-.2-.56-.2-.56-.19-.56-.17-.56-.17-.56-.15-.56-.14-.56-.14-.56-.12-.56-.12-.56-.1-.56-.1-.56-.09-.56-.09-.56-.07-.56-.07-.56-.07-.56-.06-.56-.05-.56-.05-.56-.04-.56-.04-.56-.04-.56-.03-.56-.03-.56-.03-.56-.02-.56-.02-.56-.02-.56-.02-.56-.01-.56-.01-.56-.01-.56-.01-.56-.01-.56-.01-.56-.01h-.56l-.56-.01h-.56l-.56-.01h-.56l-.56-.01h-2.24zm-79.56-36.06.42-.01h.42l.42-.01h.42l.42-.01.42-.01.42-.01.42-.01.43-.01.42-.01.42-.01.42-.02.42-.02.42-.02.42-.02.42-.03.43-.02.42-.04.42-.03.42-.04.42-.04.42-.05.42-.06.42-.05.42-.07.43-.07.42-.08.42-.08.42-.09.42-.1.42-.11.42-.12.42-.12.43-.14.42-.15.42-.15.42-.17.42-.18.42-.19.42-.2.42-.22.42-.22.43-.24.42-.26.42-.26.42-.28.42-.29.42-.3.42-.32.42-.32.43-.34.42-.35.42-.36.42-.37.42-.38.42-.38.42-.4.42-.39.42-.41.43-.4.42-.41.42-.41.42-.41.42-.41.42-.4.42-.4.42-.39.43-.38.42-.38.42-.36.42-.35.42-.33.42-.32.42-.31.42-.28.42-.26.43-.25.42-.22.42-.2.42-.17.42-.15.42-.13.42-.1.42-.07.43-.05.42-.02h.42l.42.03.42.05.42.08.42.11.42.13.42.15.43.17.42.19.42.21.42.23.42.25.42.27.42.28.42.29.43.3.42.31.42.32.42.33.42.34.42.34.42.34.42.34.42.35.43.34.42.34.42.34.42.33.42.33.42.32.42.32.42.31.43.3.42.29.42.28.42.28.42.26.42.25.42.24.42.23.42.22.43.21.42.2.42.19.42.18.42.17.42.16.42.15.42.14.43.13.42.13.42.11.42.11.42.1.42.09.42.09.42.08.42.07.43.07.42.07.42.06.42.06.42.05.42.05.42.04.42.05.43.04.42.04.42.04.42.03.42.04.42.03.42.03.42.03.42.03.43.03.42.03.42.03.42.03.42.03.42.03.42.03.42.03.43.02.42.03.42.03.42.03.42.03.42.03.42.03.42.03.42.03.43.03.42.03.42.03.42.03.42.03.42.03.42.03.42.04.43.03.42.03.42.03.42.03.42.03.42.04.42.03.42.03.42.03.43.03.42.03.42.03.42.03.42.03.42.03.42.03.42.03.43.03.42.03.42.02.42.03.42.03.42.02.42.03.42.02.42.02.43.03.42.02.42.02.42.02.42.02.42.02.42.02.42.02.43.01.42.02.42.02.42.01.42.02.42.02.42.01.42.02.42.01.43.02.42.01.42.02.42.01.42.02.42.02.42.01.42.02.43.01.42.02.42.02.42.01.42.02.42.02.42.01.42.02.42.02.43.02.42.02.42.02.42.02.42.01.42.02.42.02.42.02.43.02.42.02.42.02.42.02.42.02.42.02.42.01.42.02.42.02.43.02.42.02.42.01.42.02.42.01.42.02.42.01.42.02.43.01.42.02.42.01.42.01.42.01.42.01.42.01.42.01.43.01.42.01.42.01.42.01.42.01h.42l.42.01.42.01h.42l.43.01h.42l.42.01h.84l.42.01h.84l.43.01h1.68l.42.01h4.21l.42.01h24.01l.42-.01h4.64l.42-.01h1.68l.42-.01h1.27l.42-.01h.84l.42-.01h.42l.42-.01h.85l.42-.01h.42l.42-.01.42-.01h.42l.42-.01h.42l.42-.01h.43l.42-.01.42-.01h.42l.42-.01.42-.01h.42l.42-.01.43-.01h.42l.42-.01h.42l.42-.01.42-.01h.42l.42-.01h.85l.42-.01h.84l.42-.01h4.21l.42.01h.85l.42.01h.84l.42.01.42.01h.42l.42.01h.43l.42.01h.42l.42.01.42.01h.42l.42.01.42.01h.42l.43.01.42.01h.42l.42.01h.42l.42.01.42.01h.42l.43.01h.42l.42.01h.84l.42.01h.42l.42.01h.85l.42.01h1.26l.42.01h1.69l.42.01h4.63l.42.01h.42-2.95l-.42.01h-2.94l-.43.01h-1.68l-.42.01h-.84l-.43.01h-.84l-.42.01h-.42l-.42.01h-.42l-.42.01h-.42l-.43.01h-.42l-.42.01h-.42l-.42.01h-.42l-.42.01-.42.01h-.43l-.42.01-.42.01h-.42l-.42.01-.42.01h-.42l-.42.01h-.42l-.43.01-.42.01h-.42l-.42.01h-.42l-.42.01h-.84l-.43.01h-.84l-.42.01h-3.37l-.42-.01h-.84l-.42-.01h-.85l-.42-.01h-.42l-.42-.01h-.42l-.42-.01-.42-.01h-.42l-.42-.01h-.43l-.42-.01-.42-.01h-.42l-.42-.01-.42-.01h-.42l-.42-.01-.43-.01h-.42l-.42-.01h-.42l-.42-.01h-.42l-.42-.01h-.42l-.42-.01h-.43l-.42-.01h-.42l-.42-.01h-.84l-.42-.01h-.85l-.42-.01h-1.68l-.42-.01h-2.95l-.42-.01h-29.06l-.42.01h-2.53l-.42.01h-1.27l-.42.01h-.84l-.42.01h-.42l-.42.01h-.42l-.43.01h-.42l-.42.01h-.42l-.42.01-.42.01-.42.01h-.42l-.42.01-.43.01-.42.01-.42.01-.42.01-.42.02-.42.01-.42.01-.42.01-.43.02-.42.01-.42.02-.42.01-.42.02-.42.01-.42.02-.42.02-.43.02-.42.01-.42.02-.42.02-.42.02-.42.02-.42.02-.42.02-.42.01-.43.02-.42.02-.42.02-.42.02-.42.02-.42.02-.42.02-.42.02-.43.02-.42.01-.42.02-.42.02-.42.02-.42.01-.42.02-.42.02-.42.01-.43.02-.42.02-.42.01-.42.02-.42.01-.42.02-.42.01-.42.02-.43.01-.42.02-.42.01-.42.02-.42.02-.42.01-.42.02-.42.01-.42.02-.43.02-.42.02-.42.02-.42.02-.42.02-.42.02-.42.02-.42.02-.43.02-.42.03-.42.02-.42.02-.42.03-.42.03-.42.02-.42.03-.42.03-.43.03-.42.02-.42.03-.42.03-.42.03-.42.03-.42.03-.42.04-.43.03-.42.03-.42.03-.42.03-.42.03-.42.03-.42.04-.42.03-.42.03-.43.03-.42.03-.42.03-.42.03-.42.04-.42.03-.42.03-.42.03-.43.03-.42.03-.42.03-.42.03-.42.03-.42.03-.42.02-.42.03-.42.03-.43.03-.42.03-.42.03-.42.03-.42.03-.42.02-.42.03-.42.03-.43.03-.42.03-.42.03-.42.04-.42.03-.42.03-.42.04-.42.04-.42.04-.43.04-.42.04-.42.05-.42.05-.42.05-.42.06-.42.06-.42.06-.43.07-.42.08-.42.08-.42.09-.42.09-.42.1-.42.11-.42.11-.42.12-.43.14-.42.14-.42.15-.42.15-.42.17-.42.18-.42.19-.42.2-.43.21-.42.22-.42.23-.42.25-.42.25-.42.26-.42.27-.42.29-.42.29-.43.3-.42.31-.42.31-.42.32-.42.33-.42.34-.42.34-.42.34-.43.34-.42.34-.42.35-.42.34-.42.34-.42.33-.42.33-.42.32-.42.32-.43.3-.42.29-.42.28-.42.26-.42.25-.42.23-.42.21-.42.2-.43.17-.42.15-.42.13-.42.1-.42.08-.42.06-.42.03h-.42l-.42-.02-.43-.05-.42-.07-.42-.1-.42-.13-.42-.15-.42-.18-.42-.19-.42-.23-.43-.24-.42-.26-.42-.29-.42-.3-.42-.32-.42-.34-.42-.35-.42-.36-.42-.37-.43-.38-.42-.4-.42-.39-.42-.41-.42-.4-.42-.41-.42-.41-.42-.41-.43-.41-.42-.4-.42-.4-.42-.39-.42-.39-.42-.37-.42-.37-.42-.36-.42-.35-.43-.34-.42-.33-.42-.31-.42-.3-.42-.29-.42-.28-.42-.27-.42-.25-.43-.24-.42-.23-.42-.21-.42-.2-.42-.2-.42-.17-.42-.17-.42-.16-.42-.14-.43-.14-.42-.13-.42-.11-.42-.11-.42-.1-.42-.09-.42-.09-.42-.07-.43-.07-.42-.07-.42-.06-.42-.05-.42-.05-.42-.04-.42-.04-.42-.04-.42-.03-.43-.03-.42-.02-.42-.03-.42-.02-.42-.01-.42-.02-.42-.01-.42-.02-.43-.01-.42-.01-.42-.01h-.42l-.42-.01-.42-.01h-.42l-.42-.01h-.42zm-35.46-36.05h.6l.3-.01h.31l.3-.01h.3l.3-.01.3-.01h.3l.3-.01.3-.01.3-.02.3-.01.3-.02.31-.01.3-.02.3-.03.3-.02.3-.03.3-.03.3-.03.3-.04.3-.04.3-.05.31-.05.3-.05.3-.06.3-.07.3-.07.3-.08.3-.09.3-.09.3-.1.3-.11.31-.11.3-.13.3-.13.3-.14.3-.16.3-.16.3-.17.3-.18.3-.2.3-.2.3-.21.31-.23.3-.24.3-.24.3-.26.3-.27.3-.28.3-.29.3-.29.3-.31.3-.32.31-.32.3-.33.3-.34.3-.35.3-.35.3-.36.3-.36.3-.36.3-.36.3-.37.31-.37.3-.36.3-.37.3-.36.3-.35.3-.36.3-.34.3-.34.3-.33.3-.32.3-.32.31-.3.3-.29.3-.27.3-.27.3-.25.3-.23.3-.22.3-.21.3-.18.3-.18.31-.15.3-.14.3-.12.3-.1.3-.09.3-.07.3-.05.3-.04.3-.02h.3l.31.01.3.03.3.04.3.06.3.08.3.09.3.1.3.11.3.13.3.14.3.15.31.16.3.18.3.18.3.19.3.2.3.21.3.21.3.23.3.22.3.24.31.24.3.24.3.25.3.25.3.26.3.26.3.26.3.26.3.26.3.26.31.27.3.26.3.26.3.27.3.26.3.26.3.25.3.26.3.25.3.25.3.24.31.24.3.24.3.23.3.23.3.23.3.22.3.21.3.21.3.21.3.2.31.2.3.19.3.18.3.18.3.18.3.17.3.17.3.16.3.16.3.15.31.14.3.15.3.13.3.14.3.13.3.12.3.12.3.12.3.11.3.11.3.11.31.1.3.1.3.09.3.09.3.09.3.08.3.08.3.08.3.07.3.07.31.07.3.06.3.06.3.06.3.05.3.06.3.04.3.05.3.04.3.05.31.04.3.03.3.04.3.03.3.03.3.03.3.02.3.03.3.02.3.02.3.02.31.02.3.02.3.02.3.01.3.02.3.01.3.01.3.02.3.01.3.01.31.01.3.01.3.01.3.01.3.01.3.01.3.01.3.01.3.01.3.01.31.01.3.01.3.01.3.01.3.01h.3l.3.01.3.01.3.01.3.01.3.01.31.01h.3l.3.01.3.01.3.01.3.01h.3l.3.01.3.01.3.01.31.01h.3l.3.01.3.01.3.01.3.01h.3l.3.01.3.01.3.01.31.01.3.01h.3l.3.01.3.01.3.01.3.01.3.01.3.01.3.01h.3l.31.01.3.01.3.01.3.01.3.01.3.01h.3l.3.01.3.01.3.01h.31l.3.01.3.01h.3l.3.01h.3l.3.01h.6l.3.01h1.21l.3.01h.3l.3-.01h1.2l.31-.01h.6l.3-.01h.3l.3-.01h.3l.3-.01h.3l.3-.01.31-.01h.3l.3-.01h.3l.3-.01.3-.01h.3l.3-.01.3-.01h.3l.31-.01h.3l.3-.01h.6l.3-.01h.6l.3-.01h1.81l.3.01h.9l.3.01h.3l.31.01h.3l.3.01h.3l.3.01.3.01h.3l.3.01.3.01h.3l.31.01.3.01.3.01h.3l.3.01.3.01h.3l.3.01.3.01h.3l.3.01.31.01h.3l.3.01h.3l.3.01h.3l.3.01h.3l.3.01h.3l.31.01h.6l.3.01h1.2l.3.01h3.61l.31-.01h1.2l.3-.01h.6l.3-.01h.61l.3-.01h.3l.3-.01h.3l.3-.01h.3l.3-.01.3-.01h.3l.31-.01.3-.01h.3l.3-.01.3-.01h.3l.3-.01.3-.01.3-.01h.3l.3-.01.31-.01h.3l.3-.01.3-.01h.3l.3-.01.3-.01h.3l.3-.01h.61l.3-.01h.6l.3-.01h1.81l.3.01h.6l.3.01h.6l.3.01h.3l.3.01.3.01h.31l.3.01.3.01h.3l.3.01.3.01h.3l.3.01.3.01.3.01h.31l.3.01.3.01h.3l.3.01.3.01h.3l.3.01.3.01h.3l.31.01h.3l.3.01h.3l.3.01h.6l.3.01h.3l.3.01h.91l.3.01h1.2l.3.01h2.41l.3.01h.9-1.5l-.3.01h-2.11l-.3.01h-1.2l-.3.01h-.61l-.3.01h-.6l-.3.01h-.3l-.3.01h-.3l-.3.01h-.3l-.31.01h-.3l-.3.01-.3.01h-.3l-.3.01h-.3l-.3.01-.3.01-.3.01h-.31l-.3.01-.3.01-.3.01h-.3l-.3.01-.3.01h-.3l-.3.01-.3.01h-.31l-.3.01h-.3l-.3.01h-.3l-.3.01h-.3l-.3.01h-.9l-.31.01h-1.2l-.3-.01h-.9l-.3-.01h-.31l-.3-.01h-.3l-.3-.01h-.3l-.3-.01h-.3l-.3-.01-.3-.01h-.3l-.31-.01-.3-.01h-.3l-.3-.01-.3-.01-.3-.01h-.3l-.3-.01-.3-.01-.3-.01h-.3l-.31-.01h-.3l-.3-.01-.3-.01h-.3l-.3-.01h-.3l-.3-.01h-.3l-.3-.01h-.31l-.3-.01h-.9l-.3-.01h-.9l-.3-.01h-4.22l-.3.01h-.9l-.3.01h-.6l-.31.01h-.6l-.3.01h-.3l-.3.01h-.3l-.3.01-.3.01h-.3l-.31.01h-.3l-.3.01-.3.01h-.3l-.3.01-.3.01-.3.01h-.3l-.3.01-.3.01-.31.01h-.3l-.3.01-.3.01h-.3l-.3.01-.3.01h-.3l-.3.01h-.3l-.31.01h-.6l-.3.01h-.6l-.3.01h-1.51l-.3-.01h-.9l-.3-.01h-.3l-.3-.01h-.3l-.3-.01h-.31l-.3-.01h-.3l-.3-.01h-.3l-.3-.01-.3-.01h-.3l-.3-.01-.3-.01h-.31l-.3-.01h-.3l-.3-.01h-.3l-.3-.01h-.3l-.3-.01h-.3l-.3-.01h-1.21l-.3-.01h-.9l-.3.01h-1.21l-.3.01h-.3l-.3.01h-.3l-.3.01h-.3l-.3.01-.3.01h-.31l-.3.01-.3.01-.3.01h-.3l-.3.01-.3.01-.3.01-.3.01-.3.01h-.31l-.3.01-.3.01-.3.01-.3.01-.3.01-.3.01-.3.01h-.3l-.3.01-.3.01-.31.01-.3.01-.3.01h-.3l-.3.01-.3.01-.3.01-.3.01h-.3l-.3.01-.31.01-.3.01-.3.01h-.3l-.3.01-.3.01-.3.01-.3.01h-.3l-.3.01-.31.01-.3.01-.3.01-.3.01-.3.01h-.3l-.3.01-.3.01-.3.01-.3.01-.3.01-.31.01-.3.01-.3.01-.3.01-.3.01-.3.01-.3.01-.3.01-.3.01-.3.01-.31.01-.3.01-.3.01-.3.01-.3.02-.3.01-.3.02-.3.01-.3.02-.3.02-.31.02-.3.02-.3.02-.3.02-.3.03-.3.02-.3.03-.3.03-.3.03-.3.04-.3.03-.31.04-.3.04-.3.05-.3.04-.3.05-.3.06-.3.05-.3.06-.3.06-.3.06-.31.07-.3.07-.3.07-.3.08-.3.08-.3.08-.3.09-.3.09-.3.09-.3.1-.31.1-.3.11-.3.11-.3.11-.3.12-.3.12-.3.12-.3.13-.3.13-.3.14-.3.14-.31.15-.3.15-.3.16-.3.16-.3.17-.3.17-.3.18-.3.18-.3.18-.3.19-.31.2-.3.2-.3.21-.3.21-.3.21-.3.22-.3.23-.3.23-.3.23-.3.24-.31.24-.3.24-.3.25-.3.25-.3.26-.3.25-.3.26-.3.26-.3.26-.3.27-.3.26-.31.26-.3.27-.3.26-.3.26-.3.26-.3.26-.3.25-.3.26-.3.25-.3.24-.31.24-.3.23-.3.23-.3.22-.3.22-.3.21-.3.2-.3.19-.3.18-.3.17-.31.17-.3.15-.3.14-.3.12-.3.12-.3.1-.3.09-.3.07-.3.06-.3.05-.3.03-.31.01h-.3l-.3-.02-.3-.04-.3-.05-.3-.07-.3-.09-.3-.1-.3-.12-.3-.14-.31-.16-.3-.17-.3-.19-.3-.2-.3-.22-.3-.24-.3-.25-.3-.26-.3-.28-.3-.28-.31-.31-.3-.31-.3-.32-.3-.33-.3-.34-.3-.34-.3-.36-.3-.35-.3-.36-.3-.37-.3-.36-.31-.37-.3-.37-.3-.36-.3-.37-.3-.36-.3-.35-.3-.35-.3-.35-.3-.34-.3-.33-.31-.32-.3-.32-.3-.31-.3-.3-.3-.28-.3-.28-.3-.27-.3-.26-.3-.25-.3-.23-.31-.23-.3-.21-.3-.21-.3-.19-.3-.18-.3-.17-.3-.17-.3-.15-.3-.14-.3-.13-.3-.13-.31-.12-.3-.1-.3-.1-.3-.1-.3-.08-.3-.08-.3-.07-.3-.07-.3-.06-.3-.05-.31-.05-.3-.05-.3-.04-.3-.04-.3-.03-.3-.03-.3-.03-.3-.03-.3-.02-.3-.02-.31-.01-.3-.02-.3-.01-.3-.02-.3-.01-.3-.01-.3-.01h-.3l-.3-.01-.3-.01h-.61l-.3-.01h-.6zm-28.12-36.04.54-.01h.54l.54-.01h.54l.54-.01h.54l.54-.01.54-.01.54-.01.54-.02.54-.01.55-.02.54-.02.54-.02.54-.03.54-.03.54-.03.54-.04.54-.04.54-.05.54-.05.54-.06.54-.07.54-.07.55-.08.54-.09.54-.1.54-.11.54-.12.54-.14.54-.14.54-.16.54-.17.54-.18.54-.2.54-.21.54-.23.55-.24.54-.26.54-.27.54-.29.54-.31.54-.32.54-.33.54-.35.54-.37.54-.38.54-.39.54-.4.54-.42.55-.42.54-.43.54-.44.54-.45.54-.44.54-.45.54-.45.54-.45.54-.44.54-.44.54-.43.54-.42.54-.41.55-.39.54-.38.54-.36.54-.34.54-.32.54-.3.54-.28.54-.25.54-.22.54-.2.54-.17.54-.15.54-.11.54-.09.55-.06.54-.04h.54l.54.02.54.05.54.07.54.1.54.13.54.14.54.17.54.19.54.21.54.22.55.25.54.26.54.27.54.29.54.3.54.31.54.32.54.33.54.33.54.34.54.35.54.35.54.35.55.35.54.36.54.35.54.36.54.35.54.34.54.35.54.34.54.33.54.33.54.33.54.31.54.31.55.3.54.3.54.28.54.28.54.26.54.26.54.24.54.24.54.23.54.22.54.2.54.2.54.18.54.18.55.17.54.15.54.15.54.14.54.13.54.12.54.11.54.1.54.1.54.09.54.08.54.07.54.07.55.06.54.05.54.05.54.05.54.04.54.04.54.03.54.03.54.03.54.02.54.02.54.02.54.02.55.02.54.01.54.01.54.02.54.01.54.01.54.01.54.02.54.01.54.01.54.02.54.01.54.02.55.01.54.02.54.02.54.02.54.02.54.02.54.02.54.02.54.03.54.02.54.02.54.03.54.03.54.02.55.03.54.03.54.02.54.03.54.03.54.03.54.02.54.03.54.03.54.02.54.03.54.02.54.03.55.02.54.02.54.02.54.02.54.02.54.02.54.02.54.01.54.02.54.01.54.01.54.02.54.01.55.01.54.01.54.01h.54l.54.01.54.01h.54l.54.01.54.01h1.08l.54.01h1.09l.54.01h3.24l.54.01h88.69l.54-.01h3.24l.54-.01h1.62l.54-.01h1.09l.54-.01h.54l.54-.01h.54l.54-.01h.54l.54-.01h.54l.54-.01.54-.01h.54l.54-.01.55-.01h.54l.54-.01.54-.01.54-.01h.54l.54-.01.54-.01.54-.01h.54l.54-.01.54-.01.54-.01h.55l.54-.01h.54l.54-.01h1.08l.54-.01h4.33l.54.01h.54l.54.01h.54l.54.01h.54l.54.01.54.01h.54l.54.01.54.01.55.01h.54l.54.01.54.01.54.01h.54l.54.01.54.01.54.01h.54l.54.01.54.01h.54l.54.01h.55l.54.01h.54l.54.01h.54l.54.01h1.08l.54.01h1.62l.54.01h3.79l.54.01h2.16-1.62l-.54.01h-3.78l-.55.01h-1.62l-.54.01h-1.08l-.54.01h-1.08l-.54.01h-.54l-.54.01h-.55l-.54.01-.54.01h-.54l-.54.01-.54.01h-.54l-.54.01-.54.01h-.54l-.54.01-.54.01-.54.01-.54.01h-.55l-.54.01-.54.01-.54.01h-.54l-.54.01h-.54l-.54.01-.54.01h-1.08l-.54.01h-4.87l-.54-.01h-.54l-.54-.01h-.54l-.54-.01h-.55l-.54-.01-.54-.01h-.54l-.54-.01-.54-.01-.54-.01h-.54l-.54-.01-.54-.01-.54-.01-.54-.01h-.54l-.55-.01-.54-.01h-.54l-.54-.01-.54-.01h-.54l-.54-.01h-.54l-.54-.01h-.54l-.54-.01h-.54l-.54-.01h-1.09l-.54-.01h-2.16l-.54-.01h-3.79l-.54-.01h-87.06l-.54.01h-3.24l-.54.01h-1.63l-.54.01h-.54l-.54.01h-.54l-.54.01h-.54l-.54.01-.54.01h-.54l-.54.01-.54.01-.55.01-.54.01-.54.02-.54.01-.54.01-.54.02-.54.02-.54.01-.54.02-.54.02-.54.02-.54.02-.54.02-.55.03-.54.02-.54.02-.54.03-.54.02-.54.03-.54.03-.54.02-.54.03-.54.03-.54.03-.54.02-.54.03-.55.03-.54.02-.54.03-.54.03-.54.02-.54.03-.54.02-.54.02-.54.02-.54.02-.54.02-.54.02-.54.02-.54.02-.55.01-.54.02-.54.01-.54.02-.54.01-.54.01-.54.02-.54.01-.54.01-.54.01-.54.02-.54.01-.54.02-.55.01-.54.02-.54.02-.54.02-.54.02-.54.03-.54.03-.54.03-.54.04-.54.04-.54.05-.54.05-.54.05-.55.06-.54.07-.54.08-.54.08-.54.08-.54.1-.54.1-.54.11-.54.12-.54.13-.54.14-.54.15-.54.15-.55.17-.54.18-.54.18-.54.2-.54.21-.54.21-.54.23-.54.24-.54.24-.54.26-.54.27-.54.27-.54.28-.54.3-.55.3-.54.31-.54.31-.54.33-.54.33-.54.33-.54.34-.54.35-.54.34-.54.36-.54.35-.54.35-.54.36-.55.35-.54.35-.54.35-.54.35-.54.34-.54.33-.54.33-.54.32-.54.31-.54.3-.54.29-.54.27-.54.26-.55.25-.54.22-.54.21-.54.19-.54.17-.54.15-.54.12-.54.1-.54.07-.54.05-.54.02h-.54l-.54-.04-.55-.06-.54-.08-.54-.12-.54-.15-.54-.17-.54-.2-.54-.22-.54-.25-.54-.28-.54-.3-.54-.32-.54-.34-.54-.36-.54-.38-.55-.39-.54-.41-.54-.42-.54-.43-.54-.44-.54-.44-.54-.45-.54-.45-.54-.44-.54-.45-.54-.45-.54-.43-.54-.44-.55-.42-.54-.42-.54-.4-.54-.39-.54-.38-.54-.36-.54-.36-.54-.33-.54-.32-.54-.31-.54-.29-.54-.27-.54-.26-.55-.24-.54-.23-.54-.21-.54-.2-.54-.18-.54-.17-.54-.16-.54-.14-.54-.13-.54-.12-.54-.12-.54-.1-.54-.09-.55-.08-.54-.07-.54-.07-.54-.06-.54-.05-.54-.05-.54-.04-.54-.04-.54-.03-.54-.03-.54-.03-.54-.02-.54-.02-.55-.02-.54-.01-.54-.02-.54-.01-.54-.01h-.54l-.54-.01-.54-.01h-.54l-.54-.01h-1.08zm19.72-36.05h.44l.44-.01h.89l.44-.01h.45l.44-.01.44-.01h.44l.45-.01.44-.01.44-.01.45-.01.44-.01.44-.02.44-.01.45-.02.44-.02.44-.02.44-.03.45-.03.44-.03.44-.03.45-.03.44-.04.44-.05.44-.04.45-.05.44-.06.44-.06.45-.06.44-.07.44-.08.44-.08.45-.08.44-.1.44-.1.45-.1.44-.11.44-.12.44-.12.45-.14.44-.14.44-.14.44-.15.45-.17.44-.16.44-.18.45-.18.44-.19.44-.19.44-.2.45-.21.44-.22.44-.22.45-.23.44-.23.44-.24.44-.24.45-.25.44-.25.44-.25.45-.26.44-.27.44-.26.44-.27.45-.27.44-.27.44-.27.44-.28.45-.27.44-.28.44-.27.45-.28.44-.27.44-.28.44-.27.45-.27.44-.27.44-.27.45-.26.44-.27.44-.26.44-.25.45-.26.44-.25.44-.25.45-.24.44-.24.44-.23.44-.23.45-.23.44-.22.44-.21.44-.2.45-.2.44-.19.44-.18.45-.17.44-.17.44-.15.44-.14.45-.13.44-.12.44-.11.45-.09.44-.08.44-.07.44-.05.45-.03.44-.02h.44l.45.01.44.04.44.05.44.06.45.09.44.1.44.12.44.14.45.15.44.17.44.19.45.21.44.22.44.23.44.25.45.26.44.28.44.28.45.3.44.31.44.32.44.32.45.33.44.34.44.34.45.34.44.35.44.34.44.35.45.35.44.34.44.34.44.34.45.33.44.33.44.32.45.32.44.3.44.3.44.29.45.29.44.27.44.26.45.26.44.24.44.24.44.22.45.22.44.21.44.19.44.19.45.18.44.17.44.16.45.15.44.15.44.13.44.13.45.13.44.11.44.11.45.11.44.09.44.1.44.09.45.08.44.08.44.07.45.08.44.06.44.07.44.06.45.06.44.06.44.05.44.05.45.05.44.05.44.05.45.04.44.04.44.05.44.03.45.04.44.04.44.03.45.04.44.03.44.03.44.03.45.02.44.03.44.02.45.03.44.02.44.02.44.02.45.01.44.02.44.01.44.02.45.01.44.01.44.01.45.01.44.01h.44l.44.01h.89l.44.01h2.22l.44-.01h1.33l.44-.01h.89l.44-.01h1.33l.44-.01h1.77l.44-.01h1.33l.45.01h1.77l.44.01h.44l.45.01h.44l.44.01h.44l.45.01h.44l.44.01.44.01h.45l.44.01.44.01h.45l.44.01.44.01.44.01h.45l.44.01.44.01h.45l.44.01.44.01h.44l.45.01.44.01h.44l.45.01h.44l.44.01h.44l.45.01h.44l.44.01h.89l.44.01h.89l.44.01h1.77l.44.01h3.99l.44.01h1.77l.44-.01h3.99l.44-.01h1.77l.45-.01h.88l.45-.01h.88l.44-.01h.45l.44-.01h.44l.44-.01h.45l.44-.01h.44l.45-.01.44-.01h.44l.44-.01.45-.01h.44l.44-.01.45-.01h.44l.44-.01.44-.01.45-.01h.44l.44-.01.45-.01h.44l.44-.01.44-.01h.45l.44-.01h.44l.44-.01h.45l.44-.01h.44l.45-.01h5.31l.44.01h.89l.44.01h.44l.45.01h.44l.44.01h.89l.44.01h.44l.45.01h.44l.44.01h.89l.44.01h1.33l.44.01h2.66l.44-.01h1.33l.44-.01h.89l.44-.01h.44l.45-.01h.44l.44-.01h.44l.45-.01h.88l.45-.01h.44l.44-.01h.89l.44-.01h5.31l.45.01h.44l.44.01h.44l.45.01h.44l.44.01h.45l.44.01.44.01h.44l.45.01.44.01h.44l.44.01.45.01.44.01h.44l.45.01.44.01.44.01h.44l.45.01.44.01h.44l.45.01h.44l.44.01h.44l.45.01h.44l.44.01h.45l.44.01h.88l.45.01h.88l.44.01h1.33l.45.01h3.1l.44.01h2.66l-.45.01h-4.43l-.44.01h-2.21l-.45.01h-.88l-.44.01h-.89l-.44.01h-.89l-.44.01h-.44l-.45.01h-.44l-.44.01-.44.01h-.45l-.44.01h-.44l-.45.01-.44.01-.44.01h-.44l-.45.01-.44.01h-.44l-.45.01-.44.01-.44.01h-.44l-.45.01-.44.01h-.44l-.44.01-.45.01h-.44l-.44.01h-.45l-.44.01h-.44l-.44.01h-1.33l-.45.01h-2.65l-.45-.01h-1.32l-.45-.01h-.88l-.44-.01h-.45l-.44-.01h-.44l-.45-.01h-.88l-.44-.01h-.45l-.44-.01h-.44l-.45-.01h-.88l-.44-.01h-5.32l-.44.01h-.89l-.44.01h-.44l-.44.01h-.89l-.44.01h-.45l-.44.01h-.44l-.44.01h-.45l-.44.01h-.88l-.45.01h-1.33l-.44.01h-2.66l-.44-.01h-1.33l-.44-.01h-.44l-.45-.01h-.44l-.44-.01h-.44l-.45-.01-.44-.01h-.44l-.44-.01-.45-.01h-.44l-.44-.01-.45-.01-.44-.01h-.44l-.44-.01-.45-.01h-.44l-.44-.01-.45-.01h-.44l-.44-.01-.44-.01h-.45l-.44-.01h-.44l-.45-.01-.44-.01h-.88l-.45-.01h-.44l-.44-.01h-.89l-.44-.01h-1.33l-.44-.01h-1.77l-.45-.01h-8.85l-.44.01h-1.78l-.44.01h-1.33l-.44.01h-.89l-.44.01h-.44l-.44.01h-.45l-.44.01h-.44l-.44.01h-.45l-.44.01h-.44l-.45.01-.44.01h-.44l-.44.01-.45.01h-.44l-.44.01-.45.01-.44.01h-.44l-.44.01-.45.01h-.44l-.44.01-.45.01h-.44l-.44.01-.44.01h-.45l-.44.01h-.44l-.44.01h-.45l-.44.01h-.89l-.44.01h-3.98l-.45-.01h-1.33l-.44-.01h-.88l-.45-.01h-.88l-.44-.01h-4.43l-.45.01h-.44l-.44.01-.44.01h-.45l-.44.01-.44.01-.45.02-.44.01-.44.01-.44.02-.45.02-.44.02-.44.02-.44.02-.45.02-.44.02-.44.03-.45.03-.44.03-.44.03-.44.03-.45.03-.44.04-.44.03-.45.04-.44.04-.44.04-.44.04-.45.05-.44.04-.44.05-.45.05-.44.05-.44.06-.44.05-.45.06-.44.06-.44.07-.44.07-.45.07-.44.08-.44.07-.45.09-.44.09-.44.09-.44.1-.45.1-.44.11-.44.12-.45.12-.44.13-.44.14-.44.14-.45.15-.44.17-.44.16-.45.18-.44.19-.44.2-.44.2-.45.22-.44.22-.44.24-.44.24-.45.26-.44.26-.44.28-.45.28-.44.29-.44.3-.44.31-.45.31-.44.32-.44.33-.45.33-.44.34-.44.34-.44.35-.45.34-.44.35-.44.35-.44.34-.45.35-.44.34-.44.33-.45.33-.44.33-.44.31-.44.31-.45.3-.44.29-.44.27-.45.26-.44.25-.44.24-.44.22-.45.2-.44.19-.44.17-.45.16-.44.13-.44.12-.44.11-.45.08-.44.07-.44.05-.44.03-.45.01h-.44l-.44-.02-.45-.03-.44-.05-.44-.07-.44-.07-.45-.1-.44-.1-.44-.12-.45-.13-.44-.15-.44-.15-.44-.16-.45-.17-.44-.19-.44-.19-.45-.19-.44-.21-.44-.21-.44-.22-.45-.22-.44-.23-.44-.24-.44-.24-.45-.24-.44-.25-.44-.25-.45-.25-.44-.26-.44-.26-.44-.26-.45-.27-.44-.27-.44-.27-.45-.27-.44-.27-.44-.27-.44-.28-.45-.27-.44-.28-.44-.27-.45-.28-.44-.27-.44-.28-.44-.27-.45-.27-.44-.27-.44-.26-.44-.26-.45-.26-.44-.26-.44-.25-.45-.25-.44-.24-.44-.24-.44-.23-.45-.23-.44-.22-.44-.21-.45-.21-.44-.2-.44-.2-.44-.19-.45-.18-.44-.17-.44-.17-.45-.16-.44-.15-.44-.15-.44-.14-.45-.13-.44-.13-.44-.11-.44-.12-.45-.1-.44-.1-.44-.09-.45-.09-.44-.08-.44-.07-.44-.07-.45-.07-.44-.06-.44-.05-.45-.05-.44-.05-.44-.04-.44-.04-.45-.04-.44-.03-.44-.03-.45-.03-.44-.02-.44-.02-.44-.02-.45-.02-.44-.02-.44-.01-.44-.02-.45-.01-.44-.01-.44-.01h-.45l-.44-.01-.44-.01h-.44l-.45-.01h-.44l-.44-.01h-1.33zm-1.83-36.04.32-.01h1.64l.32-.01h.66l.32-.01h.33l.33-.01.32-.01h.33l.33-.01.32-.01.33-.01.32-.01.33-.02.33-.01.32-.02.33-.02.33-.02.32-.02.33-.03.33-.03.32-.03.33-.03.33-.04.32-.05.33-.04.33-.06.32-.05.33-.06.33-.07.32-.08.33-.08.33-.08.32-.1.33-.1.32-.11.33-.12.33-.12.32-.14.33-.14.33-.16.32-.16.33-.18.33-.18.32-.2.33-.2.33-.22.32-.23.33-.24.33-.25.32-.26.33-.27.33-.28.32-.29.33-.31.32-.31.33-.32.33-.33.32-.33.33-.35.33-.35.32-.35.33-.37.33-.36.32-.37.33-.37.33-.37.32-.37.33-.37.33-.36.32-.36.33-.36.33-.35.32-.35.33-.34.33-.32.32-.32.33-.31.32-.3.33-.28.33-.27.32-.26.33-.24.33-.22.32-.21.33-.2.33-.18.32-.16.33-.14.33-.13.32-.11.33-.1.33-.08.32-.06.33-.05.33-.03.32-.02h.33l.33.01.32.03.33.04.32.05.33.06.33.07.32.09.33.09.33.11.32.11.33.12.33.13.32.14.33.15.33.15.32.16.33.16.33.18.32.17.33.18.33.19.32.19.33.2.32.2.33.21.33.2.32.22.33.21.33.22.32.23.33.22.33.23.32.23.33.24.33.23.32.24.33.24.33.24.32.24.33.24.33.24.32.24.33.24.33.24.32.23.33.24.32.23.33.23.33.23.32.23.33.22.33.21.32.22.33.21.33.2.32.2.33.19.33.19.32.19.33.18.33.17.32.17.33.16.33.16.32.15.33.15.32.14.33.13.33.14.32.12.33.13.33.12.32.11.33.11.33.11.32.11.33.1.33.1.32.09.33.1.33.09.32.09.33.08.33.09.32.08.33.08.33.08.32.07.33.08.32.07.33.08.33.07.32.07.33.06.33.07.32.06.33.06.33.06.32.06.33.06.33.05.32.06.33.05.33.05.32.04.33.05.33.04.32.04.33.04.33.04.32.03.33.03.32.03.33.03.33.03.32.02.33.03.33.02.32.02.33.02.33.02.32.01.33.02.33.01.32.01.33.02.33.01.32.01.33.01.33.01.32.01h.33l.32.01.33.01.33.01.32.01h.33l.33.01.32.01.33.01.33.01h.32l.33.01.33.01.32.01.33.01h.33l.32.01.33.01.33.01.32.01.33.01.33.01h.32l.33.01.32.01.33.01.33.01h.32l.33.01.33.01.32.01h.33l.33.01.32.01h.33l.33.01h.32l.33.01h.33l.32.01h.33l.33.01h.65l.33.01h.65l.32.01h.98l.33.01h2.29l.32.01h5.55l.33-.01h1.96l.33-.01h.98l.32-.01h.65l.33-.01h.65l.33-.01h.33l.32-.01h.33l.33-.01h.32l.33-.01h.33l.32-.01.33-.01h.33l.32-.01.33-.01h.33l.32-.01.33-.01.33-.01h.32l.33-.01.32-.01.33-.01h.33l.32-.01.33-.01.33-.01h.32l.33-.01.33-.01h.32l.33-.01h.33l.32-.01h.33l.33-.01h.65l.33-.01h2.28l.33.01h.98l.32.01h.33l.33.01h.32l.33.01h.33l.32.01h.33l.33.01h.32l.33.01h.33l.32.01h.33l.32.01h.33l.33.01h.98l.32.01h3.27l.33-.01h.65l.33-.01h.32l.33-.01h.32l.33-.01h.33l.32-.01h.33l.33-.01h.32l.33-.01h.33l.32-.01h.33l.33-.01h.32l.33-.01h.98l.33-.01h2.28l.33.01h.65l.33.01h.32l.33.01h.33l.32.01h.33l.33.01.32.01h.33l.33.01.32.01h.33l.33.01.32.01.33.01h.32l.33.01.33.01.32.01.33.01h.33l.32.01.33.01h.33l.32.01.33.01h.33l.32.01h.33l.33.01h.32l.33.01h.33l.32.01h.66l.32.01h.65l.33.01h.98l.33.01h1.96l.32.01h2.29v.01h-3.27l-.32.01h-1.64l-.32.01h-.66l-.32.01h-.65l-.33.01h-.65l-.33.01h-.33l-.32.01h-.33l-.33.01h-.32l-.33.01-.33.01h-.32l-.33.01-.33.01h-.32l-.33.01-.33.01-.32.01h-.33l-.33.01-.32.01-.33.01h-.32l-.33.01-.33.01-.32.01h-.33l-.33.01-.32.01h-.33l-.33.01-.32.01h-.33l-.33.01h-.65l-.33.01h-1.3l-.33.01h-.65l-.33-.01h-1.3l-.33-.01h-.33l-.32-.01h-.33l-.33-.01h-.32l-.33-.01h-.33l-.32-.01h-.33l-.33-.01h-.32l-.33-.01h-.33l-.32-.01h-.33l-.32-.01h-.66l-.32-.01h-1.31l-.33-.01h-.98l-.32.01h-1.31l-.33.01h-.32l-.33.01h-.65l-.33.01h-.32l-.33.01h-.33l-.32.01-.33.01h-.33l-.32.01h-.33l-.33.01h-.65l-.33.01h-.32l-.33.01h-1.31l-.32.01h-.66l-.32-.01h-1.31l-.32-.01h-.33l-.33-.01h-.32l-.33-.01h-.33l-.32-.01h-.33l-.33-.01-.32-.01h-.33l-.33-.01-.32-.01-.33-.01h-.33l-.32-.01-.33-.01-.32-.01-.33-.01h-.33l-.32-.01-.33-.01h-.33l-.32-.01-.33-.01h-.33l-.32-.01-.33-.01h-.33l-.32-.01h-.33l-.33-.01h-.32l-.33-.01h-.33l-.32-.01h-.66l-.32-.01h-.98l-.33-.01h-1.63l-.33-.01h-7.83l-.33.01h-1.63l-.33.01h-.65l-.33.01h-.65l-.33.01h-.65l-.33.01h-.32l-.33.01h-.33l-.32.01h-.33l-.33.01-.32.01h-.33l-.33.01-.32.01-.33.01h-.33l-.32.01-.33.01-.33.01h-.32l-.33.01-.32.01-.33.01-.33.01-.32.01h-.33l-.33.01-.32.01-.33.01-.33.01-.32.01h-.33l-.33.01-.32.01-.33.01-.33.01h-.32l-.33.01-.33.01-.32.01-.33.01h-.33l-.32.01-.33.01-.32.01-.33.01-.33.01-.32.01-.33.01-.33.01-.32.02-.33.01-.33.01-.32.02-.33.02-.33.02-.32.02-.33.02-.33.02-.32.03-.33.02-.33.03-.32.03-.33.04-.32.03-.33.04-.33.03-.32.05-.33.04-.33.04-.32.05-.33.05-.33.05-.32.05-.33.06-.33.05-.32.06-.33.06-.33.06-.32.07-.33.06-.33.07-.32.07-.33.07-.33.07-.32.08-.33.07-.32.08-.33.08-.33.08-.32.08-.33.08-.33.09-.32.09-.33.09-.33.09-.32.1-.33.1-.33.1-.32.1-.33.11-.33.11-.32.12-.33.12-.33.12-.32.13-.33.13-.33.14-.32.14-.33.15-.32.15-.33.16-.33.16-.32.17-.33.17-.33.18-.32.18-.33.19-.33.2-.32.2-.33.2-.33.21-.32.21-.33.22-.33.22-.32.22-.33.23-.33.23-.32.24-.33.23-.32.24-.33.24-.33.24-.32.24-.33.24-.33.24-.32.24-.33.24-.33.24-.32.23-.33.24-.33.23-.32.23-.33.23-.33.23-.32.22-.33.22-.33.22-.32.21-.33.21-.33.21-.32.2-.33.19-.32.19-.33.19-.33.18-.32.18-.33.17-.33.17-.32.16-.33.15-.33.14-.32.14-.33.13-.33.12-.32.12-.33.1-.33.1-.32.08-.33.08-.33.06-.32.05-.33.04-.32.02-.33.02-.33-.01-.32-.01-.33-.04-.33-.04-.32-.07-.33-.08-.33-.09-.32-.11-.33-.13-.33-.15-.32-.16-.33-.18-.33-.19-.32-.21-.33-.23-.33-.24-.32-.25-.33-.27-.33-.29-.32-.29-.33-.31-.32-.32-.33-.33-.33-.33-.32-.35-.33-.35-.33-.36-.32-.36-.33-.37-.33-.37-.32-.37-.33-.37-.33-.37-.32-.36-.33-.37-.33-.36-.32-.35-.33-.36-.33-.34-.32-.34-.33-.33-.33-.32-.32-.31-.33-.3-.32-.29-.33-.28-.33-.28-.32-.26-.33-.25-.33-.24-.32-.22-.33-.22-.33-.21-.32-.19-.33-.19-.33-.17-.32-.17-.33-.15-.33-.15-.32-.13-.33-.13-.33-.12-.32-.11-.33-.1-.32-.09-.33-.09-.33-.08-.32-.07-.33-.07-.33-.06-.32-.06-.33-.05-.33-.05-.32-.04-.33-.04-.33-.04-.32-.03-.33-.03-.33-.02-.32-.03-.33-.02-.33-.02-.32-.01-.33-.02-.33-.01-.32-.01-.33-.01-.32-.01-.33-.01-.33-.01h-.32l-.33-.01h-.33l-.32-.01h-.33l-.33-.01h-.98l-.32-.01h-.98zM746.91 72.02h1.16l.29-.01h.58l.29-.01h.29l.29-.01.29-.01h.29l.29-.01.29-.01.29-.01.29-.01.29-.01.29-.02.29-.01.29-.02.29-.02.29-.02.29-.02.29-.02.29-.03.29-.03.29-.03.29-.04.29-.04.29-.04.29-.04.29-.05.29-.05.29-.06.29-.06.29-.07.29-.07.29-.07.29-.09.29-.08.29-.09.29-.1.29-.1.29-.11.29-.12.3-.12.29-.13.29-.14.29-.15.29-.15.29-.16.29-.16.29-.18.29-.18.29-.19.29-.2.29-.2.29-.22.29-.22.29-.23.29-.23.29-.25.29-.25.29-.26.29-.27.29-.28.29-.28.29-.29.29-.29.29-.3.29-.31.29-.31.29-.32.29-.32.29-.32.29-.33.29-.33.29-.33.29-.34.29-.33.29-.33.29-.34.29-.33.29-.32.29-.33.29-.32.29-.31.29-.3.29-.3.29-.3.29-.28.29-.27.29-.26.29-.25.29-.23.29-.22.29-.21.29-.19.29-.18.29-.16.29-.14.29-.13.29-.1.29-.09.29-.07.29-.05.29-.03.29-.01.29.01.29.03.29.05.29.07.29.09.29.1.29.13.29.14.29.16.29.17.29.2.29.2.29.23.29.23.29.25.29.26.29.27.29.28.29.29.29.3.29.3.29.32.29.31.29.32.29.33.29.32.29.33.29.33.29.32.29.33.29.32.29.33.29.31.29.32.29.31.29.3.29.3.29.3.29.28.29.28.29.28.29.26.29.26.29.25.29.24.29.24.29.22.29.22.29.21.29.2.29.2.29.18.29.18.29.17.3.16.29.15.29.15.29.13.29.14.29.12.29.11.29.11.29.11.29.09.29.09.29.09.29.08.29.07.29.07.29.06.29.05.29.06.29.05.29.04.29.04.29.03.29.04.29.03.29.02.29.03.29.02.29.01.29.02.29.01.29.01.29.01.29.01.29.01h.29l.29.01h5.22l.29.01h.87l.29.01h.29l.29.01h.29l.29.01h.29l.29.01.29.01.29.01h.29l.29.01.29.01.29.01.29.01.29.01.29.01.29.01.29.01.29.01.29.01.29.01.29.01.29.01.29.01.29.01.29.01.29.02.29.01.29.01.29.01.29.01.29.01.29.02.29.01.29.01.29.01.29.02.29.01.29.01.29.02.29.01.29.01.29.02.29.01.29.02.29.02.29.01.29.02.29.01.29.02.29.02.29.02.29.01.29.02.29.02.29.02.29.02.29.01.29.02.3.02.29.02.29.02.29.01.29.02.29.02.29.02.29.01.29.02.29.02.29.01.29.02.29.01.29.02.29.01.29.01.29.01.29.02.29.01.29.01.29.01.29.01.29.01.29.01.29.01h.29l.29.01.29.01h.29l.29.01h.29l.29.01h.29l.29.01h.58l.29.01h.58l.29.01h1.45l.29.01h16.24l.29-.01h1.74l.29-.01h.87l.29-.01h.58l.29-.01h.59l.29-.01h.29l.29-.01h.29l.29-.01h.29l.29-.01.29-.01h.29l.29-.01.29-.01h.29l.29-.01.29-.01h.29l.29-.01.29-.01.29-.01h.29l.29-.01.29-.01h.29l.29-.01.29-.01h.29l.29-.01h.29l.29-.01h.29l.29-.01h.58l.29-.01h2.9l.29.01h.58l.29.01h.29l.29.01h.29l.29.01.29.01h.29l.29.01.29.01h.29l.29.01.29.01h.29l.29.01.29.01.29.01h.29l.29.01.29.01h.29l.29.01.29.01h.29l.29.01h.29l.29.01h.29l.29.01h.29l.29.01h.58l.29.01h.58l.29.01h.87l.29.01h1.45l.29.01h2.61v.01h-2.9l-.29.01h-1.45l-.29.01h-.87l-.29.01h-.58l-.29.01h-.29l-.29.01h-.29l-.29.01h-.29l-.29.01h-.29l-.29.01h-.29l-.29.01-.29.01h-.29l-.29.01-.29.01h-.29l-.29.01-.29.01h-.29l-.29.01-.29.01-.29.01h-.29l-.29.01-.29.01h-.29l-.29.01-.29.01h-.29l-.29.01H876l-.29.01h-.58l-.29.01h-2.9l-.29-.01h-.58l-.29-.01h-.29l-.29-.01h-.29l-.29-.01-.29-.01h-.29l-.29-.01-.29-.01h-.29l-.29-.01-.29-.01h-.29l-.29-.01-.29-.01h-.29l-.29-.01-.29-.01-.29-.01h-.29l-.29-.01h-.29l-.29-.01-.29-.01h-.29l-.29-.01h-.29l-.29-.01h-.29l-.29-.01h-.59l-.29-.01h-.58l-.29-.01h-.87l-.29-.01h-1.45l-.29-.01h-5.51l-.29-.01h-5.51l-.29.01h-5.22l-.29.01h-1.16l-.29.01h-.87l-.29.01h-.29l-.29.01h-.58l-.29.01-.29.01h-.29l-.29.01-.29.01h-.29l-.29.01-.29.01-.29.01-.29.01-.29.01-.29.01-.29.01-.29.01-.29.02-.29.01-.29.01-.29.02-.29.01-.29.02-.29.01-.29.02-.29.02-.29.01-.29.02-.29.02-.29.01-.29.02-.29.02-.29.02-.3.02-.29.01-.29.02-.29.02-.29.02-.29.02-.29.01-.29.02-.29.02-.29.02-.29.01-.29.02-.29.02-.29.01-.29.02-.29.01-.29.02-.29.01-.29.02-.29.01-.29.02-.29.01-.29.01-.29.02-.29.01-.29.01-.29.01-.29.02-.29.01-.29.01-.29.01-.29.01-.29.01-.29.01-.29.02-.29.01-.29.01-.29.01-.29.01-.29.01-.29.01-.29.01-.29.01-.29.01-.29.01-.29.01-.29.01-.29.01-.29.01h-.29l-.29.01-.29.01-.29.01h-.29l-.29.01-.29.01h-.29l-.29.01h-.58l-.29.01h-.87l-.29.01h-4.93l-.29.01h-.29l-.29.01-.29.01-.29.01-.29.01-.29.01-.29.02-.29.01-.29.02-.29.03-.29.02-.29.03-.29.03-.29.04-.29.04-.29.04-.29.05-.29.05-.29.06-.29.06-.29.07-.29.07-.29.08-.29.09-.29.09-.29.09-.29.1-.29.11-.29.12-.29.12-.29.13-.29.14-.29.15-.29.15-.3.16-.29.17-.29.18-.29.18-.29.2-.29.2-.29.21-.29.22-.29.22-.29.24-.29.24-.29.25-.29.26-.29.26-.29.28-.29.28-.29.28-.29.3-.29.3-.29.3-.29.31-.29.31-.29.32-.29.32-.29.33-.29.32-.29.33-.29.33-.29.33-.29.32-.29.33-.29.32-.29.31-.29.31-.29.31-.29.3-.29.29-.29.28-.29.27-.29.26-.29.25-.29.23-.29.23-.29.2-.29.19-.29.18-.29.16-.29.14-.29.13-.29.1-.29.09-.29.07-.29.05-.29.03-.29.01-.29-.01-.29-.03-.29-.05-.29-.07-.29-.09-.29-.1-.29-.13-.29-.14-.29-.16-.29-.18-.29-.19-.29-.21-.29-.22-.29-.23-.29-.25-.29-.26-.29-.27-.29-.29-.29-.29-.29-.3-.29-.3-.29-.32-.29-.31-.29-.33-.29-.33-.29-.33-.29-.33-.29-.33-.29-.33-.29-.34-.29-.33-.29-.33-.29-.33-.29-.32-.29-.32-.29-.32-.29-.31-.29-.31-.29-.3-.29-.29-.29-.29-.29-.28-.29-.28-.29-.27-.29-.26-.29-.25-.29-.25-.29-.23-.29-.23-.29-.23-.29-.21-.29-.21-.29-.19-.29-.19-.29-.18-.29-.18-.29-.17-.29-.15-.29-.16-.29-.14-.29-.14-.29-.13-.3-.12-.29-.12-.29-.11-.29-.1-.29-.1-.29-.09-.29-.09-.29-.08-.29-.07-.29-.07-.29-.07-.29-.06-.29-.06-.29-.05-.29-.05-.29-.04-.29-.05-.29-.03-.29-.04-.29-.03-.29-.03-.29-.03-.29-.02-.29-.02-.29-.03-.29-.01-.29-.02-.29-.02-.29-.01-.29-.01-.29-.01-.29-.01-.29-.01-.29-.01-.29-.01h-.29l-.29-.01h-.29l-.29-.01h-.58l-.29-.01h-.87l-.29-.01z" color="#000" shape-rendering="crispEdges"/><path fill="none" stroke="#000" d="M399.74 54.01V342.4h855.08V54.01H399.74Z" color="#000"/><text color="#000" font-family="Helvetica" font-size="12" text-anchor="middle" transform="translate(827.28 30.91)"><tspan>with_memcache/1024: Violin plot</tspan></text></svg>