<svg xmlns="http://www.w3.org/2000/svg" viewBox="0 0 1280 450"><path fill="none" d="M0 0h1280v450H0z"/><g fill="none" stroke="currentColor" color="#000"><path stroke="#000" d="M424.91 375.48h9"/><text fill="#000" stroke="none" font-family="Helvetica" font-size="12" text-anchor="end" transform="translate(416.52 379.38)"><tspan>with_memcache/mmap_rw_truncate/1048576</tspan></text></g><g fill="none" stroke="currentColor" color="#000"><path stroke="#000" d="M424.91 341.64h9"/><text fill="#000" stroke="none" font-family="Helvetica" font-size="12" text-anchor="end" transform="translate(416.52 345.54)"><tspan>with_memcache/mmap_read_only_fallocate/1048576</tspan></text></g><g fill="none" stroke="currentColor" color="#000"><path stroke="#000" d="M424.91 307.8h9"/><text fill="#000" stroke="none" font-family="Helvetica" font-size="12" text-anchor="end" transform="translate(416.52 311.7)"><tspan>with_memcache/mmap_read_only_truncate/1048576</tspan></text></g><g fill="none" stroke="currentColor" color="#000"><path stroke="#000" d="M424.91 273.96h9"/><text fill="#000" stroke="none" font-family="Helvetica" font-size="12" text-anchor="end" transform="translate(416.52 277.86)"><tspan>with_memcache/mmap_read_only/1048576</tspan></text></g><g fill="none" stroke="currentColor" color="#000"><path stroke="#000" d="M424.91 240.12h9"/><text fill="#000" stroke="none" font-family="Helvetica" font-size="12" text-anchor="end" transform="translate(416.52 244.02)"><tspan>with_memcache/buffered_entire_file/1048576</tspan></text></g><g fill="none" stroke="currentColor" color="#000"><path stroke="#000" d="M424.91 206.29h9"/><text fill="#000" stroke="none" font-family="Helvetica" font-size="12" text-anchor="end" transform="translate(416.52 210.19)"><tspan>with_memcache/buffered_parallel/1048576</tspan></text></g><g fill="none" stroke="currentColor" color="#000"><path stroke="#000" d="M424.91 172.45h9"/><text fill="#000" stroke="none" font-family="Helvetica" font-size="12" text-anchor="end" transform="translate(416.52 176.35)"><tspan>with_memcache/buffered_readahead_tuned/1048576</tspan></text></g><g fill="none" stroke="currentColor" color="#000"><path stroke="#000" d="M424.91 138.61h9"/><text fill="#000" stroke="none" font-family="Helvetica" font-size="12" text-anchor="end" transform="translate(416.52 142.51)"><tspan>with_memcache/buffered_l1_tuned/1048576</tspan></text></g><g fill="none" stroke="currentColor" color="#000"><path stroke="#000" d="M424.91 104.77h9"/><text fill="#000" stroke="none" font-family="Helvetica" font-size="12" text-anchor="end" transform="translate(416.52 108.67)"><tspan>with_memcache/buffered/1048576</tspan></text></g><g fill="none" stroke="currentColor" color="#000"><path stroke="#000" d="M424.91 70.93h9"/><text fill="#000" stroke="none" font-family="Helvetica" font-size="12" text-anchor="end" transform="translate(416.52 74.83)"><tspan>with_memcache/copy_file_range/1048576</tspan></text></g><path fill="none" stroke="gray" stroke-dasharray="2,4" stroke-width=".5" d="M424.91 392.4V54.01" class="gridline" color="gray"/><g fill="none" stroke="currentColor" color="#000"><path stroke="#000" d="M424.91 392.4v-9"/><text fill="#000" stroke="none" font-family="Helvetica" font-size="12" text-anchor="middle" transform="translate(424.91 414.3)"><tspan> 0</tspan></text></g><path fill="none" stroke="gray" stroke-dasharray="2,4" stroke-width=".5" d="M533.55 392.4V54.01" class="gridline" color="gray"/><g fill="none" stroke="currentColor" color="#000"><path stroke="#000" d="M533.55 392.4v-9"/><text fill="#000" stroke="none" font-family="Helvetica" font-size="12" text-anchor="middle" transform="translate(533.55 414.3)"><tspan> 200</tspan></text></g><path fill="none" stroke="gray" stroke-dasharray="2,4" stroke-width=".5" d="M642.18 392.4V54.01" class="gridline" color="gray"/><g fill="none" stroke="currentColor" color="#000"><path stroke="#000" d="M642.18 392.4v-9"/><text fill="#000" stroke="none" font-family="Helvetica" font-size="12" text-anchor="middle" transform="translate(642.18 414.3)"><tspan> 400</tspan></text></g><path fill="none" stroke="gray" stroke-dasharray="2,4" stroke-width=".5" d="M750.82 392.4V54.01" class="gridline" color="gray"/><g fill="none" stroke="currentColor" color="#000"><path stroke="#000" d="M750.82 392.4v-9"/><text fill="#000" stroke="none" font-family="Helvetica" font-size="12" text-anchor="middle" transform="translate(750.82 414.3)"><tspan> 600</tspan></text></g><path fill="none" stroke="gray" stroke-dasharray="2,4" stroke-width=".5" d="M859.45 392.4V54.01" class="gridline" color="gray"/><g fill="none" stroke="currentColor" color="#000"><path stroke="#000" d="M859.45 392.4v-9"/><text fill="#000" stroke="none" font-family="Helvetica" font-size="12" text-anchor="middle" transform="translate(859.45 414.3)"><tspan> 800</tspan></text></g><path fill="none" stroke="gray" stroke-dasharray="2,4" stroke-width=".5" d="M968.09 392.4V54.01" class="gridline" color="gray"/><g fill="none" stroke="currentColor" color="#000"><path stroke="#000" d="M968.09 392.4v-9"/><text fill="#000" stroke="none" font-family="Helvetica" font-size="12" text-anchor="middle" transform="translate(968.09 414.3)"><tspan> 1000</tspan></text></g><path fill="none" stroke="gray" stroke-dasharray="2,4" stroke-width=".5" d="M1076.72 392.4V54.01" class="gridline" color="gray"/><g fill="none" stroke="currentColor" color="#000"><path stroke="#000" d="M1076.72 392.4v-9"/><text fill="#000" stroke="none" font-family="Helvetica" font-size="12" text-anchor="middle" transform="translate(1076.72 414.3)"><tspan> 1200</tspan></text></g><path fill="none" stroke="gray" stroke-dasharray="2,4" stroke-width=".5" d="M1185.36 392.4V81.01m0-18v-9" class="gridline" color="gray"/><g fill="none" stroke="currentColor" color="#000"><path stroke="#000" d="M1185.36 392.4v-9"/><text fill="#000" stroke="none" font-family="Helvetica" font-size="12" text-anchor="middle" transform="translate(1185.36 414.3)"><tspan> 1400</tspan></text></g><path fill="none" stroke="#000" d="M424.91 54.01V392.4h829.91V54.01H424.91Z" color="#000"/><text color="#000" font-family="Helvetica" font-size="12" text-anchor="middle" transform="rotate(-90 121.195 102.015)"><tspan>Input</tspan></text><text color="#000" font-family="Helvetica" font-size="12" text-anchor="middle" transform="translate(839.86 441.3)"><tspan>Average time (us)</tspan></text><text color="#000" font-family="Helvetica" font-size="12" text-anchor="end" transform="translate(1187.09 75.91)"><tspan>PDF</tspan></text><path fill="#1F78B4" d="M1195.48 76.51h42.56v-9h-42.56zM747.6 375.48h1.37l.28-.01h1.65l.28-.01h.55l.28-.01h.55l.27-.01h.28l.27-.01h.28l.27-.01h.28l.28-.01.27-.01.28-.01.27-.01.28-.01.27-.01.28-.01.28-.01.27-.01.28-.01.27-.02.28-.01.27-.02.28-.01.27-.02.28-.02.28-.02.27-.02.28-.02.27-.02.28-.02.27-.03.28-.02.27-.03.28-.03.28-.03.27-.03.28-.03.27-.04.28-.04.27-.04.28-.04.28-.04.27-.05.28-.05.27-.05.28-.06.27-.06.28-.06.27-.07.28-.07.28-.08.27-.08.28-.09.27-.09.28-.1.27-.1.28-.11.27-.12.28-.13.28-.13.27-.14.28-.15.27-.16.28-.17.27-.18.28-.19.28-.2.27-.22.28-.22.27-.24.28-.25.27-.26.28-.27.27-.29.28-.3.28-.31.27-.33.28-.33.27-.35.28-.36.27-.37.28-.38.28-.39.27-.39.28-.4.27-.4.28-.41.27-.41.28-.4.27-.4.28-.4.28-.39.27-.38.28-.36.27-.35.28-.33.27-.32.28-.29.27-.26.28-.24.28-.21.27-.18.28-.15.27-.11.28-.08.27-.04.28-.01.28.03.27.07.28.1.27.14.28.18.27.2.28.25.27.27.28.3.28.33.27.35.28.38.27.4.28.41.27.43.28.44.27.45.28.46.28.46.27.46.28.46.27.46.28.46.27.44.28.44.28.43.27.41.28.4.27.39.28.37.27.35.28.34.27.32.28.3.28.28.27.27.28.25.27.23.28.22.27.2.28.19.27.17.28.16.28.15.27.13.28.12.27.11.28.1.27.09.28.08.28.08.27.07.28.06.27.05.28.05.27.05.28.04.27.04.28.03.28.03.27.03.28.02.27.02.28.02.27.02.28.02.27.01.28.02.28.01.27.01.28.01.27.01.28.01.27.01h.28l.28.01h.27l.28.01h.55l.27.01h1.38l.28-.01h.55l.27-.01h.28l.27-.01.28-.01h.28l.27-.01.28-.01.27-.01.28-.01.27-.01.28-.01.28-.02.27-.01.28-.01.27-.01.28-.02.27-.01.28-.01.27-.02.28-.01.28-.01.27-.02.28-.01.27-.01.28-.01.27-.01.28-.01.27-.01.28-.01.28-.01h.27l.28-.01h1.65l.28.01h.27l.28.01.27.01.28.01.27.01.28.01.28.01.27.01.28.01.27.02.28.01.27.01.28.02.27.01.28.01.28.02.27.01.28.01.27.02.28.01.27.01.28.01.28.01.27.01.28.01.27.01.28.01.27.01.28.01h.27l.28.01h.28l.27.01h.28l.27.01h.28l.27.01h.83l.28.01h1.37l.28.01h28.66l.28-.01h1.65l.28-.01h.82l.28-.01h.55l.28-.01h.55l.27-.01h.28l.27-.01.28-.01h.28l.27-.01h.28l.27-.01.28-.01h.27l.28-.01.27-.01h.28l.28-.01.27-.01.28-.01h.27l.28-.01h.27l.28-.01.28-.01h.55l.27-.01h.55l.28-.01h1.38l.27.01h.83l.27.01h.28l.28.01h.27l.28.01.27.01h.28l.27.01.28.01h.28l.27.01.28.01.27.01h.28l.27.01.28.01h.27l.28.01h.28l.27.01.28.01h.55l.27.01h.28l.27.01h.56l.27.01h.83l.27.01h1.66l.27.01h1.38-1.1l-.28.01h-1.93l-.27.01h-.83l-.27.01h-.56l-.27.01h-.28l-.27.01h-.28l-.27.01h-.28l-.27.01h-.28l-.28.01-.27.01h-.28l-.27.01-.28.01h-.27l-.28.01-.27.01h-.28l-.28.01-.27.01h-.28l-.27.01-.28.01h-.27l-.28.01h-.28l-.27.01h-.55l-.28.01h-1.93l-.27-.01h-.55l-.28-.01h-.27l-.28-.01h-.28l-.27-.01-.28-.01h-.27l-.28-.01-.27-.01h-.28l-.28-.01-.27-.01-.28-.01h-.27l-.28-.01-.27-.01h-.28l-.27-.01h-.28l-.28-.01h-.27l-.28-.01h-.27l-.28-.01h-.27l-.28-.01h-.55l-.28-.01h-.82l-.28-.01h-1.93l-.27-.01h-28.11l-.28.01h-1.65l-.28.01h-.83l-.27.01h-.28l-.27.01h-.28l-.27.01h-.28l-.28.01-.27.01h-.28l-.27.01-.28.01-.27.01-.28.01-.27.01-.28.01-.28.01-.27.01-.28.01-.27.02-.28.01-.27.01-.28.02-.28.01-.27.01-.28.02-.27.01-.28.01-.27.02-.28.01-.27.01-.28.01-.28.01-.27.01-.28.01-.27.01-.28.01h-.27l-.28.01h-1.65l-.28-.01h-.27l-.28-.01-.28-.01-.27-.01-.28-.01-.27-.01-.28-.01-.27-.01-.28-.01-.27-.01-.28-.02-.28-.01-.27-.01-.28-.02-.27-.01-.28-.02-.27-.01-.28-.01-.27-.01-.28-.02-.28-.01-.27-.01-.28-.01-.27-.01-.28-.01h-.27l-.28-.01-.28-.01h-.27l-.28-.01h-.27l-.28-.01h-.55l-.27-.01h-1.11l-.27.01h-.55l-.28.01h-.27l-.28.01h-.28l-.27.01-.28.01-.27.01-.28.01-.27.01-.28.01-.28.02-.27.01-.28.02-.27.02-.28.02-.27.02-.28.02-.27.03-.28.03-.28.04-.27.03-.28.04-.27.05-.28.05-.27.05-.28.06-.27.07-.28.08-.28.08-.27.09-.28.1-.27.11-.28.12-.27.14-.28.14-.28.16-.27.17-.28.19-.27.2-.28.22-.27.23-.28.25-.27.27-.28.28-.28.31-.27.32-.28.33-.27.36-.28.37-.27.38-.28.4-.27.42-.28.42-.28.44-.27.45-.28.45-.27.46-.28.46-.27.46-.28.46-.28.46-.27.45-.28.44-.27.43-.28.42-.27.39-.28.38-.27.35-.28.33-.28.3-.27.28-.28.24-.27.2-.28.18-.27.14-.28.1-.27.07-.28.03-.28-.01-.27-.04-.28-.08-.27-.11-.28-.15-.27-.18-.28-.21-.28-.24-.27-.26-.28-.29-.27-.32-.28-.33-.27-.35-.28-.36-.27-.38-.28-.39-.28-.4-.27-.4-.28-.4-.27-.41-.28-.41-.27-.4-.28-.4-.27-.39-.28-.39-.28-.38-.27-.37-.28-.36-.27-.35-.28-.33-.27-.33-.28-.31-.28-.3-.27-.29-.28-.27-.27-.26-.28-.25-.27-.24-.28-.22-.27-.22-.28-.2-.28-.19-.27-.18-.28-.17-.27-.16-.28-.15-.27-.14-.28-.13-.28-.13-.27-.12-.28-.11-.27-.1-.28-.1-.27-.09-.28-.09-.27-.08-.28-.08-.28-.07-.27-.07-.28-.06-.27-.06-.28-.06-.27-.05-.28-.05-.27-.05-.28-.04-.28-.04-.27-.04-.28-.04-.27-.03-.28-.04-.27-.03-.28-.03-.28-.03-.27-.03-.28-.02-.27-.03-.28-.02-.27-.02-.28-.02-.27-.02-.28-.02-.28-.02-.27-.02-.28-.01-.27-.02-.28-.01-.27-.01-.28-.02-.27-.01-.28-.01-.28-.01-.27-.01-.28-.01-.27-.01-.28-.01-.27-.01h-.28l-.28-.01-.27-.01h-.28l-.27-.01h-.28l-.27-.01h-.55l-.28-.01h-.83l-.27-.01h-1.93l-.28-.01h-.82zm-197.84-33.86.33-.01h.67l.33-.01h.33l.34-.01h.33l.33-.01h.33l.34-.01.33-.01.33-.01h.33l.34-.01.33-.02.33-.01.33-.01.34-.01.33-.02.33-.01.33-.02.34-.02.33-.02.33-.02.33-.02.34-.03.33-.02.33-.03.33-.03.34-.04.33-.03.33-.04.33-.04.34-.04.33-.05.33-.05.33-.05.33-.06.34-.05.33-.07.33-.06.33-.07.34-.08.33-.07.33-.09.33-.08.34-.09.33-.1.33-.1.33-.1.34-.12.33-.11.33-.12.33-.13.34-.13.33-.14.33-.14.33-.15.34-.16.33-.16.33-.16.33-.18.34-.18.33-.18.33-.19.33-.2.34-.2.33-.21.33-.21.33-.22.34-.23.33-.23.33-.23.33-.24.34-.24.33-.25.33-.25.33-.26.34-.26.33-.26.33-.27.33-.27.34-.27.33-.27.33-.27.33-.28.34-.27.33-.27.33-.28.33-.27.34-.27.33-.26.33-.27.33-.26.34-.26.33-.25.33-.25.33-.24.34-.24.33-.23.33-.22.33-.21.34-.21.33-.2.33-.19.33-.17.34-.17.33-.16.33-.15.33-.13.34-.13.33-.11.33-.1.33-.09.34-.07.33-.06.33-.05.33-.04.34-.02.33-.01.33.01.33.02.34.03.33.04.33.06.33.07.34.09.33.09.33.11.33.12.34.13.33.14.33.16.33.16.34.18.33.18.33.19.33.2.34.21.33.22.33.22.33.23.34.23.33.24.33.25.33.25.34.25.33.26.33.26.33.26.34.26.33.26.33.27.33.26.34.26.33.26.33.26.33.26.34.26.33.25.33.25.33.25.34.25.33.24.33.23.33.24.34.22.33.23.33.21.33.22.34.2.33.21.33.19.33.19.34.19.33.18.33.18.33.16.34.17.33.16.33.15.33.15.34.14.33.14.33.13.33.12.34.12.33.12.33.11.33.11.34.1.33.1.33.1.33.09.34.08.33.08.33.08.33.08.34.07.33.07.33.06.33.06.33.06.34.06.33.06.33.05.33.05.34.04.33.05.33.04.33.04.34.04.33.04.33.03.33.04.34.03.33.03.33.03.33.03.34.02.33.03.33.02.33.03.34.02.33.02.33.02.33.02.34.02.33.01.33.02.33.02.34.01.33.01.33.02.33.01.34.01.33.01.33.01.33.01.34.01.33.01.33.01.33.01.34.01h.33l.33.01h.33l.34.01h.33l.33.01h.67l.33.01h1l.33.01h2.33l.33-.01h1.99l.34-.01h.99l.34-.01h.99l.34-.01h.66l.33-.01h1l.33-.01h.67l.33-.01h.67l.33-.01h.66l.34-.01h.66l.33-.01h.67l.33-.01h.33l.34-.01h.33l.33-.01h.33l.34-.01h.33l.33-.01h.33l.34-.01.33-.01h.33l.33-.01.34-.01.33-.01h.33l.33-.01.34-.01.33-.01.33-.01.33-.01.34-.01.33-.01.33-.01.33-.01.34-.01.33-.01.33-.02.33-.01.34-.01.33-.01.33-.02.33-.01.34-.02.33-.01.33-.01.33-.02.34-.01.33-.02.33-.01.33-.02.34-.01.33-.02.33-.01.33-.02.34-.01.33-.02.33-.01.33-.02.34-.01.33-.02.33-.01.33-.02.34-.01.33-.02.33-.01.33-.01.34-.02.33-.01.33-.01.33-.01.34-.01.33-.02.33-.01.33-.01.33-.01.34-.01h.33l.33-.01.33-.01.34-.01h.33l.33-.01h.33l.34-.01h1.33l.33-.01.33.01h1.33l.33.01h.34l.33.01.33.01h.33l.34.01.33.01.33.01.33.01.34.01.33.01.33.02.33.01.34.01.33.02.33.01.33.01.34.02.33.02.33.01.33.02.34.02.33.01.33.02.33.02.34.02.33.02.33.01.33.02.34.02.33.02.33.02.33.02.34.02.33.02.33.02.33.01.34.02.33.02.33.02.33.02.34.02.33.01.33.02.33.02.34.01.33.02.33.02.33.01.34.02.33.01.33.02.33.01.34.01.33.02.33.01.33.01.34.02.33.01.33.01.33.01.34.01.33.01.33.01.33.01.34.01.33.01h.33l.33.01.34.01.33.01h.33l.33.01.34.01h.33l.33.01h.33l.34.01h.33l.33.01h.67l.33.01h.66l.34.01h.99l.34.01h1.33l.33.01h2.99l.33.01h2.33-.33l-.33.01h-3.99l-.34.01h-1.99l-.33.01h-1l-.33.01h-.67l-.33.01h-.67l-.33.01h-.33l-.33.01h-.34l-.33.01h-.33l-.33.01h-.34l-.33.01-.33.01h-.33l-.34.01-.33.01-.33.01h-.33l-.34.01-.33.01-.33.01-.33.01-.34.01-.33.01-.33.02-.33.01-.34.01-.33.01-.33.01-.33.02-.34.01-.33.02-.33.01-.33.02-.34.01-.33.02-.33.01-.33.02-.34.02-.33.01-.33.02-.33.02-.34.02-.33.01-.33.02-.33.02-.34.02-.33.02-.33.02-.33.02-.34.01-.33.02-.33.02-.33.02-.34.02-.33.02-.33.02-.33.02-.34.01-.33.02-.33.02-.33.02-.34.01-.33.02-.33.02-.33.01-.34.02-.33.01-.33.02-.33.01-.34.02-.33.01-.33.01-.33.01-.34.01-.33.01-.33.01-.33.01-.34.01-.33.01h-.33l-.33.01h-.34l-.33.01h-.66l-.34.01h-1.66l-.33-.01h-.67l-.33-.01h-.33l-.33-.01-.34-.01h-.33l-.33-.01-.33-.01-.34-.01-.33-.01-.33-.01-.33-.01-.33-.01-.34-.01-.33-.02-.33-.01-.33-.01-.34-.01-.33-.02-.33-.01-.33-.02-.34-.01-.33-.01-.33-.02-.33-.01-.34-.02-.33-.01-.33-.02-.33-.01-.34-.02-.33-.01-.33-.02-.33-.02-.34-.01-.33-.02-.33-.01-.33-.01-.34-.02-.33-.01-.33-.02-.33-.01-.34-.02-.33-.01-.33-.01-.33-.02-.34-.01-.33-.01-.33-.01-.33-.01-.34-.02-.33-.01-.33-.01-.33-.01-.34-.01-.33-.01-.33-.01-.33-.01h-.34l-.33-.01-.33-.01-.33-.01-.34-.01h-.33l-.33-.01-.33-.01h-.34l-.33-.01h-.33l-.33-.01-.34-.01h-.33l-.33-.01h-.67l-.33-.01h-.33l-.33-.01h-.67l-.33-.01h-.67l-.33-.01h-.66l-.34-.01h-.66l-.33-.01h-.67l-.33-.01h-1l-.33-.01h-.67l-.33-.01h-1l-.33-.01h-1.33l-.33-.01h-4.99l-.33.01h-1l-.33.01h-.33l-.34.01h-.33l-.33.01-.33.01h-.34l-.33.01-.33.01-.33.01-.34.01-.33.01-.33.01-.33.01-.34.01-.33.01-.33.02-.33.01-.34.02-.33.01-.33.02-.33.02-.34.02-.33.01-.33.02-.33.03-.34.02-.33.02-.33.03-.33.02-.34.03-.33.03-.33.02-.33.04-.34.03-.33.03-.33.04-.33.03-.34.04-.33.04-.33.05-.33.04-.34.05-.33.05-.33.05-.33.05-.34.06-.33.06-.33.06-.33.07-.33.06-.34.08-.33.07-.33.08-.33.08-.34.09-.33.09-.33.09-.33.1-.34.1-.33.11-.33.11-.33.12-.34.12-.33.13-.33.13-.33.13-.34.15-.33.14-.33.16-.33.15-.34.17-.33.17-.33.17-.33.18-.34.19-.33.19-.33.2-.33.2-.34.21-.33.21-.33.22-.33.22-.34.23-.33.23-.33.24-.33.24-.34.24-.33.25-.33.25-.33.25-.34.26-.33.26-.33.26-.33.26-.34.26-.33.27-.33.26-.33.26-.34.27-.33.26-.33.26-.33.25-.34.25-.33.25-.33.25-.33.24-.34.24-.33.22-.33.23-.33.21-.34.21-.33.2-.33.19-.33.19-.34.17-.33.17-.33.15-.33.14-.34.13-.33.12-.33.11-.33.1-.34.08-.33.07-.33.06-.33.04-.34.04-.33.01-.33.01-.33-.01-.34-.02-.33-.04-.33-.04-.33-.07-.34-.07-.33-.09-.33-.1-.33-.11-.34-.12-.33-.14-.33-.15-.33-.15-.34-.17-.33-.18-.33-.19-.33-.2-.34-.2-.33-.22-.33-.22-.33-.23-.34-.24-.33-.24-.33-.25-.33-.25-.34-.26-.33-.26-.33-.26-.33-.27-.34-.27-.33-.27-.33-.27-.33-.28-.34-.27-.33-.28-.33-.27-.33-.27-.34-.27-.33-.27-.33-.26-.33-.27-.34-.26-.33-.25-.33-.25-.33-.25-.34-.25-.33-.24-.33-.23-.33-.23-.34-.23-.33-.21-.33-.22-.33-.21-.34-.2-.33-.2-.33-.19-.33-.18-.34-.18-.33-.17-.33-.17-.33-.16-.34-.16-.33-.14-.33-.15-.33-.14-.34-.13-.33-.12-.33-.13-.33-.11-.34-.11-.33-.11-.33-.1-.33-.09-.34-.1-.33-.08-.33-.08-.33-.08-.34-.08-.33-.07-.33-.06-.33-.06-.34-.06-.33-.06-.33-.05-.33-.05-.33-.04-.34-.05-.33-.04-.33-.04-.33-.03-.34-.03-.33-.03-.33-.03-.33-.03-.34-.02-.33-.03-.33-.02-.33-.02-.34-.02-.33-.01-.33-.02-.33-.01-.34-.02-.33-.01-.33-.01-.33-.01-.34-.01-.33-.01-.33-.01-.33-.01h-.34l-.33-.01-.33-.01h-.33l-.34-.01h-.66l-.33-.01h-.67zm24.44-33.82.29-.01h.87l.29-.01h.3l.29-.01h.29l.29-.01h.29l.29-.01.29-.01.29-.02.29-.01.29-.02.29-.01.29-.03.29-.02.29-.03.29-.03.3-.04.29-.04.29-.04.29-.05.29-.06.29-.07.29-.07.29-.08.29-.08.29-.1.29-.11.29-.12.29-.13.29-.14.3-.15.29-.17.29-.18.29-.19.29-.21.29-.23.29-.24.29-.26.29-.27.29-.3.29-.3.29-.33.29-.34.29-.36.29-.38.3-.39.29-.4.29-.42.29-.43.29-.44.29-.45.29-.46.29-.47.29-.47.29-.47.29-.47.29-.46.29-.46.29-.45.3-.44.29-.43.29-.4.29-.38.29-.36.29-.34.29-.3.29-.27.29-.23.29-.19.29-.16.29-.12.29-.07.29-.03.29.02.3.06.29.11.29.15.29.19.29.23.29.27.29.32.29.34.29.38.29.41.29.43.29.46.29.47.29.49.3.51.29.51.29.52.29.52.29.52.29.51.29.5.29.5.29.48.29.47.29.45.29.43.29.41.29.39.29.37.3.35.29.33.29.3.29.28.29.26.29.24.29.22.29.2.29.19.29.16.29.15.29.13.29.12.29.1.3.09.29.08.29.07.29.06.29.05.29.04.29.04.29.03.29.03.29.02.29.02.29.01.29.01.29.01.29.01.3.01h.58l.29.01h.87l.29.01h1.16l.29.01h.29l.3.01h.29l.29.01h.29l.29.01h.29l.29.01h.29l.29.01.29.01h.29l.29.01.29.01h.29l.29.01.3.01h.29l.29.01h.29l.29.01h.29l.29.01h.29l.29.01h.58l.29.01h.88l.29.01h1.45l.29.01h25.29-23.55l-.29.01h-2.61l-.29.01h-.88l-.29.01h-.58l-.29.01h-.58l-.29.01h-.29l-.29.01h-.29l-.29.01h-.29l-.29.01-.3.01h-.29l-.29.01h-.29l-.29.01-.29.01h-.29l-.29.01-.29.01h-.29l-.29.01h-.29l-.29.01h-.29l-.29.01h-.3l-.29.01h-.58l-.29.01h-1.16l-.29.01h-.87l-.29.01h-.3l-.29.01-.29.01-.29.01-.29.02-.29.01-.29.03-.29.02-.29.03-.29.04-.29.04-.29.06-.29.06-.29.07-.29.08-.3.09-.29.1-.29.12-.29.13-.29.15-.29.16-.29.18-.29.2-.29.22-.29.24-.29.26-.29.28-.29.31-.29.32-.3.35-.29.37-.29.4-.29.41-.29.43-.29.45-.29.47-.29.48-.29.49-.29.51-.29.51-.29.52-.29.52-.29.51-.29.52-.3.5-.29.49-.29.48-.29.45-.29.44-.29.41-.29.37-.29.35-.29.31-.29.27-.29.24-.29.19-.29.15-.29.1-.3.06-.29.02-.29-.03-.29-.07-.29-.11-.29-.16-.29-.2-.29-.23-.29-.27-.29-.3-.29-.33-.29-.36-.29-.38-.29-.41-.29-.42-.3-.44-.29-.45-.29-.46-.29-.47-.29-.47-.29-.47-.29-.47-.29-.46-.29-.46-.29-.45-.29-.45-.29-.43-.29-.42-.29-.4-.3-.39-.29-.37-.29-.36-.29-.34-.29-.33-.29-.31-.29-.29-.29-.27-.29-.26-.29-.24-.29-.23-.29-.21-.29-.2-.29-.18-.29-.16-.3-.16-.29-.14-.29-.13-.29-.12-.29-.1-.29-.1-.29-.09-.29-.08-.29-.07-.29-.06-.29-.06-.29-.05-.29-.05-.29-.04-.3-.04-.29-.03-.29-.02-.29-.03-.29-.02-.29-.02-.29-.01-.29-.02-.29-.01-.29-.01-.29-.01-.29-.01h-.29l-.29-.01h-.29l-.3-.01h-.58l-.29-.01h-.58zm79.65 0h13.37-13.37zm13.37 0h25.58l.29-.01h1.46l.29-.01h.87l.29-.01h.29l.29-.01h.58l.29-.01h.29l.29-.01.3-.01h.29l.29-.01h.29l.29-.01.29-.01h.29l.29-.01.29-.01h.29l.29-.01h.29l.29-.01.29-.01h.29l.3-.01h.58l.29-.01h2.61l.29.01h.59l.29.01h.29l.29.01h.29l.29.01.29.01h.29l.29.01h.29l.29.01.29.01h.29l.29.01.3.01h.29l.29.01h.29l.29.01h.29l.29.01h.29l.29.01h.58l.29.01h.88l.29.01h1.16l.29.01h2.32-.29l-.29.01h-2.61l-.29.01h-.88l-.29.01h-.87l-.29.01h-.29l-.29.01h-.29l-.29.01h-.29l-.29.01h-.29l-.29.01h-.3l-.29.01-.29.01h-.29l-.29.01-.29.01h-.29l-.29.01-.29.01h-.29l-.29.01h-.29l-.29.01h-.29l-.29.01h-.59l-.29.01h-1.74l-.29-.01h-.58l-.29-.01h-.59l-.29-.01h-.29l-.29-.01-.29-.01h-.29l-.29-.01-.29-.01h-.29l-.29-.01-.29-.01h-.29l-.29-.01h-.29l-.29-.01-.3-.01h-.29l-.29-.01h-.58l-.29-.01h-.29l-.29-.01h-.58l-.29-.01h-1.17l-.29-.01h-2.61l-.29-.01h-23.26zm-53.65-33.86.48-.01h.48l.48-.01.48-.01.48-.01.48-.01.48-.01.48-.02.48-.01.48-.03.48-.02.48-.03.48-.03.48-.03.48-.04.48-.05.47-.05.48-.06.48-.07.48-.07.48-.08.48-.09.48-.1.48-.11.48-.13.48-.13.48-.15.48-.16.48-.17.48-.19.48-.2.48-.22.48-.24.48-.25.48-.27.48-.28.48-.31.48-.32.48-.33.48-.35.48-.37.48-.39.48-.4.48-.41.48-.42.48-.44.48-.44.48-.46.48-.46.48-.46.47-.47.48-.46.48-.47.48-.46.48-.45.48-.43.48-.43.48-.41.48-.39.48-.37.48-.34.48-.32.48-.29.48-.25.48-.22.48-.19.48-.15.48-.11.48-.07.48-.02.48.01.48.05.48.09.48.14.48.17.48.21.48.25.48.28.48.31.48.34.48.37.48.39.48.41.47.43.48.45.48.45.48.47.48.47.48.47.48.47.48.46.48.47.48.45.48.44.48.43.48.42.48.4.48.39.48.36.48.35.48.33.48.32.48.29.48.28.48.25.48.24.48.23.48.2.48.19.48.18.48.16.48.15.48.14.48.12.48.11.48.11.47.1.48.08.48.09.48.07.48.07.48.07.48.05.48.06.48.05.48.05.48.05.48.04.48.04.48.04.48.04.48.04.48.03.48.03.48.04.48.03.48.03.48.02.48.03.48.03.48.02.48.02.48.03.48.02.48.02.48.02.48.02.48.01.48.02.48.01.47.02.48.01.48.01.48.01.48.01.48.01.48.01.48.01.48.01h.48l.48.01h.48l.48.01h.48l.48.01h.96l.48.01h1.92l.48.01h42.21-37.41l-.48.01h-5.28l-.48.01h-1.44l-.48.01h-.96l-.48.01h-.48l-.48.01h-.48l-.48.01-.48.01-.48.01h-.48l-.48.01-.48.01-.48.01-.48.02-.48.01-.47.01-.48.02-.48.01-.48.02-.48.02-.48.02-.48.02-.48.02-.48.02-.48.03-.48.02-.48.03-.48.02-.48.03-.48.03-.48.03-.48.03-.48.04-.48.03-.48.04-.48.03-.48.04-.48.05-.48.04-.48.05-.48.04-.48.06-.48.05-.48.06-.48.07-.48.07-.48.07-.48.08-.48.09-.47.1-.48.1-.48.12-.48.12-.48.14-.48.15-.48.16-.48.17-.48.19-.48.21-.48.22-.48.24-.48.26-.48.28-.48.29-.48.31-.48.33-.48.35-.48.37-.48.39-.48.4-.48.41-.48.44-.48.44-.48.45-.48.46-.48.47-.48.47-.48.47-.48.47-.48.46-.48.46-.48.45-.47.43-.48.41-.48.39-.48.37-.48.34-.48.31-.48.28-.48.25-.48.21-.48.17-.48.13-.48.1-.48.05-.48.01-.48-.03-.48-.07-.48-.11-.48-.14-.48-.19-.48-.22-.48-.26-.48-.28-.48-.32-.48-.34-.48-.37-.48-.39-.48-.41-.48-.43-.48-.44-.48-.45-.48-.46-.48-.46-.48-.46-.47-.47-.48-.46-.48-.46-.48-.46-.48-.44-.48-.44-.48-.42-.48-.42-.48-.4-.48-.38-.48-.37-.48-.35-.48-.34-.48-.32-.48-.3-.48-.28-.48-.27-.48-.25-.48-.24-.48-.22-.48-.2-.48-.19-.48-.18-.48-.16-.48-.14-.48-.14-.48-.12-.48-.11-.48-.1-.48-.09-.48-.08-.48-.08-.48-.06-.48-.06-.47-.05-.48-.05-.48-.04-.48-.04-.48-.03-.48-.02-.48-.03-.48-.02-.48-.02-.48-.01-.48-.02-.48-.01-.48-.01h-.48l-.48-.01-.48-.01h-.48zm125.2.02h25.91-25.91zm25.91 0h43.65l.48-.01h2.4l.48-.01h.96l.48-.01h.95l.48-.01h.48l.48-.01h.48l.48-.01h.48l.48-.01h.48l.48-.01h.48l.48-.01.48-.01h.48l.48-.01.48-.01h.48l.48-.01.48-.01h.48l.48-.01h.48l.48-.01h.48l.48-.01h.96l.48-.01h3.35l.48.01h.96l.48.01h.48l.48.01h.48l.48.01h.48l.48.01.48.01h.48l.48.01.48.01h.48l.48.01.48.01h.48l.48.01h.48l.48.01.48.01h.48l.48.01h.96l.48.01h.48l.48.01h1.44l.47.01h2.4l.48.01h3.84v.01h-4.8l-.48.01h-1.91l-.48.01h-.96l-.48.01h-.96l-.48.01h-.48l-.48.01h-.48l-.48.01h-.48l-.48.01h-.48l-.48.01-.48.01h-.48l-.48.01-.48.01h-.48l-.48.01-.48.01h-.48l-.48.01h-.48l-.48.01h-.48l-.48.01h-.48l-.48.01h-1.43l-.48.01H828l-.48-.01h-1.44l-.48-.01h-.96l-.48-.01-.48-.01h-.48l-.48-.01h-.48l-.48-.01-.48-.01h-.48l-.48-.01-.48-.01h-.48l-.48-.01h-.48l-.48-.01-.48-.01h-.48l-.48-.01H816l-.48-.01h-.48l-.48-.01h-.95l-.48-.01h-.96l-.48-.01h-1.92l-.48-.01h-5.28l-.48-.01h-38.37zm-191.06-33.85.31-.01h.63l.31-.01h.32l.31-.01h.31l.32-.01.31-.01.32-.01.31-.01.32-.01.31-.02.31-.01.32-.02.31-.02.32-.02.31-.02.32-.03.31-.03.31-.03.32-.04.31-.04.32-.04.31-.05.32-.05.31-.06.31-.07.32-.06.31-.08.32-.08.31-.09.32-.1.31-.1.31-.11.32-.12.31-.13.32-.14.31-.14.32-.16.31-.17.31-.18.32-.19.31-.19.32-.21.31-.23.31-.23.32-.24.31-.26.32-.26.31-.28.32-.29.31-.3.31-.31.32-.32.31-.33.32-.33.31-.35.32-.35.31-.36.31-.36.32-.37.31-.38.32-.37.31-.38.32-.38.31-.37.31-.38.32-.37.31-.36.32-.36.31-.35.32-.34.31-.33.31-.32.32-.3.31-.29.32-.28.31-.25.32-.24.31-.21.31-.2.32-.17.31-.15.32-.13.31-.1.31-.08.32-.05.31-.02h.32l.31.02.32.06.31.07.31.11.32.12.31.16.32.17.31.2.32.22.31.24.31.26.32.28.31.29.32.31.31.33.32.34.31.35.31.36.32.36.31.38.32.38.31.38.32.39.31.39.31.38.32.39.31.38.32.38.31.37.32.37.31.36.31.35.32.34.31.34.32.32.31.31.31.31.32.29.31.27.32.27.31.25.32.25.31.23.31.22.32.2.31.2.32.18.31.17.32.16.31.15.31.15.32.13.31.12.32.11.31.1.32.1.31.09.31.08.32.07.31.07.32.06.31.06.32.05.31.05.31.04.32.04.31.03.32.03.31.03.32.02.31.02.31.02.32.02.31.02.32.01.31.01.31.01.32.01.31.01.32.01h.31l.32.01h.62l.32.01h4.08l.32-.01h.94l.32-.01h.62l.32-.01h.63l.31-.01h.63l.31-.01h.32l.31-.01h.32l.31-.01h.31l.32-.01h.31l.32-.01h.31l.32-.01h.62l.32-.01h.31l.32-.01h.31l.32-.01h.62l.32-.01h.94l.32-.01h4.4l.31.01h1.26l.31.01h.94l.32.01h1.25l.32.01h4.4l.31-.01h1.26l.31-.01h.95l.31-.01h1.26l.31-.01h4.09l.31.01h.94l.32.01h.63l.31.01h.32l.31.01h.63l.31.01h.32l.31.01h.32l.31.01h.31l.32.01h.31l.32.01h.63l.31.01h.31l.32.01h.31l.32.01h.62l.32.01h.63l.31.01h1.26l.31.01h1.89l.31.01h2.2l.32-.01h1.88l.32-.01h.94l.31-.01h.63l.32-.01h.62l.32-.01h.31l.32-.01h.31l.32-.01h.31l.31-.01h.32l.31-.01h.32l.31-.01h.32l.31-.01h.31l.32-.01.31-.01h.32l.31-.01h.32l.31-.01.31-.01h.32l.31-.01h.32l.31-.01h.32l.31-.01h.31l.32-.01h.31l.32-.01h.31l.32-.01h.31l.31-.01h.63l.32-.01h.94l.31-.01h4.72l.31.01h.94l.32.01h.63l.31.01h.32l.31.01h.31l.32.01h.31l.32.01h.31l.32.01h.31l.31.01h.32l.31.01h.32l.31.01.31.01h.32l.31.01h.32l.31.01.32.01h.31l.31.01h.32l.31.01h.32l.31.01h.32l.31.01.31.01h.63l.32.01h.31l.32.01h.31l.31.01h.63l.32.01h.94l.31.01h.95l.31.01h1.89l.31.01h4.09v.01h-4.09l-.31.01h-1.89l-.31.01h-.95l-.31.01h-.94l-.32.01h-.63l-.31.01h-.31l-.32.01h-.63l-.31.01h-.32l-.31.01h-.31l-.32.01h-.31l-.32.01-.31.01h-.32l-.31.01h-.31l-.32.01h-.31l-.32.01-.31.01h-.32l-.31.01h-.31l-.32.01-.31.01h-.32l-.31.01h-.31l-.32.01h-.31l-.32.01h-.31l-.32.01H710l-.31.01h-.63l-.32.01h-.63l-.31.01h-.94l-.32.01h-4.08l-.32-.01h-.94l-.31-.01h-.63l-.32-.01h-.62l-.32-.01h-.31l-.32-.01h-.31l-.32-.01h-.31l-.31-.01h-.32l-.31-.01h-.32l-.31-.01-.32-.01h-.31l-.31-.01h-.32l-.31-.01h-.32l-.31-.01-.32-.01h-.31l-.31-.01h-.32l-.31-.01-.32-.01h-.31l-.32-.01h-.31l-.31-.01h-.32l-.31-.01h-.63l-.32-.01h-.31l-.31-.01h-.63l-.32-.01h-.94l-.31-.01h-1.89l-.31-.01h-3.15l-.31.01h-1.57l-.32.01h-.94l-.31.01h-.63l-.32.01h-.62l-.32.01h-.31l-.32.01h-.62l-.32.01h-.31l-.32.01h-.31l-.32.01h-.31l-.31.01h-.32l-.31.01h-.32l-.31.01h-.63l-.31.01h-.32l-.31.01h-.63l-.32.01h-.94l-.31.01h-4.09l-.31-.01h-1.26l-.31-.01h-.95l-.31-.01h-1.26l-.31-.01h-4.72l-.31.01h-1.26l-.31.01h-.94l-.32.01h-1.25l-.32.01h-3.77l-.31-.01h-.95l-.31-.01h-.63l-.31-.01h-.63l-.32-.01h-.31l-.32-.01h-.31l-.31-.01h-.32l-.31-.01h-.63l-.32-.01h-.31l-.31-.01h-.32l-.31-.01h-.32l-.31-.01h-.63l-.31-.01h-.32l-.31-.01h-.94l-.32-.01h-.94l-.32-.01h-4.08l-.32.01h-.62l-.32.01h-.31l-.32.01-.31.01-.32.01-.31.01-.31.01-.32.01-.31.02-.32.01-.31.02-.31.03-.32.02-.31.03-.32.03-.31.03-.32.04-.31.04-.31.05-.32.05-.31.06-.32.06-.31.07-.32.07-.31.08-.31.09-.32.09-.31.11-.32.11-.31.12-.32.13-.31.14-.31.16-.32.16-.31.17-.32.18-.31.2-.32.2-.31.22-.31.23-.32.24-.31.26-.32.27-.31.27-.32.29-.31.31-.31.31-.32.32-.31.33-.32.35-.31.35-.31.36-.32.37-.31.37-.32.38-.31.38-.32.38-.31.39-.31.39-.32.39-.31.38-.32.38-.31.37-.32.37-.31.36-.31.35-.32.34-.31.32-.32.32-.31.29-.32.28-.31.26-.31.24-.32.22-.31.2-.32.17-.31.16-.32.12-.31.11-.31.07-.32.06-.31.02h-.32l-.31-.02-.32-.05-.31-.08-.31-.1-.32-.13-.31-.15-.32-.17-.31-.2-.31-.21-.32-.24-.31-.25-.32-.28-.31-.29-.32-.3-.31-.32-.31-.33-.32-.34-.31-.35-.32-.36-.31-.36-.32-.37-.31-.38-.31-.37-.32-.38-.31-.38-.32-.37-.31-.38-.32-.37-.31-.36-.31-.36-.32-.35-.31-.35-.32-.34-.31-.32-.32-.32-.31-.31-.31-.3-.32-.29-.31-.28-.32-.26-.31-.26-.32-.24-.31-.23-.31-.23-.32-.21-.31-.2-.32-.18-.31-.18-.31-.17-.32-.16-.31-.14-.32-.14-.31-.13-.32-.12-.31-.11-.31-.11-.32-.09-.31-.09-.32-.08-.31-.08-.32-.07-.31-.06-.31-.06-.32-.05-.31-.05-.32-.04-.31-.04-.32-.04-.31-.03-.31-.03-.32-.03-.31-.02-.32-.02-.31-.02-.32-.02-.31-.01-.31-.02-.32-.01-.31-.01-.32-.01-.31-.01-.32-.01h-.31l-.31-.01h-.32l-.31-.01h-.63l-.31-.01zM613 206.25l1.29-.01 1.29-.01 1.28-.01 1.29-.02 1.28-.01 1.29-.02 1.29-.03 1.28-.02 1.29-.04 1.28-.03 1.29-.05 1.29-.05 1.28-.05 1.29-.07 1.29-.07 1.28-.08 1.29-.1 1.28-.1 1.29-.12 1.29-.14 1.28-.15 1.29-.16 1.29-.18 1.28-.2 1.29-.22 1.28-.24 1.29-.26 1.29-.28 1.28-.31 1.29-.32 1.29-.35 1.28-.37 1.29-.4 1.28-.41 1.29-.43 1.29-.46 1.28-.47 1.29-.48 1.28-.5 1.29-.51 1.29-.52 1.28-.53 1.29-.53 1.29-.52 1.28-.53 1.29-.51 1.28-.5 1.29-.49 1.29-.47 1.28-.44 1.29-.42 1.29-.38 1.28-.35 1.29-.32 1.28-.27 1.29-.23 1.29-.18 1.28-.14 1.29-.09 1.29-.04 1.28.01 1.29.05 1.28.11 1.29.15 1.29.2 1.28.24 1.29.28 1.28.32 1.29.36 1.29.39 1.28.42 1.29.44 1.29.46 1.28.49 1.29.49 1.28.51 1.29.51 1.29.52 1.28.52 1.29.51 1.29.5 1.28.5 1.29.49 1.28.47 1.29.45 1.29.44 1.28.42 1.29.4 1.29.38 1.28.36 1.29.34 1.28.31 1.29.3 1.29.27 1.28.26 1.29.23 1.28.21 1.29.2 1.29.18 1.28.16 1.29.14 1.29.13 1.28.12 1.29.1 1.28.09 1.29.08 1.29.07 1.28.06 1.29.06 1.29.04 1.28.04 1.29.03 1.28.02 1.29.03 1.29.01 1.28.01 1.29.01 1.29.01h1.28l1.29.01h3.86l1.28-.01h6.43l1.29-.01h2.57l1.29.01h2.57l1.29.01h1.28l1.29.01h1.29l1.28.01 1.29.01 1.28.01 1.29.01 1.29.01 1.28.01 1.29.01 1.29.01 1.28.01 1.29.01 1.28.01 1.29.01 1.29.02 1.28.01 1.29.01 1.28.01 1.29.01 1.29.01 1.28.01 1.29.01 1.29.01h1.28l1.29.01 1.28.01 1.29.01h1.29l1.28.01h1.29l1.29.01h1.28l1.29.01h2.57l1.29.01h5.14l1.29.01h20.58l1.28.01h92.61-113.19l-1.28.01h-5.15l-1.28.01h-2.58l-1.28.01h-2.57l-1.29.01h-1.29l-1.28.01-1.29.01h-1.29l-1.28.01-1.29.01-1.28.01h-1.29l-1.29.01-1.28.01-1.29.01-1.29.01-1.28.01-1.29.01-1.28.02-1.29.01-1.29.01-1.28.01-1.29.01-1.28.01-1.29.01-1.29.01-1.28.01-1.29.01-1.29.01-1.28.01-1.29.01-1.28.01h-1.29l-1.29.01-1.28.01h-3.86l-1.29.01h-3.86l-1.28-.01h-5.15l-1.28-.01h-3.86l-1.29.01h-1.28l-1.29.01-1.29.01-1.28.01-1.29.02-1.29.02-1.28.02-1.29.03-1.28.04-1.29.04-1.29.06-1.28.06-1.29.07-1.29.08-1.28.09-1.29.1-1.28.12-1.29.13-1.29.14-1.28.16-1.29.18-1.29.2-1.28.21-1.29.23-1.28.26-1.29.27-1.29.3-1.28.31-1.29.34-1.28.36-1.29.38-1.29.4-1.28.42-1.29.44-1.29.45-1.28.47-1.29.49-1.28.5-1.29.5-1.29.52-1.28.51-1.29.52-1.29.51-1.28.51-1.29.49-1.28.49-1.29.46-1.29.45-1.28.41-1.29.39-1.29.36-1.28.32-1.29.28-1.28.24-1.29.2-1.29.15-1.28.11-1.29.06h-1.28l-1.29-.04-1.29-.09-1.28-.14-1.29-.18-1.29-.23-1.28-.27-1.29-.32-1.28-.35-1.29-.38-1.29-.42-1.28-.44-1.29-.47-1.29-.49-1.28-.5-1.29-.51-1.28-.53-1.29-.52-1.29-.53-1.28-.53-1.29-.52-1.29-.51-1.28-.5-1.29-.48-1.28-.47-1.29-.46-1.29-.43-1.28-.41-1.29-.4-1.28-.37-1.29-.34-1.29-.33-1.28-.3-1.29-.29-1.29-.26-1.28-.24-1.29-.22-1.28-.2-1.29-.18-1.29-.16-1.28-.15-1.29-.14-1.29-.11-1.28-.11-1.29-.1-1.28-.08-1.29-.07-1.29-.07-1.28-.05-1.29-.05-1.29-.05-1.28-.03-1.29-.03-1.28-.03-1.29-.02-1.29-.02-1.28-.02-1.29-.02-1.28-.01-1.29-.01-1.29-.01zm343.42.04h63.02-63.02zm63.02 0h95.18l1.29-.01h21.87l1.28-.01h5.15l1.28-.01h3.86l1.29-.01h1.28l1.29-.01h2.57l1.29-.01h1.28l1.29-.01h1.29l1.28-.01 1.29-.01h1.29l1.28-.01h1.29l1.28-.01h1.29l1.29-.01 1.28-.01h1.29l1.29-.01h1.28l1.29-.01h2.57l1.29-.01h2.57l1.28-.01h7.72l1.29.01h3.86l1.28.01h1.29l1.29.01h1.28l1.29.01h1.28l1.29.01h1.29l1.28.01 1.29.01h1.29l1.28.01h1.29l1.28.01h1.29l1.29.01h1.28l1.29.01h1.28l1.29.01h1.29l1.28.01h2.58l1.28.01h2.57l1.29.01h5.15l1.28.01h14.15v.01h-12.86l-1.29.01h-5.14l-1.29.01h-3.86l-1.28.01h-2.58l-1.28.01h-1.29l-1.29.01h-1.28l-1.29.01h-1.28l-1.29.01h-1.29l-1.28.01h-1.29l-1.28.01-1.29.01h-1.29l-1.28.01h-1.29l-1.29.01h-1.28l-1.29.01h-1.28l-1.29.01h-1.29l-1.28.01h-3.86l-1.29.01h-7.72l-1.28-.01h-3.86l-1.29-.01h-1.28l-1.29-.01h-1.28l-1.29-.01h-1.29l-1.28-.01h-1.29l-1.29-.01-1.28-.01h-1.29l-1.28-.01h-1.29l-1.29-.01h-1.28l-1.29-.01h-1.29l-1.28-.01h-1.29l-1.28-.01h-1.29l-1.29-.01h-2.57l-1.29-.01h-2.57l-1.28-.01h-6.43l-1.29-.01h-115.76zm-429.35-33.86h.22l.05-.01h.13l.05-.01h.09l.04-.01h.04l.05-.01h.04l.05-.01h.04l.05-.01h.04l.05-.01.04-.01h.04l.05-.01.04-.01.05-.01.04-.01.05-.01.04-.01.05-.01.04-.02.05-.01.04-.01.04-.02.05-.01.04-.02.05-.02.04-.02.05-.02.04-.02.05-.02.04-.02.04-.02.05-.03.04-.02.05-.03.04-.03.05-.03.04-.03.05-.03.04-.03.04-.03.05-.04.04-.04.05-.03.04-.04.05-.04.04-.04.05-.05.04-.04.05-.04.04-.05.04-.05.05-.05.04-.05.05-.05.04-.05.05-.05.04-.06.05-.05.04-.06.04-.06.05-.06.04-.05.05-.06.04-.06.05-.07.04-.06.05-.06.04-.06.04-.07.05-.06.04-.07.05-.06.04-.07.05-.06.04-.07.05-.06.04-.07.05-.06.04-.07.04-.06.05-.07.04-.06.05-.07.04-.06.05-.07.04-.06.05-.06.04-.06.04-.07.05-.06.04-.06.05-.06.04-.06.05-.05.04-.06.05-.06.04-.06.04-.05.05-.06.04-.05.05-.05.04-.06.05-.05.04-.05.05-.05.04-.05.05-.05.04-.05.04-.04.05-.05.04-.05.05-.04.04-.05.05-.05.04-.04.05-.04.04-.05.04-.04.05-.04.04-.05.05-.04.04-.04.05-.05.04-.04.05-.04.04-.04.04-.05.05-.04.04-.04.05-.04.04-.05.05-.04.04-.04.05-.05.04-.04.05-.05.04-.04.04-.05.05-.04.04-.05.05-.05.04-.04.05-.05.04-.05.05-.04.04-.05.04-.05.05-.05.04-.05.05-.05.04-.05.05-.05.04-.05.05-.05.04-.05.04-.05.05-.06.04-.05.05-.05.04-.05.05-.05.04-.05.05-.06.04-.05.05-.05.04-.05.04-.05.05-.05.04-.05.05-.05.04-.05.05-.05.04-.05.05-.04.04-.05.04-.05.05-.04.04-.05.05-.04.04-.05.05-.04.04-.04.05-.04.04-.05.04-.04.05-.03.04-.04.05-.04.04-.04.05-.03.04-.04.05-.03.04-.04.05-.03.04-.03.04-.03.05-.03.04-.03.05-.03.04-.03.05-.03.04-.03.05-.03.04-.03.04-.02.05-.03.04-.03.05-.02.04-.03.05-.03.04-.02.05-.03.04-.03.04-.03.05-.02.04-.03.05-.03.04-.03.05-.03.04-.03.05-.03.04-.03.05-.03.04-.04.04-.03.05-.04.04-.03.05-.04.04-.04.05-.04.04-.04.05-.05.04-.04.04-.05.05-.04.04-.05.05-.06.04-.05.05-.06.04-.05.05-.06.04-.06.04-.07.05-.06.04-.07.05-.07.04-.07.05-.08.04-.08.05-.07.04-.09.05-.08.04-.09.04-.09.05-.09.04-.09.05-.1.04-.09.05-.1.04-.1.05-.11.04-.1.04-.11.05-.11.04-.11.05-.11.04-.11.05-.12.04-.11.05-.12.04-.12.04-.11.05-.12.04-.12.05-.11.04-.12.05-.11.04-.12.05-.11.04-.11.05-.11.04-.1.04-.11.05-.1.04-.09.05-.1.04-.09.05-.08.04-.08.05-.08.04-.07.04-.07.05-.06.04-.05.05-.05.04-.04.05-.04.04-.03.05-.02.04-.01.04-.01h.05l.04.01.05.02.04.02.05.03.04.05.05.05.04.05.05.07.04.08.04.08.05.09.04.1.05.11.04.11.05.13.04.13.05.14.04.14.04.16.05.16.04.16.05.18.04.18.05.18.04.19.05.2.04.2.04.2.05.21.04.21.05.22.04.22.05.22.04.22.05.23.04.23.05.23.04.23.04.23.05.23.04.23.05.23.04.23.05.23.04.22.05.23.04.22.04.22.05.22.04.22.05.21.04.21.05.21.04.21.05.2.04.19.04.2.05.18.04.19.05.18.04.18.05.17.04.17.05.16.04.16.05.15.04.15.04.15.05.14.04.14.05.13.04.13.05.13.04.12.05.12.04.11.04.11.05.1.04.1.05.1.04.1.05.09.04.08.05.09.04.08.04.08.05.07.04.08.05.06.04.07.05.07.04.06.05.06.04.05.05.06.04.05.04.05.05.05.04.05.05.04.04.05.05.04.04.04.05.04.04.03.04.04.05.03.04.04.05.03.04.03.05.03.04.03.05.02.04.03.04.02.05.03.04.02.05.02.04.03.05.02.04.02.05.02.04.01.05.02.04.02.04.02.05.01.04.02.05.01.04.01.05.02.04.01.05.01.04.01.04.01.05.02.04.01h.05l.04.01.05.01.04.01.05.01.04.01h.04l.05.01.04.01h.05l.04.01.05.01h.04l.05.01h.09l.04.01h.04l.05.01h.09l.04.01h.14l.04.01h.18l.04.01h.27l.04.01h.45v.01h-.31l-.05.01h-.35l-.05.01h-.18l-.04.01h-.13l-.05.01h-.09l-.04.01h-.09l-.04.01h-.05l-.04.01h-.05l-.04.01h-.05l-.04.01-.05.01h-.04l-.05.01-.04.01h-.04l-.05.01-.04.01-.05.01-.04.01-.05.01-.04.01-.05.01-.04.01-.04.01-.05.01-.04.02-.05.01-.04.01-.05.02-.04.01-.05.02-.04.01-.04.02-.05.02-.04.02-.05.02-.04.02-.05.02-.04.02-.05.02-.04.02-.05.03-.04.02-.04.03-.05.03-.04.02-.05.03-.04.03-.05.04-.04.03-.05.03-.04.04-.04.04-.05.03-.04.04-.05.05-.04.04-.05.04-.04.05-.05.05-.04.05-.04.05-.05.06-.04.06-.05.06-.04.06-.05.06-.04.07-.05.07-.04.07-.05.07-.04.08-.04.08-.05.09-.04.09-.05.09-.04.09-.05.1-.04.1-.05.11-.04.1-.04.12-.05.11-.04.12-.05.13-.04.13-.05.13-.04.14-.05.14-.04.15-.04.15-.05.15-.04.16-.05.17-.04.16-.05.18-.04.17-.05.18-.04.19-.05.19-.04.19-.04.2-.05.2-.04.2-.05.21-.04.21-.05.21-.04.22-.05.22-.04.22-.04.22-.05.23-.04.23-.05.22-.04.23-.05.23-.04.23-.05.24-.04.23-.04.23-.05.22-.04.23-.05.23-.04.22-.05.22-.04.22-.05.22-.04.21-.05.21-.04.21-.04.2-.05.19-.04.19-.05.19-.04.18-.05.17-.04.17-.05.16-.04.15-.04.15-.05.13-.04.14-.05.12-.04.12-.05.1-.04.1-.05.09-.04.09-.04.07-.05.07-.04.06-.05.05-.04.04-.05.03-.04.03-.05.01-.04.01h-.09l-.04-.02-.05-.02-.04-.03-.05-.03-.04-.04-.05-.05-.04-.06-.05-.06-.04-.06-.04-.08-.05-.07-.04-.08-.05-.09-.04-.09-.05-.09-.04-.1-.05-.1-.04-.1-.04-.11-.05-.11-.04-.11-.05-.11-.04-.11-.05-.12-.04-.12-.05-.11-.04-.12-.05-.11-.04-.12-.04-.12-.05-.11-.04-.12-.05-.11-.04-.12-.05-.11-.04-.11-.05-.11-.04-.1-.04-.11-.05-.1-.04-.1-.05-.1-.04-.1-.05-.1-.04-.09-.05-.09-.04-.09-.04-.09-.05-.08-.04-.08-.05-.08-.04-.08-.05-.07-.04-.08-.05-.07-.04-.06-.05-.07-.04-.06-.04-.06-.05-.06-.04-.06-.05-.06-.04-.05-.05-.05-.04-.05-.05-.05-.04-.05-.04-.04-.05-.04-.04-.05-.05-.04-.04-.04-.05-.03-.04-.04-.05-.04-.04-.03-.04-.03-.05-.04-.04-.03-.05-.03-.04-.03-.05-.03-.04-.03-.05-.03-.04-.02-.05-.03-.04-.03-.04-.03-.05-.02-.04-.03-.05-.03-.04-.02-.05-.03-.04-.03-.05-.02-.04-.03-.04-.03-.05-.03-.04-.03-.05-.02-.04-.03-.05-.03-.04-.03-.05-.03-.04-.04-.04-.03-.05-.03-.04-.03-.05-.04-.04-.03-.05-.04-.04-.04-.05-.03-.04-.04-.05-.04-.04-.04-.04-.04-.05-.04-.04-.05-.05-.04-.04-.04-.05-.05-.04-.04-.05-.05-.04-.05-.04-.04-.05-.05-.04-.05-.05-.05-.04-.05-.05-.05-.04-.05-.05-.05-.04-.05-.04-.05-.05-.05-.04-.05-.05-.05-.04-.05-.05-.06-.04-.05-.05-.05-.04-.05-.05-.05-.04-.05-.04-.05-.05-.06-.04-.05-.05-.05-.04-.05-.05-.05-.04-.05-.05-.05-.04-.04-.04-.05-.05-.05-.04-.05-.05-.05-.04-.04-.05-.05-.04-.04-.05-.05-.04-.04-.04-.05-.05-.04-.04-.05-.05-.04-.04-.05-.05-.04-.04-.04-.05-.05-.04-.04-.05-.04-.04-.04-.04-.05-.05-.04-.04-.04-.05-.04-.04-.05-.05-.04-.04-.04-.05-.05-.04-.04-.04-.04-.05-.05-.04-.04-.05-.05-.04-.04-.05-.05-.04-.05-.05-.04-.04-.05-.04-.05-.05-.05-.04-.05-.05-.05-.04-.05-.05-.05-.04-.05-.05-.06-.04-.05-.05-.06-.04-.05-.04-.06-.05-.05-.04-.06-.05-.06-.04-.06-.05-.06-.04-.06-.05-.06-.04-.06-.04-.07-.05-.06-.04-.06-.05-.07-.04-.06-.05-.06-.04-.07-.05-.06-.04-.07-.04-.06-.05-.07-.04-.07-.05-.06-.04-.07-.05-.06-.04-.07-.05-.06-.04-.07-.05-.06-.04-.06-.04-.07-.05-.06-.04-.06-.05-.06-.04-.06-.05-.06-.04-.06-.05-.06-.04-.06-.04-.05-.05-.06-.04-.05-.05-.06-.04-.05-.05-.05-.04-.05-.05-.05-.04-.05-.04-.04-.05-.05-.04-.04-.05-.04-.04-.04-.05-.05-.04-.03-.05-.04-.04-.04-.05-.03-.04-.04-.04-.03-.05-.03-.04-.03-.05-.03-.04-.03-.05-.02-.04-.03-.05-.02-.04-.03-.04-.02-.05-.02-.04-.02-.05-.02-.04-.02-.05-.02-.04-.01-.05-.02-.04-.01-.04-.02-.05-.01-.04-.01-.05-.02-.04-.01-.05-.01-.04-.01-.05-.01h-.04l-.05-.01-.04-.01-.04-.01h-.05l-.04-.01-.05-.01h-.04l-.05-.01h-.04l-.05-.01h-.08l-.05-.01h-.09l-.04-.01h-.18l-.04-.01h-.14zm-6.4-33.83.31-.01h.63l.31-.01h.31l.32-.01h.31l.31-.01.32-.01.31-.01.31-.01.32-.01.31-.02.31-.02.31-.02.32-.02.31-.02.31-.03.32-.03.31-.04.31-.04.31-.04.32-.05.31-.06.31-.06.32-.07.31-.07.31-.08.32-.09.31-.1.31-.1.31-.12.32-.12.31-.14.31-.14.32-.16.31-.17.31-.18.31-.19.32-.2.31-.22.31-.23.32-.24.31-.26.31-.27.32-.28.31-.29.31-.31.31-.33.32-.33.31-.35.31-.36.32-.37.31-.38.31-.39.32-.4.31-.4.31-.41.31-.42.32-.42.31-.41.31-.42.32-.42.31-.41.31-.4.31-.4.32-.38.31-.38.31-.35.32-.34.31-.33.31-.3.32-.28.31-.25.31-.23.31-.2.32-.18.31-.14.31-.12.32-.08.31-.06.31-.02.31.01.32.03.31.07.31.09.32.13.31.14.31.18.32.19.31.22.31.24.31.25.32.27.31.29.31.3.32.3.31.32.31.32.32.33.31.33.31.34.31.33.32.33.31.34.31.33.32.32.31.32.31.32.31.31.32.31.31.3.31.3.32.29.31.28.31.28.32.27.31.27.31.26.31.25.32.25.31.24.31.24.32.23.31.23.31.21.31.22.32.21.31.2.31.19.32.19.31.18.31.18.32.17.31.17.31.15.31.15.32.15.31.14.31.13.32.12.31.12.31.11.31.11.32.1.31.09.31.09.32.08.31.08.31.07.32.06.31.06.31.06.31.05.32.05.31.04.31.04.32.03.31.04.31.02.32.03.31.02.31.02.31.02.32.02.31.01.31.02.32.01.31.01.31.01h.31l.32.01.31.01h.63l.31.01h.63l.31.01h2.19l.31.01h24.41-25.97l-.32.01h-1.25l-.31.01h-.63l-.31.01-.31.01h-.32l-.31.01-.31.01-.31.01-.32.01-.31.01-.31.02-.32.01-.31.02-.31.02-.31.02-.32.03-.31.03-.31.03-.32.04-.31.04-.31.04-.32.04-.31.06-.31.05-.31.06-.32.07-.31.07-.31.07-.32.08-.31.09-.31.1-.32.09-.31.11-.31.11-.31.12-.32.13-.31.13-.31.14-.32.14-.31.15-.31.16-.31.16-.32.17-.31.18-.31.18-.32.19-.31.2-.31.2-.32.21-.31.21-.31.22-.31.22-.32.23-.31.24-.31.24-.32.25-.31.26-.31.26-.31.26-.32.27-.31.28-.31.29-.32.29-.31.29-.31.3-.32.31-.31.31-.31.32-.31.32-.32.33-.31.33-.31.33-.32.34-.31.33-.31.33-.31.33-.32.33-.31.32-.31.32-.32.31-.31.3-.31.28-.32.27-.31.26-.31.23-.31.22-.32.2-.31.17-.31.15-.32.12-.31.1-.31.06-.32.04-.31.01-.31-.03-.31-.05-.32-.09-.31-.11-.31-.15-.32-.17-.31-.2-.31-.23-.31-.26-.32-.28-.31-.3-.31-.32-.32-.34-.31-.36-.31-.37-.32-.39-.31-.39-.31-.41-.31-.41-.32-.41-.31-.42-.31-.42-.32-.42-.31-.41-.31-.41-.31-.41-.32-.39-.31-.39-.31-.38-.32-.38-.31-.35-.31-.35-.32-.34-.31-.32-.31-.31-.31-.3-.32-.28-.31-.27-.31-.26-.32-.24-.31-.23-.31-.21-.32-.21-.31-.19-.31-.18-.31-.17-.32-.15-.31-.15-.31-.13-.32-.13-.31-.11-.31-.11-.31-.09-.32-.09-.31-.08-.31-.08-.32-.06-.31-.07-.31-.05-.32-.05-.31-.04-.31-.04-.31-.04-.32-.03-.31-.03-.31-.03-.32-.02-.31-.02-.31-.02-.31-.01-.32-.01-.31-.02-.31-.01h-.32l-.31-.01-.31-.01h-.32l-.31-.01h-.31l-.31-.01h-.63zm82.93.01h15.65-15.65zm15.65 0h25.66l.32-.01h2.81l.31-.01h.94l.32-.01h.62l.32-.01h.62l.31-.01h.32l.31-.01h.31l.32-.01.31-.01h.31l.32-.01.31-.01h.31l.31-.01.32-.01.31-.01h.31l.32-.01.31-.01.31-.01.31-.01h.32l.31-.01.31-.01h.32l.31-.01h.31l.32-.01h.62l.31-.01h1.88l.31.01h.63l.31.01h.32l.31.01h.31l.32.01.31.01.31.01h.31l.32.01.31.01.31.01h.32l.31.01.31.01.32.01h.31l.31.01.31.01h.32l.31.01.31.01h.32l.31.01h.31l.31.01h.63l.31.01h.63l.31.01h.94l.31.01h2.82l.31.01h-1.87l-.32.01h-1.56l-.31.01h-.94l-.32.01h-.62l-.32.01h-.31l-.31.01h-.31l-.32.01h-.31l-.31.01-.32.01h-.31l-.31.01-.31.01-.32.01h-.31l-.31.01-.32.01-.31.01h-.31l-.32.01-.31.01-.31.01h-.31l-.32.01-.31.01h-.31l-.32.01h-.31l-.31.01h-3.13l-.31-.01h-.32l-.31-.01h-.31l-.32-.01-.31-.01h-.31l-.32-.01-.31-.01h-.31l-.31-.01-.32-.01-.31-.01-.31-.01h-.32l-.31-.01-.31-.01h-.31l-.32-.01-.31-.01h-.31l-.32-.01-.31-.01h-.31l-.32-.01h-.31l-.31-.01h-.63l-.31-.01H712l-.31-.01h-1.57l-.31-.01h-27.23zm-67.29-33.85.09-.01h.28l.09-.01h.19l.09-.01h.09l.1-.01.09-.01.09-.01h.1l.09-.01.09-.01.09-.02.1-.01.09-.01.09-.02.1-.02.09-.02.09-.02.09-.02.1-.03.09-.02.09-.03.1-.04.09-.03.09-.04.09-.04.1-.04.09-.04.09-.05.1-.05.09-.05.09-.06.09-.06.1-.06.09-.07.09-.07.1-.07.09-.07.09-.08.09-.07.1-.08.09-.09.09-.08.1-.09.09-.09.09-.09.09-.09.1-.09.09-.09.09-.09.1-.09.09-.09.09-.09.09-.1.1-.08.09-.09.09-.09.09-.08.1-.08.09-.08.09-.08.1-.08.09-.07.09-.07.09-.06.1-.07.09-.06.09-.05.1-.06.09-.05.09-.05.09-.04.1-.05.09-.04.09-.04.1-.03.09-.04.09-.03.09-.04.1-.03.09-.03.09-.03.1-.03.09-.03.09-.04.09-.03.1-.04.09-.03.09-.04.1-.04.09-.05.09-.05.09-.05.1-.06.09-.06.09-.06.1-.07.09-.07.09-.08.09-.09.1-.09.09-.09.09-.1.1-.11.09-.11.09-.12.09-.13.1-.13.09-.14.09-.14.1-.15.09-.16.09-.16.09-.17.1-.17.09-.18.09-.18.1-.19.09-.19.09-.2.09-.2.1-.2.09-.21.09-.21.1-.21.09-.21.09-.22.09-.21.1-.22.09-.22.09-.22.1-.21.09-.22.09-.21.09-.22.1-.21.09-.21.09-.2.1-.21.09-.19.09-.2.09-.19.1-.19.09-.18.09-.18.1-.17.09-.17.09-.16.09-.15.1-.15.09-.15.09-.13.1-.13.09-.12.09-.11.09-.11.1-.09.09-.09.09-.08.1-.07.09-.06.09-.06.09-.04.1-.03.09-.02.09-.01h.09l.1.02.09.02.09.04.1.05.09.06.09.08.09.09.1.1.09.11.09.13.1.14.09.15.09.17.09.18.1.19.09.21.09.22.1.22.09.24.09.25.09.26.1.27.09.28.09.29.1.29.09.3.09.3.09.31.1.32.09.31.09.32.1.32.09.33.09.32.09.32.1.31.09.32.09.31.1.31.09.3.09.3.09.29.1.28.09.28.09.26.1.26.09.26.09.24.09.23.1.23.09.22.09.2.1.2.09.19.09.18.09.17.1.16.09.15.09.14.1.14.09.13.09.11.09.12.1.1.09.1.09.09.1.08.09.08.09.07.09.07.1.06.09.06.09.05.1.05.09.04.09.04.09.04.1.03.09.03.09.03.1.03.09.02.09.03.09.02.1.02.09.01.09.02.1.02.09.01.09.01.09.02.1.01.09.01.09.01.1.02.09.01.09.01.09.01.1.01.09.01.09.01.1.01.09.01.09.01.09.02.1.01.09.01.09.01.09.01.1.01.09.01.09.01.1.02.09.01.09.01.09.01.1.01.09.01.09.01.1.01.09.01.09.01.09.01.1.01.09.01.09.01.1.01h.09l.09.01.09.01.1.01h.09l.09.01h.1l.09.01h.09l.09.01h.1l.09.01h.09l.1.01h.27l.1.01h.37l.09.01h.84l.09.01h3.99l.1-.01h.92l.1-.01h.37l.09-.01h.19l.09-.01h.18l.1-.01h.09l.09-.01h.1l.09-.01h.09l.09-.01.1-.01h.09l.09-.01.1-.01.09-.01h.09l.09-.01.1-.01.09-.01.09-.01h.1l.09-.01.09-.01.09-.01.1-.01.09-.01.09-.01h.1l.09-.01.09-.01.09-.01.1-.01h.09l.09-.01h.1l.09-.01h.09l.09-.01h.19l.09-.01h.56l.09.01h.19l.09.01h.09l.1.01h.09l.09.01.1.01.09.01h.09l.09.01.1.01.09.01.09.01h.1l.09.01.09.01.09.01.1.01.09.01.09.01h.1l.09.01.09.01.09.01.1.01h.09l.09.01.1.01h.09l.09.01h.09l.1.01h.09l.09.01h.1l.09.01h.18l.1.01h.18l.1.01h.37l.09.01h.84l.09.01h-.37l-.1.01h-.65l-.09.01h-.28l-.09.01h-.19l-.09.01h-.18l-.1.01h-.09l-.09.01h-.1l-.09.01h-.09l-.09.01-.1.01h-.09l-.09.01-.1.01-.09.01h-.09l-.09.01-.1.01-.09.01-.09.01-.1.01h-.09l-.09.01-.09.01-.1.01-.09.01-.09.01-.1.01h-.09l-.09.01-.09.01-.1.01h-.09l-.09.01h-.1l-.09.01h-.09l-.09.01h-.28l-.1.01h-.27l-.1-.01h-.28l-.09-.01h-.09l-.09-.01h-.1l-.09-.01-.09-.01h-.1l-.09-.01-.09-.01-.09-.01-.1-.01h-.09l-.09-.01-.1-.01-.09-.01-.09-.01-.09-.01-.1-.01-.09-.01h-.09l-.1-.01-.09-.01-.09-.01-.09-.01h-.1l-.09-.01-.09-.01h-.1l-.09-.01h-.09l-.09-.01h-.1l-.09-.01h-.09l-.1-.01h-.09l-.09-.01h-.19l-.09-.01h-.37l-.09-.01h-.56l-.09-.01h-4.92l-.1.01h-.55l-.1.01h-.28l-.09.01h-.18l-.1.01h-.18l-.1.01h-.09l-.09.01h-.09l-.1.01h-.09l-.09.01-.1.01-.09.01h-.09l-.09.01-.1.01-.09.01-.09.01-.1.01-.09.01-.09.01-.09.01-.1.01-.09.01-.09.01-.1.01-.09.01-.09.01-.09.01-.1.01-.09.01-.09.01-.1.02-.09.01-.09.01-.09.01-.1.01-.09.01-.09.01-.09.01-.1.02-.09.01-.09.01-.1.01-.09.01-.09.01-.09.01-.1.01-.09.02-.09.01-.1.01-.09.01-.09.02-.09.01-.1.02-.09.01-.09.02-.1.02-.09.02-.09.02-.09.03-.1.02-.09.03-.09.03-.1.04-.09.04-.09.04-.09.04-.1.05-.09.05-.09.06-.1.06-.09.07-.09.07-.09.08-.1.08-.09.09-.09.1-.1.1-.09.11-.09.12-.09.13-.1.13-.09.15-.09.15-.1.16-.09.17-.09.18-.09.19-.1.19-.09.21-.09.22-.1.22-.09.24-.09.24-.09.25-.1.26-.09.27-.09.28-.1.28-.09.29-.09.3-.09.3-.1.31-.09.31-.09.31-.1.32-.09.32-.09.32-.09.32-.1.32-.09.32-.09.32-.1.31-.09.31-.09.31-.09.3-.1.29-.09.29-.09.28-.1.26-.09.26-.09.25-.09.24-.1.23-.09.22-.09.2-.1.2-.09.18-.09.16-.09.16-.1.14-.09.13-.09.11-.1.1-.09.09-.09.08-.09.06-.1.05-.09.04-.09.02-.1.01-.09.01-.09-.01-.09-.02-.1-.04-.09-.04-.09-.05-.09-.06-.1-.07-.09-.08-.09-.09-.1-.1-.09-.1-.09-.11-.09-.12-.1-.13-.09-.14-.09-.14-.1-.15-.09-.15-.09-.16-.09-.17-.1-.17-.09-.18-.09-.18-.1-.19-.09-.19-.09-.2-.09-.2-.1-.2-.09-.21-.09-.21-.1-.21-.09-.21-.09-.21-.09-.22-.1-.22-.09-.22-.09-.21-.1-.22-.09-.22-.09-.21-.09-.22-.1-.21-.09-.21-.09-.2-.1-.21-.09-.2-.09-.19-.09-.19-.1-.19-.09-.18-.09-.18-.1-.17-.09-.17-.09-.16-.09-.16-.1-.15-.09-.14-.09-.14-.1-.13-.09-.13-.09-.12-.09-.11-.1-.11-.09-.1-.09-.1-.1-.09-.09-.08-.09-.08-.09-.07-.1-.07-.09-.07-.09-.06-.1-.05-.09-.06-.09-.04-.09-.05-.1-.04-.09-.04-.09-.04-.1-.03-.09-.04-.09-.03-.09-.03-.1-.03-.09-.03-.09-.03-.1-.04-.09-.03-.09-.03-.09-.04-.1-.03-.09-.04-.09-.04-.1-.05-.09-.04-.09-.05-.09-.05-.1-.06-.09-.06-.09-.06-.1-.06-.09-.07-.09-.06-.09-.08-.1-.07-.09-.08-.09-.08-.1-.08-.09-.09-.09-.08-.09-.09-.1-.09-.09-.09-.09-.09-.09-.09-.1-.09-.09-.09-.09-.1-.1-.09-.09-.09-.09-.09-.09-.09-.1-.08-.09-.09-.09-.08-.1-.08-.09-.08-.09-.07-.09-.08-.1-.07-.09-.07-.09-.06-.1-.06-.09-.06-.09-.06-.09-.05-.1-.05-.09-.05-.09-.05-.1-.04-.09-.04-.09-.03-.09-.04-.1-.03-.09-.03-.09-.03-.1-.02-.09-.02-.09-.03-.09-.01-.1-.02-.09-.02-.09-.01-.1-.02-.09-.01-.09-.01-.09-.01-.1-.01-.09-.01h-.09l-.1-.01h-.09l-.09-.01h-.09l-.1-.01h-.18l-.1-.01h-.18zm-7.46-33.85h.3l.31-.01h.3l.31-.01.3-.01.31-.01.3-.01.31-.01.3-.02.31-.01.3-.02.3-.03.31-.02.3-.03.31-.03.3-.04.31-.04.3-.05.31-.05.3-.06.31-.07.3-.07.31-.08.3-.09.3-.09.31-.11.3-.11.31-.13.3-.13.31-.14.3-.16.31-.16.3-.18.31-.18.3-.2.3-.2.31-.22.3-.23.31-.23.3-.25.31-.25.3-.27.31-.27.3-.28.31-.29.3-.29.31-.3.3-.3.3-.31.31-.32.3-.31.31-.32.3-.33.31-.32.3-.33.31-.33.3-.32.31-.33.3-.33.3-.33.31-.32.3-.33.31-.32.3-.32.31-.32.3-.32.31-.31.3-.3.31-.3.3-.29.3-.28.31-.27.3-.26.31-.25.3-.24.31-.21.3-.2.31-.18.3-.16.31-.14.3-.11.31-.08.3-.05.3-.03.31.01.3.03.31.07.3.11.31.13.3.17.31.21.3.23.31.27.3.29.3.33.31.35.3.37.31.4.3.42.31.44.3.45.31.46.3.47.31.48.3.49.31.48.3.48.3.48.31.47.3.46.31.45.3.44.31.42.3.41.31.39.3.38.31.35.3.34.3.31.31.3.3.28.31.25.3.24.31.22.3.21.31.18.3.17.31.16.3.14.31.12.3.12.3.1.31.09.3.08.31.07.3.06.31.06.3.05.31.04.3.04.31.03.3.03.3.02.31.02.3.02.31.01.3.02.31.01.3.01h.31l.3.01.31.01h.61l.3.01h1.22l.3.01h22.85-22.85l-.3.01h-1.22l-.3.01h-.61l-.31.01-.3.01h-.31l-.3.01-.31.01-.3.02-.31.01-.3.02-.31.02-.3.02-.3.03-.31.03-.3.04-.31.04-.3.05-.31.05-.3.07-.31.07-.3.08-.31.09-.3.1-.3.12-.31.12-.3.14-.31.16-.3.17-.31.18-.3.2-.31.23-.3.23-.31.26-.3.28-.31.3-.3.31-.3.34-.31.35-.3.38-.31.39-.3.4-.31.43-.3.44-.31.45-.3.46-.31.47-.3.48-.3.48-.31.48-.3.49-.31.47-.3.48-.31.46-.3.45-.31.44-.3.42-.31.4-.3.37-.31.35-.3.33-.3.29-.31.27-.3.23-.31.21-.3.17-.31.13-.3.1-.31.07-.3.04-.31.01-.3-.03-.3-.05-.31-.09-.3-.11-.31-.13-.3-.16-.31-.18-.3-.2-.31-.21-.3-.24-.31-.25-.3-.26-.31-.27-.3-.28-.3-.29-.31-.3-.3-.31-.31-.31-.3-.31-.31-.32-.3-.32-.31-.32-.3-.33-.31-.32-.3-.33-.3-.33-.31-.33-.3-.33-.31-.32-.3-.33-.31-.32-.3-.33-.31-.32-.3-.31-.31-.32-.3-.31-.3-.3-.31-.3-.3-.29-.31-.29-.3-.28-.31-.27-.3-.27-.31-.25-.3-.25-.31-.23-.3-.23-.31-.22-.3-.2-.3-.2-.31-.19-.3-.17-.31-.16-.3-.16-.31-.14-.3-.13-.31-.13-.3-.11-.31-.11-.3-.09-.3-.09-.31-.08-.3-.07-.31-.07-.3-.06-.31-.05-.3-.05-.31-.04-.3-.04-.31-.03-.3-.03-.31-.03-.3-.02-.3-.02-.31-.01-.3-.02-.31-.01-.3-.01-.31-.01-.3-.01-.31-.01h-.3l-.31-.01h-.3zm71.58.02h25.89-25.89zm25.89 0h24.97l.31-.01h2.13l.3-.01h.92l.3-.01h.61l.31-.01h.3l.3-.01h.31l.3-.01h.31l.3-.01.31-.01h.3l.31-.01.3-.01h.31l.3-.01.3-.01.31-.01h.3l.31-.01.3-.01.31-.01h.3l.31-.01.3-.01h.31l.3-.01h.31l.3-.01h.61l.3-.01h1.53l.3.01h.61l.3.01h.31l.3.01h.31l.3.01h.31l.3.01.31.01h.3l.31.01.3.01.31.01h.3l.3.01.31.01.3.01h.31l.3.01.31.01h.3l.31.01h.3l.31.01h.3l.3.01h.31l.3.01h.61l.31.01h.91l.31.01h2.13l.3.01h.92-1.53l-.3.01h-1.83l-.3.01h-.61l-.31.01h-.61l-.3.01h-.61l-.3.01h-.31l-.3.01-.31.01h-.3l-.31.01-.3.01h-.31l-.3.01-.31.01h-.3l-.3.01-.31.01-.3.01h-.31l-.3.01-.31.01-.3.01h-.31l-.3.01h-.31l-.3.01h-.31l-.3.01h-.61l-.3.01h-1.22l-.31-.01h-.91l-.3-.01h-.31l-.3-.01-.31-.01h-.3l-.31-.01-.3-.01h-.31l-.3-.01-.31-.01h-.3l-.31-.01-.3-.01-.3-.01h-.31l-.3-.01-.31-.01h-.3l-.31-.01-.3-.01h-.31l-.3-.01h-.31l-.3-.01h-.3l-.31-.01h-.61l-.3-.01h-.92l-.3-.01h-1.83l-.3-.01h-24.98z" color="#000" shape-rendering="crispEdges"/><path fill="none" stroke="#000" d="M424.91 54.01V392.4h829.91V54.01H424.91Z" color="#000"/><text color="#000" font-family="Helvetica" font-size="12" text-anchor="middle" transform="translate(839.86 30.91)"><tspan>with_memcache/1048576: Violin plot</tspan></text></svg>