<svg xmlns="http://www.w3.org/2000/svg" viewBox="0 0 1280 400"><path fill="none" d="M0 0h1280v400H0z"/><g fill="none" stroke="currentColor" color="#000"><path stroke="#000" d="M466.86 324.38h9"/><text fill="#000" stroke="none" font-family="Helvetica" font-size="12" text-anchor="end" transform="translate(458.47 328.28)"><tspan>initially_uncached/mmap_rw_truncate/1048576</tspan></text></g><g fill="none" stroke="currentColor" color="#000"><path stroke="#000" d="M466.86 288.33h9"/><text fill="#000" stroke="none" font-family="Helvetica" font-size="12" text-anchor="end" transform="translate(458.47 292.23)"><tspan>initially_uncached/mmap_read_only_fallocate/1048576</tspan></text></g><g fill="none" stroke="currentColor" color="#000"><path stroke="#000" d="M466.86 252.28h9"/><text fill="#000" stroke="none" font-family="Helvetica" font-size="12" text-anchor="end" transform="translate(458.47 256.18)"><tspan>initially_uncached/mmap_read_only_truncate/1048576</tspan></text></g><g fill="none" stroke="currentColor" color="#000"><path stroke="#000" d="M466.86 216.23h9"/><text fill="#000" stroke="none" font-family="Helvetica" font-size="12" text-anchor="end" transform="translate(458.47 220.13)"><tspan>initially_uncached/mmap_read_only/1048576</tspan></text></g><g fill="none" stroke="currentColor" color="#000"><path stroke="#000" d="M466.86 180.18h9"/><text fill="#000" stroke="none" font-family="Helvetica" font-size="12" text-anchor="end" transform="translate(458.47 184.08)"><tspan>initially_uncached/buffered_readahead_tuned/1048576</tspan></text></g><g fill="none" stroke="currentColor" color="#000"><path stroke="#000" d="M466.86 144.13h9"/><text fill="#000" stroke="none" font-family="Helvetica" font-size="12" text-anchor="end" transform="translate(458.47 148.03)"><tspan>initially_uncached/buffered_l1_tuned/1048576</tspan></text></g><g fill="none" stroke="currentColor" color="#000"><path stroke="#000" d="M466.86 108.08h9"/><text fill="#000" stroke="none" font-family="Helvetica" font-size="12" text-anchor="end" transform="translate(458.47 111.98)"><tspan>initially_uncached/buffered/1048576</tspan></text></g><g fill="none" stroke="currentColor" color="#000"><path stroke="#000" d="M466.86 72.03h9"/><text fill="#000" stroke="none" font-family="Helvetica" font-size="12" text-anchor="end" transform="translate(458.47 75.93)"><tspan>initially_uncached/copy_file_range/1048576</tspan></text></g><path fill="none" stroke="gray" stroke-dasharray="2,4" stroke-width=".5" d="M466.86 342.4V54.01" class="gridline" color="gray"/><g fill="none" stroke="currentColor" color="#000"><path stroke="#000" d="M466.86 342.4v-9"/><text fill="#000" stroke="none" font-family="Helvetica" font-size="12" text-anchor="middle" transform="translate(466.86 364.3)"><tspan> 0</tspan></text></g><path fill="none" stroke="gray" stroke-dasharray="2,4" stroke-width=".5" d="M551.39 342.4V54.01" class="gridline" color="gray"/><g fill="none" stroke="currentColor" color="#000"><path stroke="#000" d="M551.39 342.4v-9"/><text fill="#000" stroke="none" font-family="Helvetica" font-size="12" text-anchor="middle" transform="translate(551.39 364.3)"><tspan> 0.5</tspan></text></g><path fill="none" stroke="gray" stroke-dasharray="2,4" stroke-width=".5" d="M635.91 342.4V54.01" class="gridline" color="gray"/><g fill="none" stroke="currentColor" color="#000"><path stroke="#000" d="M635.91 342.4v-9"/><text fill="#000" stroke="none" font-family="Helvetica" font-size="12" text-anchor="middle" transform="translate(635.91 364.3)"><tspan> 1</tspan></text></g><path fill="none" stroke="gray" stroke-dasharray="2,4" stroke-width=".5" d="M720.44 342.4V54.01" class="gridline" color="gray"/><g fill="none" stroke="currentColor" color="#000"><path stroke="#000" d="M720.44 342.4v-9"/><text fill="#000" stroke="none" font-family="Helvetica" font-size="12" text-anchor="middle" transform="translate(720.44 364.3)"><tspan> 1.5</tspan></text></g><path fill="none" stroke="gray" stroke-dasharray="2,4" stroke-width=".5" d="M804.97 342.4V54.01" class="gridline" color="gray"/><g fill="none" stroke="currentColor" color="#000"><path stroke="#000" d="M804.97 342.4v-9"/><text fill="#000" stroke="none" font-family="Helvetica" font-size="12" text-anchor="middle" transform="translate(804.97 364.3)"><tspan> 2</tspan></text></g><path fill="none" stroke="gray" stroke-dasharray="2,4" stroke-width=".5" d="M889.5 342.4V54.01" class="gridline" color="gray"/><g fill="none" stroke="currentColor" color="#000"><path stroke="#000" d="M889.5 342.4v-9"/><text fill="#000" stroke="none" font-family="Helvetica" font-size="12" text-anchor="middle" transform="translate(889.5 364.3)"><tspan> 2.5</tspan></text></g><path fill="none" stroke="gray" stroke-dasharray="2,4" stroke-width=".5" d="M974.02 342.4V54.01" class="gridline" color="gray"/><g fill="none" stroke="currentColor" color="#000"><path stroke="#000" d="M974.02 342.4v-9"/><text fill="#000" stroke="none" font-family="Helvetica" font-size="12" text-anchor="middle" transform="translate(974.02 364.3)"><tspan> 3</tspan></text></g><path fill="none" stroke="gray" stroke-dasharray="2,4" stroke-width=".5" d="M1058.55 342.4V54.01" class="gridline" color="gray"/><g fill="none" stroke="currentColor" color="#000"><path stroke="#000" d="M1058.55 342.4v-9"/><text fill="#000" stroke="none" font-family="Helvetica" font-size="12" text-anchor="middle" transform="translate(1058.55 364.3)"><tspan> 3.5</tspan></text></g><path fill="none" stroke="gray" stroke-dasharray="2,4" stroke-width=".5" d="M1143.08 342.4V54.01" class="gridline" color="gray"/><g fill="none" stroke="currentColor" color="#000"><path stroke="#000" d="M1143.08 342.4v-9"/><text fill="#000" stroke="none" font-family="Helvetica" font-size="12" text-anchor="middle" transform="translate(1143.08 364.3)"><tspan> 4</tspan></text></g><path fill="none" stroke="gray" stroke-dasharray="2,4" stroke-width=".5" d="M1227.61 342.4V81.01m0-18v-9" class="gridline" color="gray"/><g fill="none" stroke="currentColor" color="#000"><path stroke="#000" d="M1227.61 342.4v-9"/><text fill="#000" stroke="none" font-family="Helvetica" font-size="12" text-anchor="middle" transform="translate(1227.61 364.3)"><tspan> 4.5</tspan></text></g><path fill="none" stroke="#000" d="M466.86 54.01V342.4h787.96V54.01H466.86Z" color="#000"/><text color="#000" font-family="Helvetica" font-size="12" text-anchor="middle" transform="rotate(-90 108.695 89.515)"><tspan>Input</tspan></text><text color="#000" font-family="Helvetica" font-size="12" text-anchor="middle" transform="translate(860.84 391.3)"><tspan>Average time (ms)</tspan></text><text color="#000" font-family="Helvetica" font-size="12" text-anchor="end" transform="translate(1187.09 75.91)"><tspan>PDF</tspan></text><path fill="#1F78B4" d="M1195.48 76.51h42.56v-9h-42.56zm-524 247.85h1.07l.27-.01h.8l.26-.01h.54l.26-.01h.27l.27-.01h.26l.27-.01.27-.01h.26l.27-.01.26-.01.27-.01.27-.01.26-.01.27-.01.27-.01.26-.02.27-.01.27-.02.26-.01.27-.02.27-.02.26-.02.27-.03.27-.02.26-.03.27-.03.27-.03.26-.03.27-.03.27-.04.26-.04.27-.04.27-.05.26-.04.27-.05.27-.06.26-.06.27-.06.27-.06.26-.07.27-.07.27-.07.26-.08.27-.09.27-.08.26-.1.27-.09.27-.11.26-.1.27-.11.26-.12.27-.12.27-.13.26-.13.27-.14.27-.14.26-.15.27-.16.27-.16.26-.16.27-.18.27-.17.26-.19.27-.19.27-.19.26-.2.27-.21.27-.21.26-.22.27-.22.27-.23.26-.23.27-.24.27-.24.26-.25.27-.25.27-.25.26-.26.27-.26.27-.27.26-.26.27-.27.27-.27.26-.28.27-.27.27-.28.26-.27.27-.28.26-.28.27-.27.27-.27.26-.28.27-.26.27-.27.26-.26.27-.26.27-.26.26-.25.27-.25.27-.24.26-.23.27-.23.27-.22.26-.21.27-.21.27-.2.26-.18.27-.18.27-.17.26-.16.27-.16.27-.14.26-.13.27-.11.27-.11.26-.1.27-.08.27-.08.26-.06.27-.05.27-.03.26-.03.27-.01.27-.01.26.01.27.03.27.03.26.04.27.06.26.07.27.08.27.09.26.1.27.11.27.12.26.13.27.14.27.15.26.16.27.16.27.18.26.18.27.18.27.2.26.2.27.21.27.21.26.22.27.22.27.22.26.23.27.24.27.23.26.24.27.24.27.24.26.24.27.24.27.25.26.24.27.24.27.24.26.24.27.24.27.24.26.23.27.23.27.23.26.23.27.22.26.22.27.22.27.21.26.21.27.21.27.2.26.2.27.19.27.19.26.18.27.18.27.17.26.17.27.16.27.16.26.16.27.15.27.14.26.14.27.14.27.13.26.13.27.12.27.11.26.12.27.11.27.1.26.1.27.1.27.09.26.09.27.08.27.08.26.08.27.08.27.07.26.07.27.06.26.06.27.06.27.06.26.05.27.05.27.05.26.05.27.04.27.04.26.04.27.04.27.04.26.03.27.04.27.03.26.03.27.02.27.03.26.03.27.02.27.02.26.03.27.02.27.02.26.01.27.02.27.02.26.01.27.02.27.01.26.01.27.01.27.02h.26l.27.01.27.01.26.01.27.01h.27l.26.01h2.4l.27-.01h.26l.27-.01.27-.01h.26l.27-.01.27-.01.26-.01.27-.01.27-.02.26-.01.27-.01.27-.02.26-.01.27-.02.27-.02.26-.02.27-.01.27-.02.26-.02.27-.02.27-.03.26-.02.27-.02.27-.02.26-.02.27-.03.27-.02.26-.03.27-.02.27-.02.26-.03.27-.02.26-.03.27-.02.27-.03.26-.02.27-.02.27-.03.26-.02.27-.02.27-.03.26-.02.27-.02.27-.02.26-.02.27-.02.27-.02.26-.02.27-.01.27-.02.26-.01.27-.02.27-.01.26-.01.27-.01.27-.01.26-.01h.27l.27-.01h1.33l.27.01h.26l.27.01.27.01.26.01.27.01.26.01.27.01.27.02.26.02.27.02.27.02.26.02.27.02.27.03.26.02.27.03.27.02.26.03.27.03.27.03.26.04.27.03.27.03.26.04.27.03.27.04.26.03.27.04.27.04.26.04.27.03.27.04.26.04.27.04.27.04.26.04.27.04.27.03.26.04.27.04.27.04.26.04.27.03.27.04.26.04.27.04.26.03.27.04.27.03.26.04.27.03.27.03.26.03.27.04.27.03.26.03.27.03.27.03.26.02.27.03.27.03.26.02.27.03.27.02.26.03.27.02.27.02.26.03.27.02.27.02.26.02.27.02.27.01.26.02.27.02.27.02.26.01.27.02.27.02.26.01.27.01.27.02.26.01.27.02.27.01.26.01.27.01.26.02.27.01.27.01.26.01.27.01.27.01.26.01.27.01.27.01.26.01.27.01h.27l.26.01.27.01.27.01.26.01h.27l.27.01.26.01h.27l.27.01.26.01h.27l.27.01.26.01h.27l.27.01h.26l.27.01h.27l.26.01h.54l.26.01h.27l.27.01h.53l.26.01h.54l.26.01h.54l.26.01h1.07l.27.01h1.06l.27.01h2.13l.27.01h4v.01h-3.73l-.27.01h-2.13l-.27.01h-1.33l-.27.01h-.8l-.27.01h-.8l-.26.01h-.54l-.26.01h-.53l-.27.01h-.27l-.26.01h-.27l-.27.01h-.53l-.27.01-.26.01h-.27l-.27.01h-.26l-.27.01h-.27l-.26.01-.27.01h-.27l-.26.01-.27.01-.27.01h-.26l-.27.01-.27.01-.26.01-.27.01h-.27l-.26.01-.27.01-.27.01-.26.01-.27.01-.27.01-.26.01-.27.01-.27.02-.26.01-.27.01-.26.01-.27.02-.27.01-.26.01-.27.02-.27.01-.26.02-.27.01-.27.02-.26.01-.27.02-.27.02-.26.02-.27.02-.27.01-.26.02-.27.03-.27.02-.26.02-.27.02-.27.02-.26.03-.27.02-.27.03-.26.02-.27.03-.27.03-.26.03-.27.02-.27.03-.26.03-.27.04-.27.03-.26.03-.27.03-.27.04-.26.03-.27.03-.27.04-.26.04-.27.03-.26.04-.27.04-.27.03-.26.04-.27.04-.27.04-.26.04-.27.04-.27.03-.26.04-.27.04-.27.04-.26.04-.27.04-.27.04-.26.03-.27.04-.27.04-.26.03-.27.04-.27.03-.26.04-.27.03-.27.04-.26.03-.27.03-.27.03-.26.03-.27.02-.27.03-.26.03-.27.02-.27.02-.26.02-.27.02-.27.02-.26.02-.27.02-.27.01-.26.01-.27.02-.26.01h-.27l-.27.01-.26.01h-1.6l-.27-.01h-.27l-.26-.01-.27-.01-.27-.01-.26-.01-.27-.01-.27-.02-.26-.01-.27-.02-.27-.01-.26-.02-.27-.02-.27-.02-.26-.02-.27-.02-.27-.02-.26-.02-.27-.02-.27-.03-.26-.02-.27-.02-.27-.03-.26-.02-.27-.03-.27-.02-.26-.03-.27-.02-.26-.02-.27-.03-.27-.02-.26-.03-.27-.02-.27-.02-.26-.03-.27-.02-.27-.02-.26-.02-.27-.02-.27-.02-.26-.02-.27-.02-.27-.02-.26-.02-.27-.02-.27-.01-.26-.02-.27-.01-.27-.02-.26-.01-.27-.01-.27-.02-.26-.01-.27-.01h-.27l-.26-.01-.27-.01-.27-.01h-.26l-.27-.01h-2.13l-.27.01H740l-.27.01h-.27l-.26.01-.27.01-.27.01-.26.01-.27.01-.27.01-.26.01-.27.01-.27.02-.26.01-.27.02-.27.02-.26.02-.27.01-.27.03-.26.02-.27.02-.27.02-.26.03-.27.03-.27.02-.26.03-.27.04-.27.03-.26.03-.27.04-.27.04-.26.04-.27.04-.27.04-.26.05-.27.05-.27.05-.26.05-.27.06-.27.06-.26.06-.27.07-.26.06-.27.07-.27.08-.26.08-.27.08-.27.08-.26.09-.27.09-.27.1-.26.1-.27.11-.27.1-.26.12-.27.11-.27.13-.26.12-.27.13-.27.14-.26.14-.27.14-.27.15-.26.16-.27.16-.27.16-.26.17-.27.17-.27.18-.26.19-.27.18-.27.2-.26.19-.27.2-.27.21-.26.21-.27.21-.27.22-.26.22-.27.22-.26.23-.27.23-.27.23-.26.23-.27.24-.27.24-.26.24-.27.24-.27.24-.26.25-.27.24-.27.24-.26.24-.27.24-.27.24-.26.24-.27.24-.27.23-.26.23-.27.22-.27.22-.26.22-.27.21-.27.21-.26.2-.27.2-.27.18-.26.19-.27.17-.27.17-.26.15-.27.15-.27.14-.26.13-.27.12-.27.11-.26.1-.27.09-.27.08-.26.07-.27.06-.26.04-.27.04-.27.02-.26.01h-.27l-.27-.02-.26-.02-.27-.04-.27-.05-.26-.06-.27-.08-.27-.08-.26-.1-.27-.1-.27-.12-.26-.13-.27-.14-.27-.15-.26-.16-.27-.17-.27-.18-.26-.19-.27-.2-.27-.21-.26-.21-.27-.22-.27-.23-.26-.23-.27-.24-.27-.25-.26-.25-.27-.25-.27-.26-.26-.27-.27-.26-.27-.27-.26-.28-.27-.27-.27-.27-.26-.28-.27-.27-.26-.28-.27-.28-.27-.27-.26-.27-.27-.28-.27-.27-.26-.26-.27-.27-.27-.26-.26-.26-.27-.25-.27-.25-.26-.25-.27-.24-.27-.24-.26-.23-.27-.23-.27-.22-.26-.22-.27-.21-.27-.21-.26-.2-.27-.19-.27-.19-.26-.18-.27-.18-.27-.17-.26-.17-.27-.16-.27-.16-.26-.15-.27-.14-.27-.14-.26-.13-.27-.13-.27-.12-.26-.12-.27-.11-.26-.1-.27-.11-.27-.09-.26-.09-.27-.09-.27-.09-.26-.08-.27-.07-.27-.07-.26-.07-.27-.06-.27-.06-.26-.06-.27-.05-.27-.05-.26-.05-.27-.05-.27-.04-.26-.04-.27-.04-.27-.03-.26-.03-.27-.03-.27-.03-.26-.03-.27-.02-.27-.03-.26-.02-.27-.02-.27-.02-.26-.01-.27-.02-.27-.01-.26-.02-.27-.01-.27-.01-.26-.01-.27-.01-.27-.01-.26-.01-.27-.01h-.26l-.27-.01-.27-.01h-.26l-.27-.01h-.27l-.26-.01h-.54l-.26-.01h-.8l-.27-.01h-1.07zm-38.17-36.06h.61l.61-.01.62-.01.61-.01.61-.01.62-.01.61-.01.61-.02.62-.02.61-.02.61-.03.62-.03.61-.03.61-.04.62-.05.61-.05.61-.06.62-.06.61-.08.61-.08.62-.09.61-.11.61-.11.62-.13.61-.14.61-.15.62-.17.61-.19.61-.2.62-.22.61-.23.61-.26.62-.27.61-.29.61-.31.62-.33.61-.35.61-.36.62-.39.61-.4.61-.42.62-.43.61-.45.61-.46.62-.47.61-.48.61-.49.62-.49.61-.5.61-.49.62-.5.61-.49.61-.48.62-.47.61-.45.62-.44.61-.43.61-.4.62-.38.61-.35.61-.33.62-.29.61-.27.61-.23.62-.2.61-.17.61-.13.62-.09.61-.06.61-.03.62.02.61.04.61.08.62.11.61.14.61.17.62.2.61.22.61.25.62.27.61.3.61.31.62.32.61.34.61.36.62.36.61.37.61.38.62.39.61.39.61.39.62.39.61.39.61.39.62.39.61.38.61.38.62.37.61.36.61.36.62.35.61.34.61.34.62.32.61.31.61.31.62.29.61.28.61.27.62.26.61.25.61.24.62.23.61.22.62.2.61.2.61.18.62.18.61.16.61.16.62.14.61.14.61.13.62.12.61.11.61.1.62.1.61.09.61.08.62.07.61.07.61.07.62.06.61.05.61.05.62.05.61.04.61.04.62.04.61.03.61.03.62.03.61.02.61.03.62.02.61.02.61.02.62.01.61.02.61.02.62.01.61.01.61.01.62.02.61.01.61.01.62.01.61.01h.61l.62.01.61.01.61.01.62.01h.61l.61.01.62.01h.61l.61.01h.62l.61.01.61.01h.62l.61.01h.62l.61.01.61.01h.62l.61.01.61.01h.62l.61.01.61.01h.62l.61.01.61.01.62.01.61.01h.61l.62.01.61.01.61.01.62.01.61.01.61.01.62.01.61.01h.61l.62.01.61.01.61.01.62.01h.61l.61.01.62.01.61.01h.61l.62.01h.61l.61.01.62.01h1.22l.62.01h.61l.61.01h1.23l.61.01h2.46l.61.01h6.75l.61.01h95.69l.61-.01h6.75l.61-.01h2.46l.61-.01h1.23l.61-.01h.62l.61-.01h1.23l.61-.01h.61l.62-.01.61-.01h.61l.62-.01.61-.01h.61l.62-.01.61-.01h.61l.62-.01.61-.01h.61l.62-.01.61-.01.61-.01h.62l.61-.01h.61l.62-.01h.61l.61-.01h.62l.61-.01h6.13l.62.01h.61l.61.01h.62l.61.01h.61l.62.01.61.01h.61l.62.01.61.01h.61l.62.01.61.01.62.01h.61l.61.01.62.01h.61l.61.01.62.01h.61l.61.01h.62l.61.01h.61l.62.01h1.22l.62.01h1.22l.62.01h2.45l.61.01h6.14v.01h-4.3l-.61.01h-3.07l-.61.01h-1.84l-.61.01h-1.23l-.61.01h-.62l-.61.01h-.61l-.62.01h-.61l-.61.01h-.62l-.61.01-.61.01h-.62l-.61.01-.61.01h-.62l-.61.01-.62.01-.61.01h-.61l-.62.01-.61.01h-.61l-.62.01-.61.01h-.61l-.62.01h-.61l-.61.01h-1.23l-.61.01h-3.68l-.62-.01h-1.22l-.62-.01h-.61l-.61-.01h-.62l-.61-.01h-.61l-.62-.01-.61-.01h-.61l-.62-.01-.61-.01-.61-.01h-.62l-.61-.01-.61-.01h-.62l-.61-.01-.61-.01h-.62l-.61-.01-.61-.01h-.62l-.61-.01h-.61l-.62-.01h-.61l-.61-.01h-1.23l-.61-.01h-1.84l-.62-.01h-3.07l-.61-.01H771.93l-.61.01h-3.07l-.61.01h-1.84l-.62.01h-1.22l-.62.01h-.61l-.61.01h-.62l-.61.01h-.61l-.62.01-.61.01h-.61l-.62.01-.61.01-.61.01h-.62l-.61.01-.61.01-.62.01-.61.01-.61.01-.62.01h-.61l-.61.01-.62.01-.61.01-.61.01-.62.01-.61.01-.61.01h-.62l-.61.01-.61.01-.62.01h-.61l-.61.01-.62.01-.61.01h-.61l-.62.01h-.61l-.61.01-.62.01h-.61l-.62.01h-.61l-.61.01-.62.01h-.61l-.61.01h-.62l-.61.01-.61.01-.62.01h-.61l-.61.01-.62.01-.61.01-.61.01-.62.01-.61.01-.61.01-.62.01-.61.01-.61.01-.62.02-.61.01-.61.02-.62.02-.61.02-.61.02-.62.02-.61.02-.61.03-.62.02-.61.03-.61.04-.62.03-.61.04-.61.04-.62.05-.61.05-.61.06-.62.06-.61.06-.61.07-.62.08-.61.08-.61.09-.62.09-.61.11-.61.11-.62.12-.61.12-.61.14-.62.15-.61.15-.61.17-.62.17-.61.19-.61.19-.62.21-.61.21-.62.23-.61.24-.61.25-.62.26-.61.27-.61.28-.62.3-.61.3-.61.31-.62.33-.61.33-.61.34-.62.35-.61.36-.61.36-.62.38-.61.37-.61.39-.62.38-.61.39-.61.39-.62.4-.61.39-.61.39-.62.38-.61.38-.61.37-.62.37-.61.35-.61.34-.62.33-.61.31-.61.29-.62.27-.61.25-.61.22-.62.2-.61.17-.61.14-.62.11-.61.08-.61.05-.62.01-.61-.03-.61-.05-.62-.1-.61-.13-.61-.16-.62-.2-.61-.24-.61-.26-.62-.3-.61-.32-.61-.36-.62-.38-.61-.4-.61-.42-.62-.44-.61-.46-.62-.47-.61-.48-.61-.49-.62-.49-.61-.5-.61-.49-.62-.5-.61-.48-.61-.48-.62-.48-.61-.46-.61-.44-.62-.44-.61-.42-.61-.4-.62-.38-.61-.37-.61-.35-.62-.33-.61-.31-.61-.29-.62-.27-.61-.25-.61-.24-.62-.22-.61-.2-.61-.18-.62-.17-.61-.16-.61-.14-.62-.12-.61-.12-.61-.1-.62-.1-.61-.08-.61-.07-.62-.07-.61-.06-.61-.05-.62-.04-.61-.04-.61-.04-.62-.03-.61-.02-.61-.03-.62-.02-.61-.01-.61-.02-.62-.01-.61-.01-.61-.01-.62-.01h-.61l-.61-.01zm-15.99-36.02h.93l.46-.01h5.07l.46-.01h1.84l.47-.01h1.38l.46-.01h.46l.46-.01h.92l.46-.01h.47l.46-.01h.46l.46-.01.46-.01.46-.01h.46l.46-.01.46-.01.47-.01.46-.01.46-.01.46-.01.46-.02.46-.01.46-.02.46-.01.46-.02.46-.02.47-.02.46-.03.46-.02.46-.03.46-.03.46-.04.46-.03.46-.04.46-.05.47-.05.46-.05.46-.06.46-.06.46-.07.46-.07.46-.09.46-.08.46-.1.46-.1.47-.12.46-.12.46-.13.46-.14.46-.15.46-.17.46-.17.46-.19.46-.19.47-.21.46-.23.46-.23.46-.25.46-.26.46-.28.46-.29.46-.3.46-.32.46-.32.47-.34.46-.36.46-.36.46-.37.46-.39.46-.39.46-.4.46-.4.46-.41.47-.42.46-.41.46-.42.46-.42.46-.42.46-.41.46-.4.46-.4.46-.39.47-.38.46-.37.46-.35.46-.34.46-.32.46-.3.46-.28.46-.25.46-.24.46-.21.47-.18.46-.16.46-.14.46-.1.46-.08.46-.04.46-.02h.46l.46.04.47.07.46.09.46.11.46.15.46.16.46.19.46.22.46.23.46.26.46.27.47.28.46.31.46.31.46.33.46.34.46.34.46.35.46.36.46.36.47.36.46.36.46.36.46.36.46.36.46.34.46.35.46.34.46.32.46.33.47.31.46.3.46.29.46.28.46.27.46.26.46.25.46.24.46.23.47.21.46.21.46.19.46.19.46.17.46.17.46.15.46.15.46.14.46.13.47.12.46.12.46.11.46.1.46.1.46.09.46.09.46.09.46.08.47.07.46.08.46.07.46.06.46.07.46.06.46.06.46.06.46.06.46.06.47.06.46.05.46.06.46.05.46.05.46.06.46.05.46.05.46.05.47.05.46.05.46.05.46.05.46.05.46.05.46.05.46.05.46.04.47.05.46.05.46.04.46.04.46.05.46.04.46.04.46.04.46.04.46.03.47.04.46.03.46.04.46.03.46.03.46.03.46.03.46.03.46.02.47.03.46.02.46.03.46.02.46.02.46.02.46.02.46.01.46.02.46.02.47.01.46.01.46.02.46.01.46.01.46.01.46.01.46.01.46.01.47.01h.46l.46.01.46.01h.46l.46.01h.46l.46.01h1.39l.46.01h3.22l.47-.01h1.38l.46-.01h.92l.46-.01h.92l.47-.01h.46l.46-.01h.46l.46-.01h.92l.46-.01h.46l.47-.01h1.38l.46-.01h5.07l.46.01h.92l.47.01h.46l.46.01h.46l.46.01.46.01h.46l.46.01.46.01h.47l.46.01.46.01.46.01.46.01.46.01.46.01.46.01h.46l.46.01.47.01.46.01.46.01.46.01.46.01.46.01h.46l.46.01.46.01.47.01h.46l.46.01.46.01h.46l.46.01h.46l.46.01h.46l.46.01h.47l.46.01h1.38l.46.01h3.23l.46-.01h1.38l.46-.01h.93l.46-.01h.46l.46-.01h.46l.46-.01h.46l.46-.01h.46l.47-.01h.46l.46-.01.46-.01h.46l.46-.01h.46l.46-.01.46-.01h.46l.47-.01h.46l.46-.01h.46l.46-.01h.46l.46-.01h.46l.46-.01h.93l.46-.01h1.38l.46-.01h1.85l.46-.01h11.52l.46.01h1.85l.46.01h.92l.46.01h.93l.46.01h.46l.46.01h.46l.46.01h.46l.46.01h.46l.46.01h.47l.46.01h.46l.46.01.46.01h.46l.46.01.46.01h.46l.47.01h.46l.46.01.46.01h.46l.46.01h.46l.46.01h.46l.46.01h.47l.46.01h.46l.46.01h.46l.46.01h.92l.46.01h.93l.46.01h1.38l.46.01h1.85l.46.01h5.07l.46.01h.92-3.69l-.46.01h-3.23l-.46.01h-1.84l-.46.01h-.92l-.46.01h-.93l-.46.01h-.92l-.46.01h-.46l-.46.01h-.46l-.47.01h-.46l-.46.01h-.46l-.46.01h-.46l-.46.01-.46.01h-.46l-.46.01h-.47l-.46.01-.46.01h-.46l-.46.01-.46.01h-.46l-.46.01h-.46l-.47.01-.46.01h-.46l-.46.01h-.46l-.46.01h-.46l-.46.01h-.92l-.47.01h-.92l-.46.01h-1.38l-.46.01h-2.31l-.46.01h-9.22l-.46-.01h-2.31l-.46-.01h-1.38l-.46-.01h-.92l-.47-.01h-.46l-.46-.01h-.46l-.46-.01h-.46l-.46-.01h-.46l-.46-.01h-.47l-.46-.01h-.46l-.46-.01-.46-.01h-.46l-.46-.01h-.46l-.46-.01-.46-.01h-.47l-.46-.01h-.46l-.46-.01h-.46l-.46-.01h-.46l-.46-.01h-.93l-.46-.01h-.92l-.46-.01h-5.07l-.46.01h-.92l-.47.01h-.46l-.46.01h-.46l-.46.01h-.46l-.46.01-.46.01h-.46l-.46.01-.47.01h-.46l-.46.01-.46.01-.46.01-.46.01-.46.01-.46.01h-.46l-.47.01-.46.01-.46.01-.46.01-.46.01-.46.01-.46.01-.46.01h-.46l-.46.01-.47.01-.46.01h-.46l-.46.01-.46.01h-.46l-.46.01h-.46l-.46.01h-.47l-.46.01h-.92l-.46.01h-4.15l-.46-.01h-1.38l-.46-.01h-.47l-.46-.01h-.92l-.46-.01h-.46l-.46-.01h-.46l-.46-.01h-.93l-.46-.01h-.46l-.46-.01h-1.38l-.46-.01h-5.08l-.46.01h-.92l-.46.01h-.46l-.46.01-.46.01h-.46l-.46.01-.47.01-.46.01-.46.01h-.46l-.46.02-.46.01-.46.01-.46.01-.46.02-.47.01-.46.02-.46.01-.46.02-.46.02-.46.02-.46.02-.46.02-.46.02-.46.03-.47.02-.46.03-.46.03-.46.02-.46.03-.46.04-.46.03-.46.03-.46.04-.47.03-.46.04-.46.04-.46.04-.46.04-.46.04-.46.04-.46.05-.46.04-.46.05-.47.04-.46.05-.46.05-.46.04-.46.05-.46.05-.46.05-.46.05-.46.05-.47.05-.46.05-.46.06-.46.05-.46.05-.46.06-.46.05-.46.05-.46.06-.47.06-.46.05-.46.06-.46.06-.46.06-.46.07-.46.06-.46.07-.46.07-.46.07-.47.08-.46.08-.46.08-.46.09-.46.1-.46.09-.46.11-.46.11-.46.11-.47.13-.46.13-.46.14-.46.15-.46.15-.46.17-.46.17-.46.18-.46.2-.46.2-.47.22-.46.23-.46.23-.46.25-.46.26-.46.27-.46.29-.46.29-.46.3-.47.31-.46.32-.46.33-.46.34-.46.34-.46.35-.46.36-.46.35-.46.36-.46.37-.47.36-.46.36-.46.35-.46.35-.46.35-.46.34-.46.32-.46.32-.46.3-.47.29-.46.27-.46.25-.46.24-.46.21-.46.19-.46.17-.46.14-.46.12-.46.09-.47.07-.46.03-.46.01-.46-.02-.46-.05-.46-.07-.46-.11-.46-.13-.46-.16-.47-.18-.46-.21-.46-.24-.46-.26-.46-.28-.46-.3-.46-.32-.46-.33-.46-.36-.46-.36-.47-.38-.46-.39-.46-.4-.46-.41-.46-.41-.46-.41-.46-.42-.46-.42-.46-.42-.47-.41-.46-.41-.46-.41-.46-.4-.46-.39-.46-.38-.46-.37-.46-.37-.46-.35-.47-.34-.46-.33-.46-.31-.46-.3-.46-.29-.46-.28-.46-.26-.46-.25-.46-.24-.46-.22-.47-.21-.46-.2-.46-.18-.46-.18-.46-.16-.46-.15-.46-.14-.46-.13-.46-.13-.47-.11-.46-.1-.46-.1-.46-.09-.46-.08-.46-.07-.46-.07-.46-.07-.46-.05-.46-.06-.47-.04-.46-.05-.46-.04-.46-.04-.46-.03-.46-.03-.46-.03-.46-.03-.46-.02-.47-.02-.46-.02-.46-.02-.46-.02-.46-.01-.46-.02-.46-.01-.46-.01-.46-.01-.46-.01-.47-.01-.46-.01-.46-.01-.46-.01-.46-.01h-.46l-.46-.01h-.46l-.46-.01-.47-.01h-.92l-.46-.01h-.46l-.46-.01h-1.38l-.46-.01h-1.39l-.46-.01h-3.23l-.46-.01h-3.69zm50.05-36.07h.27l.27-.01h.55l.27-.01h.28l.27-.01.28-.01.27-.01.27-.01.28-.01.27-.01.27-.01.28-.02.27-.01.27-.02.28-.02.27-.02.28-.03.27-.03.27-.03.28-.03.27-.04.27-.04.28-.04.27-.05.27-.05.28-.06.27-.06.28-.07.27-.07.27-.08.28-.08.27-.09.27-.1.28-.1.27-.11.28-.12.27-.13.27-.13.28-.14.27-.15.27-.16.28-.17.27-.18.27-.19.28-.19.27-.21.28-.21.27-.22.27-.23.28-.24.27-.25.27-.26.28-.27.27-.28.28-.28.27-.29.27-.3.28-.3.27-.32.27-.31.28-.33.27-.32.27-.33.28-.34.27-.34.28-.34.27-.34.27-.34.28-.34.27-.34.27-.33.28-.34.27-.33.27-.33.28-.32.27-.31.28-.31.27-.3.27-.29.28-.28.27-.28.27-.26.28-.25.27-.24.28-.22.27-.21.27-.2.28-.19.27-.17.27-.15.28-.14.27-.12.27-.11.28-.09.27-.07.28-.06.27-.04.27-.03h.28l.27.01.27.02.28.04.27.06.27.08.28.09.27.1.28.12.27.13.27.15.28.16.27.17.27.19.28.19.27.21.28.22.27.22.27.24.28.24.27.25.27.25.28.26.27.27.27.27.28.27.27.28.28.28.27.28.27.28.28.27.27.28.27.28.28.27.27.28.27.27.28.26.27.26.28.26.27.25.27.25.28.25.27.23.27.23.28.23.27.22.28.21.27.21.27.2.28.2.27.19.27.19.28.17.27.18.27.16.28.17.27.15.28.16.27.14.27.14.28.14.27.14.27.13.28.12.27.13.27.12.28.11.27.11.28.11.27.11.27.11.28.1.27.1.27.1.28.09.27.09.28.1.27.08.27.09.28.09.27.08.27.08.28.08.27.08.27.07.28.07.27.07.28.07.27.07.27.06.28.06.27.06.27.06.28.06.27.05.27.05.28.05.27.05.28.04.27.04.27.05.28.03.27.04.27.03.28.04.27.03.28.03.27.02.27.03.28.02.27.02.27.03.28.01.27.02.27.02.28.02.27.01.28.01.27.02.27.01.28.01.27.01.27.01.28.01h.27l.27.01.28.01h.27l.28.01h.27l.27.01h.55l.27.01h2.74l.27-.01h.55l.28-.01h.27l.27-.01h.28l.27-.01h.27l.28-.01.27-.01h.28l.27-.01.27-.01h.28l.27-.01.27-.01.28-.01h.27l.27-.01.28-.01h.27l.28-.01.27-.01h.27l.28-.01h.27l.27-.01h.28l.27-.01h.27l.28-.01h.82l.27-.01h2.19l.28.01h.82l.27.01h.55l.27.01h.28l.27.01h.55l.27.01.27.01h.28l.27.01h.27l.28.01h.27l.28.01.27.01.27.01h.28l.27.01.27.01h.28l.27.01.28.01.27.01.27.01.28.01h.27l.27.01.28.01.27.01.27.01.28.01.27.01.28.01.27.01.27.01.28.01.27.01.27.01h.28l.27.01.27.01.28.01.27.01.28.01.27.01.27.01.28.01h.27l.27.01.28.01.27.01.28.01h.27l.27.01.28.01h.27l.27.01h.28l.27.01h.27l.28.01h.27l.28.01h.27l.27.01h.55l.27.01h1.1l.27.01h4.38l.27-.01h.83l.27-.01h.55l.27-.01h.55l.27-.01h.27l.28-.01h.27l.28-.01h.27l.27-.01h.28l.27-.01h.27l.28-.01.27-.01h.28l.27-.01.27-.01h.28l.27-.01.27-.01h.28l.27-.01.27-.01.28-.01h.27l.28-.01h.27l.27-.01.28-.01h.27l.27-.01h.55l.27-.01h.55l.28-.01h2.46l.27.01h.55l.27.01h.55l.27.01h.28l.27.01.28.01h.27l.27.01.28.01h.27l.27.01.28.01h.27l.28.01.27.01h.27l.28.01.27.01h.27l.28.01.27.01h.27l.28.01h.27l.28.01h.27l.27.01h.28l.27.01h.27l.28.01h.27l.27.01h.55l.28.01h.82l.27.01h1.1l.27.01h2.46l.28.01h.82-1.37l-.28.01h-2.18l-.28.01h-1.09l-.28.01h-.54l-.28.01h-.55l-.27.01h-.55l-.27.01h-.27l-.28.01h-.27l-.27.01-.28.01h-.27l-.28.01h-.27l-.27.01-.28.01h-.27l-.27.01-.28.01h-.27l-.27.01-.28.01h-.27l-.28.01-.27.01h-.27l-.28.01-.27.01h-.27l-.28.01h-.27l-.28.01h-.27l-.27.01h-.28l-.27.01h-.55l-.27.01h-2.46l-.28-.01h-.55l-.27-.01h-.27l-.28-.01h-.27l-.27-.01h-.28l-.27-.01h-.27l-.28-.01-.27-.01h-.28l-.27-.01-.27-.01h-.28l-.27-.01-.27-.01h-.28l-.27-.01-.27-.01h-.28l-.27-.01-.28-.01h-.27l-.27-.01h-.28l-.27-.01-.27-.01h-.28l-.27-.01h-.55l-.27-.01h-.28l-.27-.01h-.55l-.27-.01h-1.1l-.27-.01h-4.65l-.28.01h-.82l-.27.01h-.55l-.27.01h-.27l-.28.01h-.55l-.27.01h-.27l-.28.01-.27.01h-.27l-.28.01-.27.01h-.27l-.28.01-.27.01-.28.01h-.27l-.27.01-.28.01-.27.01-.27.01-.28.01-.27.01-.28.01h-.27l-.27.01-.28.01-.27.01-.27.01-.28.01-.27.01-.27.01-.28.01-.27.01-.28.01-.27.01-.27.01-.28.01h-.27l-.27.01-.28.01-.27.01-.27.01-.28.01h-.27l-.28.01-.27.01-.27.01h-.28l-.27.01-.27.01h-.28l-.27.01-.28.01h-.27l-.27.01h-.28l-.27.01h-.27l-.28.01h-.27l-.27.01h-.28l-.27.01h-.55l-.27.01h-.82l-.28.01h-2.19l-.27-.01h-.55l-.27-.01h-.55l-.27-.01h-.28l-.27-.01h-.27l-.28-.01-.27-.01h-.27l-.28-.01h-.27l-.28-.01-.27-.01-.27-.01h-.28l-.27-.01-.27-.01h-.28l-.27-.01-.27-.01-.28-.01h-.27l-.28-.01h-.27l-.27-.01h-.28l-.27-.01h-.27l-.28-.01h-.27l-.28-.01h-3.28l-.27.01h-.28l-.27.01h-.27l-.28.01h-.27l-.28.01-.27.01h-.27l-.28.01-.27.01-.27.01-.28.01-.27.01-.27.02-.28.01-.27.01-.28.02-.27.02-.27.01-.28.02-.27.02-.27.03-.28.02-.27.03-.27.02-.28.03-.27.03-.28.03-.27.04-.27.04-.28.03-.27.04-.27.05-.28.04-.27.05-.28.05-.27.05-.27.05-.28.06-.27.05-.27.06-.28.07-.27.06-.27.07-.28.07-.27.07-.28.07-.27.07-.27.08-.28.08-.27.08-.27.08-.28.09-.27.08-.27.09-.28.09-.27.1-.28.09-.27.1-.27.1-.28.1-.27.11-.27.1-.28.11-.27.12-.28.11-.27.12-.27.13-.28.12-.27.13-.27.14-.28.13-.27.15-.27.14-.28.16-.27.15-.28.16-.27.17-.27.17-.28.18-.27.19-.27.19-.28.19-.27.21-.27.2-.28.22-.27.22-.28.22-.27.24-.27.23-.28.25-.27.24-.27.26-.28.25-.27.27-.28.26-.27.27-.27.27-.28.28-.27.28-.27.27-.28.28-.27.28-.27.28-.28.28-.27.28-.28.27-.27.27-.27.26-.28.27-.27.25-.27.25-.28.24-.27.24-.27.22-.28.22-.27.21-.28.19-.27.19-.27.17-.28.16-.27.15-.27.13-.28.12-.27.1-.28.09-.27.08-.27.05-.28.05-.27.02-.27.01-.28-.01-.27-.02-.27-.04-.28-.06-.27-.07-.28-.09-.27-.11-.27-.12-.28-.14-.27-.15-.27-.17-.28-.19-.27-.2-.27-.21-.28-.22-.27-.24-.28-.25-.27-.26-.27-.28-.28-.28-.27-.29-.27-.3-.28-.31-.27-.31-.28-.33-.27-.32-.27-.33-.28-.34-.27-.34-.27-.33-.28-.34-.27-.35-.27-.34-.28-.34-.27-.33-.28-.34-.27-.33-.27-.33-.28-.32-.27-.32-.27-.31-.28-.3-.27-.3-.27-.29-.28-.28-.27-.28-.28-.27-.27-.26-.27-.25-.28-.24-.27-.23-.27-.22-.28-.22-.27-.2-.28-.2-.27-.18-.27-.18-.28-.17-.27-.16-.27-.15-.28-.14-.27-.13-.27-.13-.28-.12-.27-.11-.28-.1-.27-.1-.27-.09-.28-.09-.27-.07-.27-.08-.28-.06-.27-.06-.28-.06-.27-.05-.27-.05-.28-.04-.27-.04-.27-.04-.28-.03-.27-.04-.27-.02-.28-.03-.27-.02-.28-.02-.27-.02-.27-.01-.28-.02-.27-.01-.27-.01-.28-.01-.27-.01-.27-.01-.28-.01-.27-.01h-.28l-.27-.01h-.27l-.28-.01h-.54zm-10.91-36.04h.67l.13-.01h.26l.14-.01h.26l.13-.01h.14l.13-.01.13-.01h.14l.13-.01.13-.01.13-.01.14-.01.13-.02.13-.01.13-.01.14-.02.13-.02.13-.02.13-.02.14-.02.13-.03.13-.02.14-.03.13-.03.13-.04.13-.03.14-.04.13-.04.13-.04.13-.05.14-.05.13-.05.13-.06.13-.06.14-.06.13-.06.13-.07.13-.07.14-.08.13-.08.13-.09.14-.09.13-.09.13-.1.13-.1.14-.11.13-.11.13-.11.13-.13.14-.12.13-.13.13-.14.13-.14.14-.15.13-.16.13-.16.14-.16.13-.17.13-.18.13-.18.14-.19.13-.2.13-.2.13-.21.14-.21.13-.22.13-.22.13-.24.14-.23.13-.25.13-.25.13-.25.14-.26.13-.26.13-.27.14-.27.13-.28.13-.28.13-.29.14-.29.13-.29.13-.29.13-.29.14-.3.13-.29.13-.3.13-.29.14-.3.13-.29.13-.29.14-.29.13-.28.13-.27.13-.28.14-.26.13-.26.13-.25.13-.25.14-.23.13-.22.13-.22.13-.2.14-.2.13-.18.13-.17.13-.16.14-.14.13-.13.13-.12.14-.1.13-.09.13-.08.13-.07.14-.05.13-.04.13-.02.13-.01h.14l.13.01.13.03.13.03.14.05.13.06.13.07.14.08.13.08.13.1.13.1.14.12.13.11.13.13.13.13.14.14.13.14.13.15.13.16.14.16.13.16.13.16.14.17.13.17.13.18.13.18.14.18.13.18.13.19.13.19.14.19.13.19.13.19.13.2.14.2.13.19.13.2.13.2.14.21.13.2.13.2.14.21.13.2.13.21.13.21.14.21.13.2.13.21.13.21.14.21.13.2.13.21.13.21.14.2.13.21.13.2.14.21.13.2.13.2.13.2.14.19.13.2.13.19.13.19.14.19.13.19.13.18.13.18.14.18.13.18.13.17.13.17.14.16.13.17.13.15.14.16.13.15.13.14.13.15.14.13.13.14.13.13.13.12.14.12.13.11.13.11.13.11.14.1.13.1.13.09.14.08.13.09.13.07.13.08.14.07.13.06.13.07.13.05.14.06.13.05.13.05.13.04.14.05.13.04.13.04.13.03.14.04.13.03.13.03.14.03.13.03.13.03.13.03.14.02.13.03.13.03.13.02.14.03.13.02.13.03.13.02.14.03.13.02.13.02.14.03.13.02.13.02.13.03.14.02.13.02.13.02.13.02.14.03.13.02.13.02.13.02.14.01.13.02.13.02.13.02.14.01.13.02.13.01.14.02.13.01.13.01.13.01.14.02.13.01.13.01h.13l.14.01.13.01.13.01h.13l.14.01.13.01h.27l.13.01h.13l.13.01h.4l.13.01h.8l.13.01h11.41l.13-.01h.93l.13-.01h.4l.13-.01h.27l.13-.01h.14l.13-.01h.13l.13-.01h.14l.13-.01.13-.01h.13l.14-.01.13-.01h.13l.13-.01.14-.01.13-.01.13-.01.13-.01.14-.01.13-.01.13-.01.14-.01.13-.01.13-.01.13-.01.14-.01.13-.01.13-.01.13-.01.14-.01h.13l.13-.01.13-.01.14-.01h.13l.13-.01h.14l.13-.01h.4l.13-.01h.13l.13.01h.4l.13.01h.14l.13.01.13.01h.13l.14.01.13.01.13.01.14.01h.13l.13.01.13.01.14.01.13.01.13.01.13.01.14.01.13.01.13.01.13.01.14.01.13.01.13.01.14.01.13.01.13.01h.13l.14.01.13.01h.13l.13.01h.14l.13.01h.13l.13.01h.14l.13.01h.26l.14.01h.4l.13.01h.93l.13.01h.26-.13l-.13.01h-.93l-.13.01h-.53l-.14.01h-.26l-.13.01h-.14l-.13.01h-.13l-.13.01h-.14l-.13.01h-.13l-.13.01-.14.01-.13.01h-.13l-.13.01-.14.01-.13.01-.13.01-.14.01-.13.01-.13.01-.13.01-.14.01-.13.01-.13.01-.13.01-.14.01-.13.01-.13.01-.13.01-.14.01h-.13l-.13.01-.14.01-.13.01h-.13l-.13.01h-.14l-.13.01h-.26l-.14.01h-.39l-.14-.01h-.26l-.13-.01h-.14l-.13-.01h-.13l-.14-.01-.13-.01h-.13l-.13-.01-.14-.01-.13-.01-.13-.01-.13-.01-.14-.01-.13-.01-.13-.01-.13-.01-.14-.01-.13-.01-.13-.01-.14-.01-.13-.01-.13-.01-.13-.01-.14-.01h-.13l-.13-.01-.13-.01-.14-.01h-.13l-.13-.01-.13-.01h-.14l-.13-.01h-.13l-.13-.01h-.27l-.13-.01h-.27l-.13-.01h-.4l-.13-.01h-1.06l-.14-.01h-10.87l-.14.01h-.92l-.14.01h-.39l-.14.01h-.26l-.13.01H694l-.13.01h-.13l-.14.01h-.13l-.13.01-.13.01-.14.01-.13.01-.13.01-.13.01-.14.01-.13.01-.13.01-.13.01-.14.02-.13.01-.13.02-.14.01-.13.02-.13.02-.13.02-.14.02-.13.01-.13.02-.13.03-.14.02-.13.02-.13.02-.13.02-.14.03-.13.02-.13.02-.13.02-.14.03-.13.02-.13.03-.14.02-.13.02-.13.03-.13.02-.14.03-.13.02-.13.03-.13.03-.14.02-.13.03-.13.03-.13.03-.14.03-.13.03-.13.03-.14.04-.13.03-.13.04-.13.04-.14.05-.13.04-.13.05-.13.05-.14.06-.13.06-.13.06-.13.06-.14.07-.13.08-.13.08-.13.08-.14.08-.13.1-.13.09-.14.1-.13.11-.13.11-.13.11-.14.12-.13.13-.13.12-.13.14-.14.13-.13.15-.13.14-.13.15-.14.16-.13.16-.13.16-.14.16-.13.17-.13.17-.13.18-.14.18-.13.18-.13.18-.13.19-.14.19-.13.19-.13.19-.13.2-.14.19-.13.2-.13.2-.13.21-.14.2-.13.2-.13.21-.14.2-.13.21-.13.21-.13.2-.14.21-.13.21-.13.21-.13.21-.14.2-.13.21-.13.21-.13.2-.14.21-.13.2-.13.2-.14.21-.13.2-.13.2-.13.2-.14.19-.13.2-.13.19-.13.19-.14.19-.13.19-.13.19-.13.18-.14.18-.13.18-.13.18-.13.17-.14.17-.13.16-.13.17-.14.15-.13.16-.13.15-.13.14-.14.14-.13.13-.13.13-.13.12-.14.11-.13.1-.13.1-.13.08-.14.08-.13.07-.13.06-.14.05-.13.03-.13.03-.13.01h-.14l-.13-.01-.13-.02-.13-.04-.14-.05-.13-.07-.13-.07-.13-.1-.14-.1-.13-.12-.13-.13-.14-.14-.13-.16-.13-.17-.13-.18-.14-.19-.13-.21-.13-.21-.13-.23-.14-.23-.13-.25-.13-.25-.13-.26-.14-.26-.13-.27-.13-.28-.13-.28-.14-.29-.13-.29-.13-.29-.14-.29-.13-.3-.13-.3-.13-.29-.14-.3-.13-.29-.13-.29-.13-.29-.14-.29-.13-.29-.13-.28-.13-.27-.14-.28-.13-.27-.13-.26-.14-.26-.13-.25-.13-.25-.13-.24-.14-.24-.13-.23-.13-.23-.13-.22-.14-.21-.13-.21-.13-.2-.13-.2-.14-.19-.13-.18-.13-.18-.13-.17-.14-.16-.13-.16-.13-.16-.14-.14-.13-.15-.13-.13-.13-.14-.14-.12-.13-.12-.13-.12-.13-.11-.14-.11-.13-.1-.13-.1-.13-.09-.14-.09-.13-.09-.13-.08-.14-.07-.13-.08-.13-.07-.13-.06-.14-.06-.13-.06-.13-.06-.13-.05-.14-.05-.13-.05-.13-.04-.13-.04-.14-.04-.13-.03-.13-.04-.13-.03-.14-.03-.13-.02-.13-.03-.14-.02-.13-.02-.13-.02-.13-.02-.14-.01-.13-.02-.13-.01-.13-.02-.14-.01-.13-.01-.13-.01h-.13l-.14-.01-.13-.01-.13-.01h-.14l-.13-.01h-.26l-.14-.01h-.39l-.14-.01h-.53zm-71.23-36.06h1.34l1.34-.01 1.34-.01h1.35l1.34-.01 1.34-.01 1.34-.02 1.34-.01 1.35-.02 1.34-.02 1.34-.02 1.34-.03 1.34-.03 1.34-.03 1.35-.04 1.34-.05 1.34-.05 1.34-.06 1.34-.06 1.35-.08 1.34-.08 1.34-.09 1.34-.11 1.34-.11 1.35-.13 1.34-.14 1.34-.16 1.34-.17 1.34-.18 1.34-.21 1.35-.22 1.34-.23 1.34-.26 1.34-.27 1.34-.3 1.35-.31 1.34-.33 1.34-.35 1.34-.37 1.34-.39 1.35-.41 1.34-.42 1.34-.44 1.34-.46 1.34-.47 1.34-.48 1.35-.49 1.34-.49 1.34-.51 1.34-.5 1.34-.51 1.35-.5 1.34-.5 1.34-.49 1.34-.48 1.34-.46 1.35-.45 1.34-.43 1.34-.41 1.34-.38 1.34-.35 1.34-.33 1.35-.29 1.34-.25 1.34-.22 1.34-.18 1.34-.15 1.35-.1 1.34-.06 1.34-.02 1.34.02 1.34.06 1.34.1 1.35.14 1.34.18 1.34.22 1.34.25 1.34.28 1.35.31 1.34.34 1.34.37 1.34.39 1.34.41 1.35.43 1.34.44 1.34.46 1.34.46 1.34.48 1.34.47 1.35.48 1.34.48 1.34.47 1.34.47 1.34.46 1.35.46 1.34.44 1.34.43 1.34.42 1.34.4 1.35.39 1.34.38 1.34.35 1.34.34 1.34.33 1.34.3 1.35.29 1.34.27 1.34.25 1.34.24 1.34.22 1.35.21 1.34.19 1.34.18 1.34.16 1.34.15 1.35.14 1.34.12 1.34.12 1.34.1 1.34.1 1.34.09 1.35.07 1.34.07 1.34.07 1.34.06 1.34.05 1.35.04 1.34.05 1.34.03 1.34.04 1.34.03 1.35.03 1.34.02 1.34.02 1.34.02 1.34.02 1.34.02 1.35.02 1.34.01 1.34.02 1.34.01 1.34.01 1.35.02 1.34.01 1.34.01 1.34.01 1.34.01 1.34.01 1.35.01 1.34.01 1.34.01 1.34.01 1.34.01 1.35.01 1.34.01 1.34.01 1.34.01 1.34.01h1.35l1.34.01 1.34.01h1.34l1.34.01 1.34.01h1.35l1.34.01h2.68l1.34.01h1.35l1.34.01h8.05l1.34.01h1.34l1.34-.01h6.71l1.35-.01h2.68l1.34-.01h2.69l1.34-.01h1.34l1.34-.01h1.34l1.34-.01 1.35-.01h1.34l1.34-.01 1.34-.01h1.34l1.35-.01h1.34l1.34-.01 1.34-.01h1.34l1.35-.01h1.34l1.34-.01 1.34-.01h2.68l1.35-.01h2.68l1.34-.01h8.05l1.34.01h2.69l1.34.01h1.34l1.34.01h1.35l1.34.01h1.34l1.34.01h1.34l1.35.01 1.34.01h1.34l1.34.01 1.34.01h1.34l1.35.01h1.34l1.34.01 1.34.01h1.34l1.35.01h1.34l1.34.01h1.34l1.34.01h1.35l1.34.01h2.68l1.34.01h4.03l1.34.01h8.05l1.34.01h181.16l1.34-.01h8.05l1.34-.01h4.03l1.34-.01h2.68l1.34-.01h1.35l1.34-.01h1.34l1.34-.01h1.34l1.34-.01h1.35l1.34-.01h1.34l1.34-.01 1.34-.01h1.35l1.34-.01 1.34-.01h1.34l1.34-.01 1.34-.01h1.35l1.34-.01h1.34l1.34-.01h1.34l1.35-.01h1.34l1.34-.01h2.68l1.35-.01h8.05l1.34.01h2.68l1.34.01h2.69l1.34.01 1.34.01h1.34l1.35.01h1.34l1.34.01 1.34.01h1.34l1.34.01 1.35.01h1.34l1.34.01h1.34l1.34.01 1.35.01h1.34l1.34.01h1.34l1.34.01h1.35l1.34.01h2.68l1.34.01h1.34l1.35.01h4.02l1.34.01h8.06l1.34.01h9.39-2.68l-1.35.01h-12.07l-1.34.01h-4.03l-1.34.01h-2.69l-1.34.01h-2.68l-1.34.01h-1.34l-1.35.01h-1.34l-1.34.01h-1.34l-1.34.01h-1.35l-1.34.01-1.34.01h-1.34l-1.34.01-1.35.01h-1.34l-1.34.01h-1.34l-1.34.01-1.34.01h-1.35l-1.34.01h-1.34l-1.34.01h-1.34l-1.35.01h-2.68l-1.34.01h-10.74l-1.34-.01h-2.68l-1.34-.01h-1.35l-1.34-.01h-1.34l-1.34-.01h-1.34l-1.35-.01-1.34-.01h-1.34l-1.34-.01-1.34-.01h-1.34l-1.35-.01-1.34-.01h-1.34l-1.34-.01h-1.34l-1.35-.01h-1.34l-1.34-.01h-1.34l-1.34-.01h-1.34l-1.35-.01h-1.34l-1.34-.01h-4.03l-1.34-.01h-4.02l-1.35-.01h-12.07l-1.34-.01H947.53l-1.34.01h-12.08l-1.34.01h-4.02l-1.35.01h-4.02l-1.34.01h-1.34l-1.35.01h-1.34l-1.34.01h-1.34l-1.34.01h-1.35l-1.34.01h-1.34l-1.34.01-1.34.01h-1.35l-1.34.01h-1.34l-1.34.01-1.34.01h-1.34l-1.35.01-1.34.01h-1.34l-1.34.01h-1.34l-1.35.01h-1.34l-1.34.01h-2.68l-1.35.01h-10.73l-1.34-.01h-2.69l-1.34-.01h-1.34l-1.34-.01h-1.34l-1.34-.01h-1.35l-1.34-.01-1.34-.01h-1.34l-1.34-.01h-1.35l-1.34-.01-1.34-.01h-1.34l-1.34-.01-1.35-.01h-1.34l-1.34-.01h-1.34l-1.34-.01h-1.34l-1.35-.01h-2.68l-1.34-.01h-2.69l-1.34-.01h-14.76l-1.34.01h-2.68l-1.35.01h-2.68l-1.34.01h-1.34l-1.35.01h-1.34l-1.34.01-1.34.01h-1.34l-1.34.01-1.35.01-1.34.01h-1.34l-1.34.01-1.34.01-1.35.01-1.34.01-1.34.01-1.34.01-1.34.01-1.35.01-1.34.01-1.34.01-1.34.01-1.34.01-1.34.02-1.35.01-1.34.01-1.34.02-1.34.01-1.34.02-1.35.01-1.34.02-1.34.02-1.34.02-1.34.02-1.34.03-1.35.03-1.34.03-1.34.03-1.34.04-1.34.04-1.35.05-1.34.05-1.34.06-1.34.06-1.34.07-1.35.08-1.34.08-1.34.1-1.34.1-1.34.12-1.34.12-1.35.14-1.34.15-1.34.17-1.34.17-1.34.19-1.35.21-1.34.22-1.34.24-1.34.25-1.34.27-1.35.29-1.34.31-1.34.32-1.34.34-1.34.36-1.34.37-1.35.39-1.34.4-1.34.42-1.34.43-1.34.45-1.35.45-1.34.46-1.34.47-1.34.48-1.34.47-1.35.48-1.34.48-1.34.47-1.34.47-1.34.45-1.34.44-1.35.43-1.34.41-1.34.39-1.34.37-1.34.34-1.35.32-1.34.28-1.34.25-1.34.21-1.34.18-1.35.14-1.34.1-1.34.06-1.34.02-1.34-.02-1.34-.06-1.35-.1-1.34-.14-1.34-.18-1.34-.22-1.34-.26-1.35-.29-1.34-.32-1.34-.36-1.34-.38-1.34-.4-1.34-.43-1.35-.45-1.34-.47-1.34-.48-1.34-.49-1.34-.5-1.35-.5-1.34-.51-1.34-.5-1.34-.5-1.34-.5-1.35-.49-1.34-.48-1.34-.47-1.34-.45-1.34-.44-1.34-.43-1.35-.4-1.34-.39-1.34-.37-1.34-.35-1.34-.34-1.35-.31-1.34-.29-1.34-.28-1.34-.25-1.34-.24-1.35-.22-1.34-.2-1.34-.19-1.34-.17-1.34-.15-1.34-.14-1.35-.13-1.34-.12-1.34-.1-1.34-.1-1.34-.08-1.35-.07-1.34-.07-1.34-.06-1.34-.05-1.34-.05-1.35-.04-1.34-.03-1.34-.03-1.34-.03-1.34-.02-1.34-.02-1.35-.02-1.34-.01-1.34-.01-1.34-.01-1.34-.01-1.35-.01-1.34-.01h-1.34l-1.34-.01zm70.02-36.04h.17l.17-.01h.51l.17-.01h.34l.17-.01h.17l.17-.01h.17l.17-.01h.17l.17-.01.17-.01h.17l.17-.01.17-.01.17-.01.17-.01.17-.01.17-.01.17-.01.17-.02.17-.01.17-.02.17-.01.16-.02.17-.02.17-.02.17-.02.17-.02.17-.03.17-.02.17-.03.17-.03.17-.03.17-.03.17-.03.17-.04.17-.03.17-.04.17-.04.17-.04.17-.05.17-.05.17-.05.17-.05.17-.05.17-.06.17-.06.17-.06.17-.06.17-.07.17-.06.17-.08.17-.07.17-.07.17-.08.16-.09.17-.08.17-.09.17-.09.17-.09.17-.09.17-.1.17-.1.17-.1.17-.11.17-.1.17-.11.17-.12.17-.11.17-.12.17-.12.17-.12.17-.13.17-.12.17-.13.17-.13.17-.14.17-.13.17-.14.17-.14.17-.14.17-.14.17-.15.17-.14.17-.15.17-.15.17-.15.16-.15.17-.15.17-.15.17-.16.17-.15.17-.16.17-.16.17-.16.17-.15.17-.16.17-.16.17-.16.17-.16.17-.16.17-.16.17-.16.17-.16.17-.16.17-.16.17-.15.17-.16.17-.16.17-.16.17-.15.17-.16.17-.15.17-.16.17-.15.17-.15.17-.15.17-.15.17-.15.16-.15.17-.14.17-.15.17-.14.17-.14.17-.14.17-.14.17-.14.17-.13.17-.14.17-.13.17-.13.17-.13.17-.13.17-.12.17-.13.17-.12.17-.12.17-.12.17-.12.17-.12.17-.11.17-.11.17-.11.17-.11.17-.11.17-.11.17-.1.17-.1.17-.1.17-.1.17-.1.16-.09.17-.1.17-.09.17-.09.17-.09.17-.08.17-.09.17-.08.17-.08.17-.07.17-.08.17-.07.17-.07.17-.07.17-.07.17-.06.17-.06.17-.06.17-.05.17-.05.17-.05.17-.04.17-.05.17-.03.17-.04.17-.03.17-.03.17-.02.17-.02.17-.02.17-.01.17-.01h.33l.17.01.17.01.17.01.17.02.17.02.17.03.17.03.17.04.17.04.17.05.17.05.17.06.17.06.17.06.17.07.17.07.17.08.17.09.17.08.17.09.17.1.17.1.17.1.17.11.17.11.17.11.17.12.17.12.17.12.17.13.17.13.16.13.17.14.17.13.17.14.17.14.17.15.17.14.17.15.17.15.17.14.17.15.17.16.17.15.17.15.17.16.17.15.17.15.17.16.17.15.17.16.17.15.17.16.17.15.17.15.17.16.17.15.17.15.17.15.17.15.17.15.17.15.17.14.16.15.17.14.17.14.17.14.17.14.17.14.17.14.17.13.17.13.17.13.17.13.17.13.17.12.17.13.17.12.17.12.17.11.17.12.17.11.17.11.17.1.17.11.17.1.17.1.17.1.17.09.17.09.17.09.17.09.17.08.17.08.17.08.16.07.17.08.17.07.17.06.17.07.17.06.17.06.17.06.17.05.17.05.17.05.17.05.17.05.17.04.17.04.17.04.17.04.17.03.17.04.17.03.17.03.17.03.17.03.17.03.17.03.17.02.17.03.17.03.17.02.17.03.17.02.17.03.17.02.16.03.17.02.17.03.17.02.17.03.17.03.17.03.17.03.17.03.17.03.17.03.17.03.17.04.17.04.17.03.17.04.17.04.17.04.17.04.17.04.17.05.17.04.17.05.17.05.17.05.17.04.17.05.17.05.17.06.17.05.17.05.17.05.16.06.17.05.17.05.17.06.17.05.17.05.17.06.17.05.17.05.17.06.17.05.17.05.17.05.17.05.17.05.17.05.17.04.17.05.17.04.17.05.17.04.17.04.17.04.17.04.17.04.17.04.17.04.17.03.17.03.17.04.17.03.17.03.16.03.17.02.17.03.17.03.17.02.17.02.17.03.17.02.17.02.17.02.17.02.17.02.17.02.17.02.17.01.17.02.17.02.17.01.17.02.17.01.17.02.17.01.17.02.17.02.17.01.17.02.17.01.17.02.17.01.17.02.17.01.17.02.16.01.17.02.17.02.17.01.17.02.17.02.17.01.17.02.17.02.17.01.17.02.17.02.17.02.17.01.17.02.17.02.17.02.17.02.17.01.17.02.17.02.17.02.17.01.17.02.17.02.17.01.17.02.17.02.17.01.17.02.17.01.17.02.16.01.17.02.17.01.17.01.17.02.17.01.17.01.17.01.17.02.17.01.17.01.17.01.17.01.17.01.17.01.17.01h.17l.17.01.17.01.17.01h.17l.17.01.17.01h.17l.17.01h.17l.17.01h.17l.17.01h.17l.17.01h.34l.16.01h.51l.17.01h.68l.17.01h1.19l.17.01h.34v.01h-1.02l-.17.01h-.85l-.17.01h-.68l-.17.01h-.33l-.17.01h-.34l-.17.01h-.17l-.17.01h-.17l-.17.01h-.17l-.17.01-.17.01h-.17l-.17.01-.17.01h-.17l-.17.01-.17.01-.17.01-.17.01-.17.01-.17.01-.17.01-.17.01-.17.01-.17.01-.17.01-.17.02-.17.01-.17.01-.17.02-.17.01-.17.01-.16.02-.17.01-.17.02-.17.01-.17.02-.17.02-.17.01-.17.02-.17.02-.17.01-.17.02-.17.02-.17.02-.17.01-.17.02-.17.02-.17.02-.17.01-.17.02-.17.02-.17.02-.17.01-.17.02-.17.02-.17.02-.17.01-.17.02-.17.02-.17.01-.17.02-.17.02-.17.01-.16.02-.17.01-.17.02-.17.01-.17.02-.17.02-.17.01-.17.02-.17.01-.17.02-.17.01-.17.02-.17.01-.17.02-.17.01-.17.02-.17.02-.17.01-.17.02-.17.02-.17.02-.17.02-.17.02-.17.02-.17.02-.17.02-.17.02-.17.03-.17.02-.17.03-.17.02-.17.03-.16.03-.17.03-.17.03-.17.03-.17.04-.17.03-.17.04-.17.03-.17.04-.17.04-.17.04-.17.04-.17.05-.17.04-.17.05-.17.04-.17.05-.17.05-.17.05-.17.05-.17.05-.17.05-.17.05-.17.05-.17.06-.17.05-.17.05-.17.06-.17.05-.17.05-.17.06-.17.05-.16.05-.17.06-.17.05-.17.05-.17.05-.17.05-.17.05-.17.05-.17.05-.17.05-.17.04-.17.05-.17.04-.17.04-.17.05-.17.04-.17.04-.17.03-.17.04-.17.04-.17.03-.17.03-.17.04-.17.03-.17.03-.17.03-.17.03-.17.03-.17.02-.17.03-.17.02-.17.03-.16.03-.17.02-.17.02-.17.03-.17.02-.17.03-.17.03-.17.02-.17.03-.17.03-.17.02-.17.03-.17.03-.17.03-.17.04-.17.03-.17.04-.17.04-.17.04-.17.04-.17.04-.17.05-.17.04-.17.05-.17.06-.17.05-.17.06-.17.06-.17.06-.17.06-.17.07-.17.07-.17.07-.16.08-.17.08-.17.08-.17.08-.17.09-.17.09-.17.09-.17.09-.17.1-.17.1-.17.1-.17.1-.17.11-.17.11-.17.11-.17.11-.17.12-.17.12-.17.12-.17.12-.17.13-.17.12-.17.13-.17.13-.17.14-.17.13-.17.14-.17.13-.17.14-.17.14-.17.15-.17.14-.16.14-.17.15-.17.15-.17.15-.17.15-.17.15-.17.15-.17.15-.17.15-.17.16-.17.15-.17.15-.17.16-.17.15-.17.16-.17.15-.17.16-.17.15-.17.15-.17.16-.17.15-.17.15-.17.15-.17.15-.17.15-.17.15-.17.14-.17.14-.17.14-.17.14-.17.14-.17.14-.16.13-.17.13-.17.12-.17.13-.17.12-.17.11-.17.12-.17.11-.17.11-.17.1-.17.1-.17.09-.17.09-.17.09-.17.08-.17.08-.17.08-.17.06-.17.07-.17.06-.17.06-.17.05-.17.04-.17.05-.17.03-.17.03-.17.03-.17.03-.17.01-.17.02-.17.01h-.17l-.16.01-.17-.01-.17-.01-.17-.01-.17-.01-.17-.02-.17-.03-.17-.02-.17-.04-.17-.03-.17-.04-.17-.04-.17-.04-.17-.05-.17-.05-.17-.06-.17-.06-.17-.06-.17-.06-.17-.06-.17-.07-.17-.07-.17-.07-.17-.08-.17-.08-.17-.08-.17-.08-.17-.08-.17-.09-.17-.09-.17-.09-.17-.09-.17-.09-.16-.1-.17-.09-.17-.1-.17-.1-.17-.1-.17-.11-.17-.1-.17-.11-.17-.11-.17-.11-.17-.11-.17-.12-.17-.11-.17-.12-.17-.12-.17-.12-.17-.13-.17-.12-.17-.13-.17-.12-.17-.13-.17-.13-.17-.14-.17-.13-.17-.14-.17-.13-.17-.14-.17-.14-.17-.14-.17-.15-.17-.14-.17-.15-.16-.14-.17-.15-.17-.15-.17-.15-.17-.15-.17-.16-.17-.15-.17-.15-.17-.16-.17-.16-.17-.15-.17-.16-.17-.16-.17-.16-.17-.16-.17-.16-.17-.15-.17-.16-.17-.16-.17-.16-.17-.16-.17-.16-.17-.16-.17-.16-.17-.16-.17-.16-.17-.15-.17-.16-.17-.15-.17-.16-.17-.15-.17-.15-.16-.16-.17-.15-.17-.14-.17-.15-.17-.15-.17-.14-.17-.14-.17-.15-.17-.13-.17-.14-.17-.14-.17-.13-.17-.13-.17-.13-.17-.13-.17-.12-.17-.12-.17-.12-.17-.12-.17-.12-.17-.11-.17-.11-.17-.11-.17-.1-.17-.11-.17-.09-.17-.1-.17-.1-.17-.09-.17-.09-.17-.08-.17-.09-.16-.08-.17-.08-.17-.07-.17-.08-.17-.07-.17-.07-.17-.06-.17-.07-.17-.06-.17-.06-.17-.05-.17-.06-.17-.05-.17-.05-.17-.04-.17-.05-.17-.04-.17-.04-.17-.04-.17-.04-.17-.03-.17-.04-.17-.03-.17-.03-.17-.03-.17-.02-.17-.03-.17-.02-.17-.02-.17-.03-.17-.02-.17-.01-.16-.02-.17-.02-.17-.01-.17-.02-.17-.01-.17-.01-.17-.01-.17-.02-.17-.01h-.17l-.17-.01-.17-.01-.17-.01-.17-.01h-.17l-.17-.01h-.17l-.17-.01h-.17l-.17-.01h-.34l-.17-.01h-.51l-.17-.01h-.34zm-3.99-36.05h.76l.38-.01h.75l.38-.01h.76l.38-.01h.37l.38-.01h.38l.38-.01.38-.01.38-.01h.37l.38-.01.38-.01.38-.01.38-.02.38-.01.37-.01.38-.02.38-.02.38-.02.38-.02.38-.02.37-.02.38-.03.38-.03.38-.03.38-.03.38-.03.37-.04.38-.04.38-.04.38-.05.38-.05.38-.05.37-.05.38-.06.38-.07.38-.06.38-.07.38-.08.38-.08.37-.08.38-.09.38-.1.38-.1.38-.1.38-.11.37-.12.38-.12.38-.12.38-.14.38-.13.38-.15.37-.15.38-.16.38-.16.38-.17.38-.18.38-.18.37-.19.38-.2.38-.2.38-.21.38-.21.38-.22.37-.23.38-.23.38-.24.38-.24.38-.25.38-.25.37-.26.38-.26.38-.27.38-.27.38-.27.38-.28.37-.27.38-.29.38-.28.38-.28.38-.29.38-.28.37-.29.38-.29.38-.28.38-.28.38-.28.38-.28.37-.28.38-.27.38-.26.38-.27.38-.25.38-.26.37-.24.38-.24.38-.23.38-.23.38-.21.38-.21.37-.2.38-.19.38-.19.38-.17.38-.16.38-.15.37-.14.38-.14.38-.12.38-.11.38-.1.38-.09.37-.07.38-.07.38-.06.38-.04.38-.04.38-.02.38-.01.37-.01.38.01.38.02.38.02.38.04.38.04.37.05.38.06.38.07.38.08.38.09.38.09.37.1.38.1.38.11.38.12.38.12.38.13.37.13.38.13.38.14.38.15.38.14.38.15.37.16.38.15.38.16.38.16.38.16.38.16.37.17.38.16.38.17.38.17.38.16.38.17.37.17.38.17.38.17.38.16.38.17.38.17.37.17.38.16.38.17.38.16.38.17.38.16.37.16.38.17.38.16.38.16.38.15.38.16.37.15.38.16.38.15.38.15.38.15.38.15.37.14.38.14.38.14.38.14.38.14.38.13.37.13.38.13.38.13.38.12.38.13.38.11.37.12.38.11.38.12.38.1.38.11.38.1.38.1.37.1.38.09.38.09.38.09.38.08.38.09.37.08.38.07.38.08.38.07.38.07.38.06.37.07.38.06.38.06.38.06.38.05.38.06.37.05.38.05.38.05.38.04.38.05.38.04.37.05.38.04.38.04.38.04.38.04.38.04.37.03.38.04.38.04.38.04.38.03.38.04.37.04.38.03.38.04.38.03.38.04.38.04.37.03.38.04.38.03.38.04.38.04.38.03.37.04.38.04.38.03.38.04.38.04.38.04.37.03.38.04.38.04.38.04.38.03.38.04.37.04.38.03.38.04.38.04.38.03.38.04.37.04.38.03.38.04.38.03.38.04.38.03.37.04.38.03.38.03.38.04.38.03.38.03.38.04.37.03.38.03.38.03.38.03.38.04.38.03.37.03.38.03.38.03.38.03.38.03.38.03.37.03.38.03.38.03.38.03.38.03.38.03.37.03.38.03.38.03.38.03.38.03.38.03.37.03.38.03.38.03.38.03.38.03.38.03.37.03.38.03.38.03.38.03.38.03.38.02.37.03.38.03.38.03.38.02.38.03.38.02.37.03.38.02.38.02.38.02.38.03.38.02.37.02.38.02.38.01.38.02.38.02.38.01.37.02.38.01.38.01.38.02.38.01.38.01.37.01.38.01h.38l.38.01.38.01h.75l.38.01h.76l.38.01h1.89l.38-.01h1.89l.38-.01h1.13l.38-.01h1.52l.37-.01h3.03l.38.01h1.13l.38.01h.38l.38.01h.38l.38.01h.37l.38.01h.38l.38.01.38.01h.38l.37.01.38.01.38.01.38.01.38.01.38.01.37.01.38.01.38.01.38.01.38.01.38.01.37.01.38.01.38.01.38.01.38.01.38.02.37.01.38.01.38.01.38.01.38.01.38.02.37.01.38.01.38.01.38.01.38.01.38.02.37.01.38.01.38.01.38.01.38.01.38.01.37.01.38.02.38.01.38.01.38.01.38.01.38.01.37.01h.38l.38.01.38.01.38.01.38.01.37.01.38.01h.38l.38.01.38.01.38.01h.37l.38.01.38.01h.38l.38.01h.38l.37.01h.38l.38.01h.38l.38.01h.38l.37.01h.76l.38.01h.76l.37.01h1.14l.38.01h1.51l.38.01h2.65l.38.01h3.78v.01h-4.16l-.38.01h-2.65l-.38.01h-1.51l-.38.01h-.76l-.37.01h-.76l-.38.01h-.76l-.37.01h-.38l-.38.01h-.38l-.38.01h-.38l-.37.01h-.38l-.38.01h-.38l-.38.01-.38.01h-.37l-.38.01-.38.01h-.38l-.38.01-.38.01-.37.01-.38.01-.38.01h-.38l-.38.01-.38.01-.37.01-.38.01-.38.01-.38.01-.38.01-.38.01-.38.01-.37.02-.38.01-.38.01-.38.01-.38.01-.38.01-.37.01-.38.01-.38.02-.38.01-.38.01-.38.01-.37.01-.38.01-.38.02-.38.01-.38.01-.38.01-.37.01-.38.01-.38.02-.38.01-.38.01-.38.01-.37.01-.38.01-.38.01-.38.01-.38.01-.38.01-.37.01-.38.01-.38.01-.38.01-.38.01-.38.01h-.37l-.38.01-.38.01-.38.01h-.38l-.38.01h-.37l-.38.01h-.38l-.38.01h-.76l-.37.01h-1.14l-.38.01h-2.27l-.38-.01h-1.89l-.38-.01h-1.13l-.38-.01h-1.51l-.38-.01h-2.27l-.38.01h-1.14l-.37.01h-.38l-.38.01-.38.01h-.38l-.38.01-.37.01-.38.01-.38.01-.38.01-.38.02-.38.01-.37.02-.38.01-.38.02-.38.02-.38.01-.38.02-.37.02-.38.02-.38.02-.38.03-.38.02-.38.02-.37.03-.38.02-.38.03-.38.02-.38.03-.38.03-.37.02-.38.03-.38.03-.38.03-.38.03-.38.03-.37.03-.38.02-.38.03-.38.03-.38.03-.38.03-.37.03-.38.03-.38.03-.38.03-.38.03-.38.03-.37.04-.38.03-.38.03-.38.03-.38.03-.38.03-.37.03-.38.03-.38.03-.38.03-.38.03-.38.03-.37.03-.38.03-.38.04-.38.03-.38.03-.38.03-.37.03-.38.04-.38.03-.38.03-.38.03-.38.04-.38.03-.37.04-.38.03-.38.04-.38.03-.38.04-.38.03-.37.04-.38.03-.38.04-.38.04-.38.03-.38.04-.37.04-.38.04-.38.03-.38.04-.38.04-.38.03-.37.04-.38.04-.38.04-.38.03-.38.04-.38.04-.37.04-.38.03-.38.04-.38.03-.38.04-.38.04-.37.03-.38.04-.38.04-.38.03-.38.04-.38.03-.37.04-.38.04-.38.03-.38.04-.38.04-.38.03-.37.04-.38.04-.38.04-.38.04-.38.04-.38.04-.37.05-.38.04-.38.05-.38.04-.38.05-.38.05-.37.05-.38.06-.38.05-.38.06-.38.06-.38.06-.37.07-.38.06-.38.07-.38.07-.38.08-.38.07-.37.08-.38.09-.38.08-.38.09-.38.09-.38.09-.37.1-.38.1-.38.1-.38.11-.38.1-.38.11-.38.12-.37.11-.38.12-.38.12-.38.13-.38.13-.38.12-.37.14-.38.13-.38.14-.38.14-.38.14-.38.14-.37.14-.38.15-.38.15-.38.15-.38.15-.38.15-.37.16-.38.16-.38.15-.38.16-.38.16-.38.16-.37.17-.38.16-.38.16-.38.17-.38.17-.38.16-.37.17-.38.17-.38.16-.38.17-.38.17-.38.17-.37.17-.38.17-.38.16-.38.17-.38.17-.38.16-.37.17-.38.16-.38.16-.38.16-.38.16-.38.15-.37.15-.38.15-.38.15-.38.15-.38.14-.38.13-.37.13-.38.13-.38.12-.38.12-.38.11-.38.1-.37.1-.38.09-.38.09-.38.08-.38.06-.38.07-.37.05-.38.04-.38.04-.38.02-.38.02-.38.01-.37-.01-.38-.01-.38-.03-.38-.03-.38-.05-.38-.05-.38-.07-.37-.08-.38-.08-.38-.1-.38-.11-.38-.13-.38-.13-.37-.14-.38-.15-.38-.16-.38-.18-.38-.18-.38-.19-.37-.2-.38-.21-.38-.21-.38-.23-.38-.23-.38-.24-.37-.25-.38-.25-.38-.26-.38-.26-.38-.26-.38-.28-.37-.27-.38-.28-.38-.28-.38-.28-.38-.29-.38-.28-.37-.29-.38-.28-.38-.29-.38-.28-.38-.29-.38-.28-.37-.28-.38-.27-.38-.28-.38-.27-.38-.26-.38-.26-.37-.26-.38-.25-.38-.25-.38-.25-.38-.23-.38-.24-.37-.22-.38-.22-.38-.22-.38-.2-.38-.21-.38-.19-.37-.19-.38-.18-.38-.18-.38-.17-.38-.16-.38-.16-.37-.15-.38-.15-.38-.14-.38-.13-.38-.12-.38-.13-.37-.11-.38-.11-.38-.11-.38-.1-.38-.09-.38-.09-.37-.08-.38-.08-.38-.08-.38-.07-.38-.07-.38-.06-.38-.06-.37-.05-.38-.06-.38-.04-.38-.05-.38-.04-.38-.04-.37-.04-.38-.03-.38-.04-.38-.03-.38-.02-.38-.03-.37-.02-.38-.02-.38-.02-.38-.02-.38-.02-.38-.02-.37-.01-.38-.01-.38-.02-.38-.01-.38-.01-.38-.01-.37-.01h-.38l-.38-.01-.38-.01h-.38l-.38-.01h-.37l-.38-.01h-.38l-.38-.01h-1.13l-.38-.01h-.76z" color="#000" shape-rendering="crispEdges"/><path fill="none" stroke="#000" d="M466.86 54.01V342.4h787.96V54.01H466.86Z" color="#000"/><text color="#000" font-family="Helvetica" font-size="12" text-anchor="middle" transform="translate(860.84 30.91)"><tspan>initially_uncached/1048576: Violin plot</tspan></text></svg>