<svg xmlns="http://www.w3.org/2000/svg" viewBox="0 0 1280 400"><path fill="none" d="M0 0h1280v400H0z"/><g fill="none" stroke="currentColor" color="#000"><path stroke="#000" d="M433.3 324.38h9"/><text fill="#000" stroke="none" font-family="Helvetica" font-size="12" text-anchor="end" transform="translate(424.91 328.28)"><tspan>with_memcache/copy_file_range/33554432</tspan></text></g><g fill="none" stroke="currentColor" color="#000"><path stroke="#000" d="M433.3 288.33h9"/><text fill="#000" stroke="none" font-family="Helvetica" font-size="12" text-anchor="end" transform="translate(424.91 292.23)"><tspan>with_memcache/mmap_rw_truncate/33554432</tspan></text></g><g fill="none" stroke="currentColor" color="#000"><path stroke="#000" d="M433.3 252.28h9"/><text fill="#000" stroke="none" font-family="Helvetica" font-size="12" text-anchor="end" transform="translate(424.91 256.18)"><tspan>with_memcache/mmap_read_only_truncate/33554432</tspan></text></g><g fill="none" stroke="currentColor" color="#000"><path stroke="#000" d="M433.3 216.23h9"/><text fill="#000" stroke="none" font-family="Helvetica" font-size="12" text-anchor="end" transform="translate(424.91 220.13)"><tspan>with_memcache/mmap_read_only_fallocate/33554432</tspan></text></g><g fill="none" stroke="currentColor" color="#000"><path stroke="#000" d="M433.3 180.18h9"/><text fill="#000" stroke="none" font-family="Helvetica" font-size="12" text-anchor="end" transform="translate(424.91 184.08)"><tspan>with_memcache/mmap_read_only/33554432</tspan></text></g><g fill="none" stroke="currentColor" color="#000"><path stroke="#000" d="M433.3 144.13h9"/><text fill="#000" stroke="none" font-family="Helvetica" font-size="12" text-anchor="end" transform="translate(424.91 148.03)"><tspan>with_memcache/buffered_readahead_tuned/33554432</tspan></text></g><g fill="none" stroke="currentColor" color="#000"><path stroke="#000" d="M433.3 108.08h9"/><text fill="#000" stroke="none" font-family="Helvetica" font-size="12" text-anchor="end" transform="translate(424.91 111.98)"><tspan>with_memcache/buffered_l1_tuned/33554432</tspan></text></g><g fill="none" stroke="currentColor" color="#000"><path stroke="#000" d="M433.3 72.03h9"/><text fill="#000" stroke="none" font-family="Helvetica" font-size="12" text-anchor="end" transform="translate(424.91 75.93)"><tspan>with_memcache/buffered/33554432</tspan></text></g><path fill="none" stroke="gray" stroke-dasharray="2,4" stroke-width=".5" d="M433.3 342.4V54.01" class="gridline" color="gray"/><g fill="none" stroke="currentColor" color="#000"><path stroke="#000" d="M433.3 342.4v-9"/><text fill="#000" stroke="none" font-family="Helvetica" font-size="12" text-anchor="middle" transform="translate(433.3 364.3)"><tspan> 0</tspan></text></g><path fill="none" stroke="gray" stroke-dasharray="2,4" stroke-width=".5" d="M558.45 342.4V54.01" class="gridline" color="gray"/><g fill="none" stroke="currentColor" color="#000"><path stroke="#000" d="M558.45 342.4v-9"/><text fill="#000" stroke="none" font-family="Helvetica" font-size="12" text-anchor="middle" transform="translate(558.45 364.3)"><tspan> 20</tspan></text></g><path fill="none" stroke="gray" stroke-dasharray="2,4" stroke-width=".5" d="M683.6 342.4V54.01" class="gridline" color="gray"/><g fill="none" stroke="currentColor" color="#000"><path stroke="#000" d="M683.6 342.4v-9"/><text fill="#000" stroke="none" font-family="Helvetica" font-size="12" text-anchor="middle" transform="translate(683.6 364.3)"><tspan> 40</tspan></text></g><path fill="none" stroke="gray" stroke-dasharray="2,4" stroke-width=".5" d="M808.75 342.4V54.01" class="gridline" color="gray"/><g fill="none" stroke="currentColor" color="#000"><path stroke="#000" d="M808.75 342.4v-9"/><text fill="#000" stroke="none" font-family="Helvetica" font-size="12" text-anchor="middle" transform="translate(808.75 364.3)"><tspan> 60</tspan></text></g><path fill="none" stroke="gray" stroke-dasharray="2,4" stroke-width=".5" d="M933.9 342.4V54.01" class="gridline" color="gray"/><g fill="none" stroke="currentColor" color="#000"><path stroke="#000" d="M933.9 342.4v-9"/><text fill="#000" stroke="none" font-family="Helvetica" font-size="12" text-anchor="middle" transform="translate(933.9 364.3)"><tspan> 80</tspan></text></g><path fill="none" stroke="gray" stroke-dasharray="2,4" stroke-width=".5" d="M1059.05 342.4V54.01" class="gridline" color="gray"/><g fill="none" stroke="currentColor" color="#000"><path stroke="#000" d="M1059.05 342.4v-9"/><text fill="#000" stroke="none" font-family="Helvetica" font-size="12" text-anchor="middle" transform="translate(1059.05 364.3)"><tspan> 100</tspan></text></g><path fill="none" stroke="gray" stroke-dasharray="2,4" stroke-width=".5" d="M1184.2 342.4V81.01m0-18v-9" class="gridline" color="gray"/><g fill="none" stroke="currentColor" color="#000"><path stroke="#000" d="M1184.2 342.4v-9"/><text fill="#000" stroke="none" font-family="Helvetica" font-size="12" text-anchor="middle" transform="translate(1184.2 364.3)"><tspan> 120</tspan></text></g><path fill="none" stroke="#000" d="M433.3 54.01V342.4h821.52V54.01H433.3Z" color="#000"/><text color="#000" font-family="Helvetica" font-size="12" text-anchor="middle" transform="rotate(-90 108.695 89.515)"><tspan>Input</tspan></text><text color="#000" font-family="Helvetica" font-size="12" text-anchor="middle" transform="translate(844.06 391.3)"><tspan>Average time (ms)</tspan></text><text color="#000" font-family="Helvetica" font-size="12" text-anchor="end" transform="translate(1187.09 75.91)"><tspan>PDF</tspan></text><path fill="#1F78B4" d="M1195.48 76.51h42.56v-9h-42.56zM453.32 324.33h.86l.86-.01h.86l.86-.01h.87l.86-.01.86-.01h.86l.86-.01.87-.01.86-.01.86-.01.86-.01.86-.01.87-.01.86-.01.86-.02.86-.01.87-.02.86-.02.86-.01.86-.02.86-.02.87-.02.86-.03.86-.02.86-.03.86-.02.87-.03.86-.03.86-.03.86-.04.86-.03.87-.04.86-.04.86-.04.86-.04.87-.05.86-.04.86-.05.86-.05.86-.05.87-.06.86-.06.86-.05.86-.07.86-.06.87-.07.86-.06.86-.07.86-.08.87-.07.86-.08.86-.08.86-.08.86-.08.87-.09.86-.08.86-.09.86-.09.86-.1.87-.09.86-.1.86-.09.86-.1.86-.1.87-.1.86-.11.86-.1.86-.1.87-.11.86-.1.86-.11.86-.1.86-.11.87-.11.86-.1.86-.11.86-.1.86-.1.87-.1.86-.11.86-.1.86-.09.86-.1.87-.1.86-.09.86-.09.86-.09.87-.08.86-.09.86-.08.86-.08.86-.07.87-.07.86-.07.86-.07.86-.06.86-.06.87-.05.86-.05.86-.05.86-.04.87-.04.86-.04.86-.03.86-.03.86-.02.87-.02.86-.02.86-.01.86-.01h.86l.87-.01.86.01h.86l.86.01.86.02.87.01.86.02.86.03.86.02.87.03.86.03.86.04.86.03.86.04.87.04.86.05.86.04.86.05.86.05.87.05.86.05.86.05.86.06.86.05.87.06.86.05.86.06.86.05.87.06.86.05.86.06.86.05.86.06.87.05.86.05.86.06.86.05.86.04.87.05.86.05.86.04.86.04.87.04.86.04.86.04.86.03.86.03.87.03.86.02.86.03.86.02.86.01.87.02.86.01.86.01h2.59l.86-.01.86-.01.86-.01.87-.01.86-.02.86-.03.86-.02.86-.03.87-.04.86-.03.86-.04.86-.05.86-.05.87-.05.86-.06.86-.05.86-.07.86-.06.87-.07.86-.08.86-.08.86-.08.87-.08.86-.09.86-.09.86-.09.86-.1.87-.1.86-.1.86-.11.86-.11.86-.12.87-.11.86-.12.86-.12.86-.13.86-.12.87-.13.86-.14.86-.13.86-.14.87-.14.86-.14.86-.14.86-.15.86-.14.87-.15.86-.15.86-.16.86-.15.86-.15.87-.16.86-.16.86-.16.86-.16.87-.16.86-.16.86-.16.86-.17.86-.16.87-.16.86-.17.86-.16.86-.17.86-.16.87-.17.86-.16.86-.16.86-.17.86-.16.87-.16.86-.16.86-.16.86-.16.87-.15.86-.16.86-.15.86-.15.86-.15.87-.15.86-.14.86-.14.86-.14.86-.14.87-.13.86-.13.86-.13.86-.13.86-.12.87-.12.86-.11.86-.11.86-.11.87-.1.86-.09.86-.1.86-.09.86-.08.87-.08.86-.07.86-.07.86-.06.86-.06.87-.06.86-.04.86-.04.86-.04.87-.03.86-.03.86-.02.86-.01.86-.01h.87l.86.01.86.01.86.02.86.02.87.03.86.04.86.04.86.04.86.06.87.06.86.06.86.07.86.08.87.08.86.09.86.1.86.1.86.1.87.11.86.12.86.12.86.12.86.13.87.14.86.14.86.14.86.15.86.15.87.15.86.16.86.16.86.17.87.17.86.17.86.17.86.18.86.18.87.18.86.19.86.18.86.19.86.19.87.19.86.19.86.19.86.19.87.2.86.19.86.2.86.19.86.19.87.2.86.19.86.2.86.19.86.19.87.19.86.19.86.19.86.19.86.19.87.18.86.19.86.18.86.18.87.18.86.17.86.18.86.17.86.17.87.17.86.17.86.16.86.16.86.16.87.15.86.16.86.15.86.14.86.15.87.14.86.14.86.14.86.13.87.13.86.13.86.13.86.12.86.12.87.11.86.12.86.11.86.11.86.1.87.1.86.1.86.1.86.09.87.1.86.08.86.09.86.08.86.08.87.08.86.08.86.07.86.07.86.07.87.07.86.06.86.06.86.06.86.06.87.06.86.05.86.05.86.05.87.05.86.05.86.04.86.05.86.04.87.04.86.03.86.04.86.04.86.03.87.03.86.03.86.04.86.02.86.03.87.03.86.02.86.03.86.02.87.03.86.02.86.02.86.02.86.02.87.02.86.02.86.01.86.02.86.02.87.01.86.02.86.01.86.01.87.02.86.01.86.01.86.01.86.01.87.01.86.01.86.01.86.01.86.01.87.01.86.01.86.01.86.01h.86l.87.01.86.01h.86l.86.01h.87l.86.01.86.01h.86l.86.01h1.73l.86.01h.86l.86.01h1.73l.86.01h1.72l.87.01h2.58l.87.01h4.31l.86.01h6.03l.86.01h10.35v.01h-8.62l-.86.01h-6.9l-.86.01h-4.31l-.86.01h-2.59l-.86.01h-2.59l-.86.01h-1.73l-.86.01h-.86l-.86.01h-.86l-.87.01h-.86l-.86.01h-.86l-.86.01h-.87l-.86.01-.86.01h-.86l-.87.01-.86.01h-.86l-.86.01-.86.01-.87.01-.86.01-.86.01-.86.01-.86.01-.87.01-.86.01-.86.01-.86.01-.86.02-.87.01-.86.01-.86.02-.86.01-.87.02-.86.01-.86.02-.86.02-.86.01-.87.02-.86.02-.86.02-.86.02-.86.03-.87.02-.86.02-.86.03-.86.02-.87.03-.86.03-.86.03-.86.03-.86.03-.87.03-.86.03-.86.04-.86.04-.86.03-.87.04-.86.05-.86.04-.86.04-.86.05-.87.05-.86.05-.86.05-.86.05-.87.06-.86.06-.86.06-.86.06-.86.06-.87.07-.86.07-.86.07-.86.07-.86.08-.87.08-.86.08-.86.08-.86.09-.86.09-.87.09-.86.09-.86.1-.86.1-.87.1-.86.11-.86.1-.86.11-.86.12-.87.11-.86.12-.86.13-.86.12-.86.13-.87.13-.86.13-.86.14-.86.14-.87.14-.86.15-.86.14-.86.16-.86.15-.87.15-.86.16-.86.16-.86.17-.86.16-.87.17-.86.17-.86.17-.86.18-.86.17-.87.18-.86.18-.86.18-.86.19-.87.18-.86.19-.86.19-.86.19-.86.19-.87.19-.86.19-.86.19-.86.2-.86.19-.87.2-.86.19-.86.2-.86.19-.86.19-.87.2-.86.19-.86.19-.86.19-.87.19-.86.19-.86.19-.86.19-.86.18-.87.18-.86.18-.86.18-.86.17-.86.17-.87.17-.86.17-.86.16-.86.16-.87.15-.86.15-.86.15-.86.15-.86.13-.87.14-.86.13-.86.12-.86.12-.86.12-.87.11-.86.1-.86.1-.86.1-.86.09-.87.08-.86.08-.86.07-.86.06-.87.06-.86.06-.86.04-.86.05-.86.03-.87.03-.86.02-.86.02-.86.01-.86.01h-.87l-.86-.01-.86-.01-.86-.02-.86-.03-.87-.03-.86-.03-.86-.05-.86-.04-.87-.06-.86-.05-.86-.07-.86-.07-.86-.07-.87-.08-.86-.08-.86-.09-.86-.09-.86-.1-.87-.1-.86-.11-.86-.11-.86-.11-.87-.12-.86-.12-.86-.13-.86-.12-.86-.14-.87-.13-.86-.14-.86-.14-.86-.14-.86-.14-.87-.15-.86-.15-.86-.15-.86-.15-.86-.16-.87-.15-.86-.16-.86-.16-.86-.16-.87-.16-.86-.16-.86-.17-.86-.16-.86-.16-.87-.17-.86-.16-.86-.17-.86-.16-.86-.16-.87-.17-.86-.16-.86-.16-.86-.17-.86-.16-.87-.16-.86-.16-.86-.16-.86-.16-.87-.15-.86-.16-.86-.15-.86-.16-.86-.15-.87-.15-.86-.14-.86-.15-.86-.14-.86-.14-.87-.14-.86-.14-.86-.13-.86-.14-.87-.13-.86-.12-.86-.13-.86-.12-.86-.12-.87-.11-.86-.12-.86-.11-.86-.1-.86-.11-.87-.1-.86-.1-.86-.09-.86-.09-.86-.09-.87-.08-.86-.08-.86-.08-.86-.07-.87-.07-.86-.07-.86-.06-.86-.06-.86-.06-.87-.05-.86-.05-.86-.04-.86-.05-.86-.03-.87-.04-.86-.03-.86-.02-.86-.03-.86-.02-.87-.01-.86-.01-.86-.01-.86-.01h-1.73l-.86.01h-.86l-.86.01-.87.02-.86.02-.86.02-.86.02-.86.02-.87.03-.86.03-.86.04-.86.03-.86.04-.87.04-.86.04-.86.04-.86.05-.87.05-.86.05-.86.05-.86.05-.86.05-.87.05-.86.06-.86.05-.86.06-.86.05-.87.06-.86.05-.86.06-.86.06-.87.05-.86.05-.86.06-.86.05-.86.05-.87.05-.86.05-.86.05-.86.04-.86.05-.87.04-.86.04-.86.03-.86.04-.86.03-.87.03-.86.03-.86.02-.86.02-.87.01-.86.02-.86.01h-.86l-.86.01h-.87l-.86-.01-.86-.01-.86-.01-.86-.02-.87-.02-.86-.02-.86-.03-.86-.03-.86-.04-.87-.04-.86-.04-.86-.05-.86-.05-.87-.05-.86-.06-.86-.06-.86-.07-.86-.07-.87-.07-.86-.07-.86-.08-.86-.08-.86-.08-.87-.09-.86-.09-.86-.09-.86-.09-.87-.1-.86-.09-.86-.1-.86-.1-.86-.1-.87-.11-.86-.1-.86-.1-.86-.11-.86-.1-.87-.11-.86-.1-.86-.11-.86-.11-.86-.1-.87-.1-.86-.11-.86-.1-.86-.1-.87-.11-.86-.1-.86-.09-.86-.1-.86-.1-.87-.09-.86-.09-.86-.1-.86-.08-.86-.09-.87-.09-.86-.08-.86-.08-.86-.08-.86-.08-.87-.07-.86-.07-.86-.08-.86-.06-.87-.07-.86-.06-.86-.06-.86-.06-.86-.06-.87-.06-.86-.05-.86-.05-.86-.05-.86-.04-.87-.05-.86-.04-.86-.04-.86-.04-.87-.04-.86-.03-.86-.04-.86-.03-.86-.03-.87-.03-.86-.02-.86-.03-.86-.02-.86-.02-.87-.03-.86-.02-.86-.02-.86-.01-.86-.02-.87-.02-.86-.01-.86-.01-.86-.02-.87-.01-.86-.01-.86-.01-.86-.01-.86-.01-.87-.01-.86-.01h-.86l-.86-.01-.86-.01h-.87l-.86-.01h-.86l-.86-.01h-.86zm100.88-36.02 1.4-.01h2.81l1.4-.01h1.41l1.4-.01h1.41l1.4-.01h1.4l1.41-.01 1.4-.01 1.41-.01 1.4-.01 1.4-.01 1.41-.01 1.4-.01 1.41-.02 1.4-.01 1.4-.02 1.41-.02 1.4-.02 1.41-.02 1.4-.02 1.4-.03 1.41-.03 1.4-.03 1.41-.03 1.4-.03 1.4-.04 1.41-.04 1.4-.05 1.41-.04 1.4-.05 1.4-.06 1.41-.06 1.4-.06 1.41-.07 1.4-.07 1.4-.07 1.41-.08 1.4-.09 1.41-.09 1.4-.09 1.41-.1 1.4-.11 1.4-.11 1.41-.12 1.4-.13 1.41-.13 1.4-.13 1.4-.15 1.41-.15 1.4-.16 1.41-.16 1.4-.17 1.4-.18 1.41-.19 1.4-.19 1.41-.2 1.4-.2 1.4-.22 1.41-.22 1.4-.22 1.41-.24 1.4-.24 1.4-.24 1.41-.26 1.4-.26 1.41-.26 1.4-.27 1.4-.27 1.41-.28 1.4-.28 1.41-.29 1.4-.29 1.4-.29 1.41-.3 1.4-.3 1.41-.3 1.4-.3 1.41-.3 1.4-.3 1.4-.3 1.41-.3 1.4-.3 1.41-.3 1.4-.29 1.4-.29 1.41-.28 1.4-.28 1.41-.28 1.4-.26 1.4-.27 1.41-.25 1.4-.25 1.41-.24 1.4-.23 1.4-.22 1.41-.21 1.4-.2 1.41-.19 1.4-.18 1.4-.16 1.41-.16 1.4-.14 1.41-.14 1.4-.12 1.4-.1 1.41-.1 1.4-.08 1.41-.07 1.4-.05 1.4-.05 1.41-.03 1.4-.02 1.41-.01 1.4.01 1.41.02 1.4.03 1.4.04 1.41.05 1.4.06 1.41.07 1.4.08 1.4.09 1.41.09 1.4.11 1.41.11 1.4.12 1.4.13 1.41.13 1.4.13 1.41.15 1.4.14 1.4.15 1.41.15 1.4.15 1.41.16 1.4.15 1.4.16 1.41.15 1.4.16 1.41.15 1.4.15 1.4.15 1.41.15 1.4.14 1.41.14 1.4.14 1.4.13 1.41.13 1.4.13 1.41.12 1.4.11 1.41.11 1.4.11 1.4.1 1.41.09 1.4.09 1.41.08 1.4.08 1.4.07 1.41.07 1.4.06 1.41.06 1.4.06 1.4.05 1.41.04 1.4.04 1.41.04 1.4.03 1.4.03 1.41.03 1.4.02 1.41.03 1.4.02 1.4.02 1.41.01 1.4.02 1.41.02 1.4.01 1.4.02 1.41.01 1.4.02 1.41.02 1.4.02 1.4.02 1.41.02 1.4.03 1.41.03 1.4.03 1.41.03 1.4.04 1.4.04 1.41.05 1.4.04 1.41.05 1.4.06 1.4.06 1.41.06 1.4.07 1.41.07 1.4.08 1.4.08 1.41.08 1.4.09 1.41.09 1.4.09 1.4.1 1.41.1 1.4.1 1.41.11 1.4.11 1.4.11 1.41.11 1.4.12 1.41.11 1.4.12 1.4.12 1.41.12 1.4.12 1.41.13 1.4.12 1.4.12 1.41.12 1.4.12 1.41.12 1.4.12 1.41.12 1.4.11 1.4.12 1.41.11 1.4.11 1.41.11 1.4.1 1.4.11 1.41.1 1.4.1 1.41.1 1.4.09 1.4.09 1.41.09 1.4.09 1.41.08 1.4.08 1.4.08 1.41.08 1.4.07 1.41.07 1.4.07 1.4.07 1.41.07 1.4.06 1.41.06 1.4.06 1.4.06 1.41.06 1.4.06 1.41.05 1.4.06 1.41.05 1.4.06 1.4.05 1.41.06 1.4.05 1.41.05 1.4.06 1.4.05 1.41.05 1.4.06 1.41.05 1.4.05 1.4.06 1.41.05 1.4.06 1.41.06 1.4.05 1.4.06 1.41.06 1.4.06 1.41.05 1.4.06 1.4.06 1.41.06 1.4.06 1.41.06 1.4.06 1.4.06 1.41.06 1.4.06 1.41.06 1.4.06 1.4.06 1.41.06 1.4.06 1.41.05 1.4.06 1.41.06 1.4.05 1.4.06 1.41.05 1.4.06 1.41.05 1.4.05 1.4.05 1.41.05 1.4.05 1.41.04 1.4.05 1.4.05 1.41.04 1.4.04 1.41.04 1.4.04 1.4.04 1.41.04 1.4.04 1.41.04 1.4.03 1.4.03 1.41.04 1.4.03 1.41.03 1.4.03 1.4.03 1.41.03 1.4.03 1.41.02 1.4.03 1.4.02 1.41.03 1.4.02 1.41.03 1.4.02 1.41.02 1.4.02 1.4.02 1.41.02 1.4.02 1.41.02 1.4.02 1.4.01 1.41.02 1.4.02 1.41.01 1.4.02 1.4.01 1.41.02 1.4.01 1.41.01 1.4.02 1.4.01 1.41.01 1.4.01 1.41.01 1.4.01 1.4.01 1.41.01 1.4.01 1.41.01h1.4l1.4.01 1.41.01h1.4l1.41.01h2.8l1.41.01h2.81l1.4.01h7.02l1.41-.01h4.21l1.4-.01h2.81l1.4-.01h1.41l1.4-.01h1.41l1.4-.01h1.4l1.41-.01 1.4-.01h1.41l1.4-.01 1.4-.01h1.41l1.4-.01 1.41-.01h1.4l1.4-.01 1.41-.01h1.4l1.41-.01h1.4l1.4-.01 1.41-.01h1.4l1.41-.01h1.4l1.41-.01h1.4l1.4-.01h4.22l1.4-.01h12.64l1.4.01h2.81l1.4.01h1.41l1.4.01h1.4l1.41.01h1.4l1.41.01h1.4l1.4.01 1.41.01 1.4.01h1.41l1.4.01 1.4.01 1.41.01h1.4l1.41.01 1.4.01 1.41.01h1.4l1.4.01 1.41.01 1.4.01 1.41.01h1.4l1.4.01 1.41.01 1.4.01h1.41l1.4.01 1.4.01h1.41l1.4.01 1.41.01h1.4l1.4.01h1.41l1.4.01h1.41l1.4.01h1.4l1.41.01h2.81l1.4.01h1.4l1.41.01h4.21l1.4.01h4.22l1.4.01h8.43l1.4.01h14.04v.01h-8.42l-1.41.01h-11.23l-1.4.01h-5.62l-1.41.01h-2.8l-1.41.01h-2.81l-1.4.01h-2.81l-1.4.01h-1.41l-1.4.01h-1.4l-1.41.01h-1.4l-1.41.01h-1.4l-1.4.01h-1.41l-1.4.01-1.41.01h-1.4l-1.4.01-1.41.01-1.4.01h-1.41l-1.4.01-1.4.01-1.41.01h-1.4l-1.41.01-1.4.01-1.4.01H1179l-1.4.01-1.41.01-1.4.01-1.41.01h-1.4l-1.4.01-1.41.01-1.4.01h-1.41l-1.4.01-1.4.01h-1.41l-1.4.01h-1.41l-1.4.01h-1.4l-1.41.01h-2.81l-1.4.01h-16.85l-1.4-.01h-2.81l-1.4-.01h-1.41l-1.4-.01h-1.41l-1.4-.01-1.41-.01h-1.4l-1.4-.01h-1.41l-1.4-.01-1.41-.01h-1.4l-1.4-.01-1.41-.01h-1.4l-1.41-.01-1.4-.01h-1.4l-1.41-.01-1.4-.01h-1.41l-1.4-.01h-1.4l-1.41-.01h-1.4l-1.41-.01h-1.4l-1.4-.01h-2.81l-1.41-.01h-14.04l-1.4.01h-2.81l-1.4.01h-1.41l-1.4.01h-1.41l-1.4.01-1.4.01-1.41.01h-1.4l-1.41.01-1.4.01-1.4.01-1.41.01-1.4.01-1.41.02-1.4.01-1.4.01-1.41.01-1.4.02-1.41.01-1.4.02-1.4.01-1.41.02-1.4.01-1.41.02-1.4.02-1.4.02-1.41.01-1.4.02-1.41.02-1.4.02-1.4.02-1.41.03-1.4.02-1.41.02-1.4.03-1.41.02-1.4.02-1.4.03-1.41.03-1.4.03-1.41.02-1.4.03-1.4.03-1.41.03-1.4.04-1.41.03-1.4.03-1.4.04-1.41.03-1.4.04-1.41.04-1.4.04-1.4.04-1.41.04-1.4.04-1.41.05-1.4.04-1.4.05-1.41.05-1.4.05-1.41.04-1.4.05-1.4.06-1.41.05-1.4.05-1.41.06-1.4.05-1.4.06-1.41.05-1.4.06-1.41.06-1.4.06-1.41.05-1.4.06-1.4.06-1.41.06-1.4.06-1.41.06-1.4.06-1.4.06-1.41.06-1.4.06-1.41.06-1.4.06-1.4.06-1.41.06-1.4.06-1.41.05-1.4.06-1.4.06-1.41.05-1.4.06-1.41.05-1.4.06-1.4.05-1.41.06-1.4.05-1.41.05-1.4.06-1.4.05-1.41.05-1.4.06-1.41.05-1.4.06-1.4.05-1.41.05-1.4.06-1.41.06-1.4.05-1.41.06-1.4.06-1.4.06-1.41.06-1.4.07-1.41.06-1.4.07-1.4.07-1.41.07-1.4.08-1.41.07-1.4.08-1.4.08-1.41.09-1.4.08-1.41.09-1.4.09-1.4.1-1.41.09-1.4.1-1.41.11-1.4.1-1.4.11-1.41.1-1.4.11-1.41.12-1.4.11-1.4.12-1.41.11-1.4.12-1.41.12-1.4.12-1.41.13-1.4.12-1.4.12-1.41.12-1.4.12-1.41.12-1.4.12-1.4.12-1.41.12-1.4.11-1.41.12-1.4.11-1.4.11-1.41.1-1.4.11-1.41.1-1.4.09-1.4.1-1.41.09-1.4.09-1.41.08-1.4.08-1.4.07-1.41.07-1.4.07-1.41.06-1.4.06-1.4.06-1.41.05-1.4.05-1.41.04-1.4.04-1.4.04-1.41.03-1.4.04-1.41.02-1.4.03-1.41.02-1.4.02-1.4.02-1.41.02-1.4.02-1.41.02-1.4.01-1.4.02-1.41.01-1.4.02-1.41.02-1.4.02-1.4.02-1.41.02-1.4.03-1.41.02-1.4.03-1.4.04-1.41.03-1.4.04-1.41.05-1.4.05-1.4.05-1.41.06-1.4.06-1.41.07-1.4.07-1.4.08-1.41.08-1.4.09-1.41.1-1.4.1-1.4.1-1.41.11-1.4.12-1.41.12-1.4.12-1.41.13-1.4.13-1.4.14-1.41.14-1.4.15-1.41.14-1.4.15-1.4.16-1.41.15-1.4.15-1.41.16-1.4.15-1.4.16-1.41.15-1.4.16-1.41.15-1.4.14-1.4.15-1.41.14-1.4.14-1.41.13-1.4.12-1.4.12-1.41.11-1.4.11-1.41.1-1.4.09-1.4.08-1.41.07-1.4.06-1.41.05-1.4.04-1.4.03-1.41.01-1.4.01-1.41-.01-1.4-.02-1.41-.03-1.4-.04-1.4-.06-1.41-.07-1.4-.08-1.41-.09-1.4-.11-1.4-.12-1.41-.13-1.4-.15-1.41-.15-1.4-.17-1.4-.18-1.41-.19-1.4-.2-1.41-.21-1.4-.22-1.4-.23-1.41-.24-1.4-.25-1.41-.25-1.4-.26-1.4-.27-1.41-.27-1.4-.28-1.41-.29-1.4-.29-1.4-.29-1.41-.3-1.4-.29-1.41-.3-1.4-.3-1.4-.31-1.41-.3-1.4-.3-1.41-.3-1.4-.3-1.41-.29-1.4-.29-1.4-.3-1.41-.28-1.4-.29-1.41-.27-1.4-.28-1.4-.27-1.41-.26-1.4-.26-1.41-.25-1.4-.25-1.4-.24-1.41-.23-1.4-.23-1.41-.22-1.4-.21-1.4-.21-1.41-.2-1.4-.19-1.41-.18-1.4-.18-1.4-.17-1.41-.17-1.4-.16-1.41-.15-1.4-.14-1.4-.14-1.41-.13-1.4-.12-1.41-.12-1.4-.12-1.4-.1-1.41-.1-1.4-.1-1.41-.09-1.4-.08-1.41-.08-1.4-.08-1.4-.07-1.41-.07-1.4-.06-1.41-.06-1.4-.05-1.4-.05-1.41-.05-1.4-.04-1.41-.04-1.4-.04-1.4-.04-1.41-.03-1.4-.03-1.41-.03-1.4-.02-1.4-.03-1.41-.02-1.4-.02-1.41-.02-1.4-.01-1.4-.02-1.41-.01-1.4-.02-1.41-.01-1.4-.01-1.4-.01-1.41-.01-1.4-.01h-1.41l-1.4-.01h-1.4l-1.41-.01h-1.4l-1.41-.01h-1.4l-1.41-.01h-2.8zm47.73-36.04.63-.01h2.51l.63-.01h1.89l.63-.01h1.25l.63-.01h.63l.63-.01h.63l.63-.01.63-.01h.62l.63-.01.63-.01.63-.01.63-.01.63-.01.62-.01.63-.01.63-.02.63-.01.63-.01.63-.02.63-.02.62-.02.63-.01.63-.02.63-.03.63-.02.63-.02.63-.03.62-.03.63-.03.63-.03.63-.03.63-.03.63-.04.63-.03.62-.04.63-.04.63-.05.63-.04.63-.05.63-.05.63-.05.62-.05.63-.05.63-.06.63-.06.63-.06.63-.07.63-.06.62-.07.63-.07.63-.07.63-.08.63-.07.63-.08.63-.08.62-.09.63-.08.63-.09.63-.09.63-.09.63-.09.62-.1.63-.1.63-.1.63-.1.63-.1.63-.1.63-.11.62-.11.63-.11.63-.11.63-.11.63-.12.63-.11.63-.12.62-.12.63-.11.63-.12.63-.13.63-.12.63-.12.63-.12.62-.13.63-.12.63-.13.63-.12.63-.13.63-.12.63-.13.62-.13.63-.12.63-.13.63-.13.63-.13.63-.12.63-.13.62-.13.63-.12.63-.13.63-.12.63-.13.63-.13.62-.12.63-.13.63-.12.63-.13.63-.12.63-.12.63-.13.62-.12.63-.12.63-.12.63-.13.63-.12.63-.12.63-.12.62-.12.63-.13.63-.12.63-.12.63-.12.63-.12.63-.13.62-.12.63-.12.63-.13.63-.12.63-.13.63-.12.63-.13.62-.13.63-.12.63-.13.63-.13.63-.13.63-.13.63-.13.62-.14.63-.13.63-.13.63-.14.63-.13.63-.14.63-.14.62-.13.63-.14.63-.14.63-.13.63-.14.63-.14.62-.13.63-.14.63-.13.63-.14.63-.13.63-.13.63-.13.62-.13.63-.12.63-.13.63-.12.63-.11.63-.12.63-.11.62-.11.63-.1.63-.1.63-.09.63-.09.63-.08.63-.08.62-.07.63-.07.63-.06.63-.05.63-.05.63-.04.63-.03.62-.03.63-.02.63-.01h1.26l.63.01.63.02.62.03.63.04.63.04.63.06.63.06.63.07.63.07.62.09.63.09.63.1.63.11.63.12.63.12.62.14.63.13.63.15.63.15.63.16.63.17.63.17.62.18.63.18.63.19.63.19.63.19.63.2.63.21.62.21.63.21.63.21.63.22.63.22.63.22.63.22.62.22.63.23.63.22.63.22.63.23.63.22.63.22.62.22.63.22.63.22.63.22.63.21.63.21.63.21.62.2.63.21.63.19.63.2.63.19.63.19.63.18.62.18.63.18.63.17.63.16.63.16.63.16.62.15.63.15.63.14.63.14.63.14.63.13.63.12.62.12.63.12.63.11.63.11.63.11.63.1.63.09.62.1.63.09.63.08.63.08.63.08.63.08.63.07.62.07.63.07.63.07.63.06.63.06.63.06.63.06.62.05.63.06.63.05.63.05.63.05.63.04.63.05.62.05.63.04.63.05.63.04.63.04.63.04.62.04.63.04.63.04.63.04.63.04.63.04.63.04.62.03.63.04.63.04.63.03.63.04.63.04.63.03.62.03.63.04.63.03.63.03.63.03.63.04.63.03.62.03.63.02.63.03.63.03.63.02.63.03.63.02.62.03.63.02.63.02.63.02.63.02.63.01.63.02.62.01.63.02.63.01.63.01.63.01.63.01.63.01.62.01h.63l.63.01h5.03l.63-.01h.63l.62-.01h.63l.63-.01.63-.01h.63l.63-.01.63-.01.62-.01.63-.01.63-.01h.63l.63-.01.63-.01.63-.01.62-.01.63-.01.63-.01.63-.01.63-.01h.63l.63-.01.62-.01.63-.01h.63l.63-.01h.63l.63-.01h.63l.62-.01h5.66l.63.01h.63l.63.01h.62l.63.01.63.01.63.01.63.01.63.01.63.01.62.01.63.01.63.02.63.01.63.02.63.02.63.01.62.02.63.02.63.02.63.02.63.02.63.02.63.02.62.03.63.02.63.02.63.03.63.02.63.03.63.02.62.03.63.02.63.03.63.03.63.02.63.03.63.03.62.02.63.03.63.02.63.03.63.03.63.02.62.03.63.02.63.03.63.02.63.02.63.03.63.02.62.02.63.02.63.03.63.02.63.02.63.02.63.02.62.01.63.02.63.02.63.02.63.01.63.02.63.01.62.02.63.01.63.01.63.02.63.01.63.01.63.01.62.01.63.01.63.01.63.01.63.01.63.01h.63l.62.01.63.01h.63l.63.01h.63l.63.01h.63l.62.01h.63l.63.01h1.26l.63.01h1.88l.63.01h3.14l.63.01h3.77v.01l-.63.01h-5.02l-.63.01h-1.89l-.63.01h-1.88l-.63.01H903l-.63.01h-.62l-.63.01h-.63l-.63.01h-.63l-.63.01-.63.01h-.62l-.63.01-.63.01-.63.01-.63.01h-.63l-.63.01-.62.02-.63.01-.63.01-.63.01-.63.01-.63.02-.63.01-.62.01-.63.02-.63.01-.63.02-.63.02-.63.01-.63.02-.62.02-.63.02-.63.02-.63.02-.63.02-.63.02-.63.02-.62.03-.63.02-.63.02-.63.03-.63.02-.63.03-.63.02-.62.03-.63.02-.63.03-.63.02-.63.03-.63.02-.62.03-.63.03-.63.02-.63.03-.63.03-.63.02-.63.03-.62.02-.63.03-.63.02-.63.03-.63.02-.63.03-.63.02-.62.02-.63.02-.63.03-.63.02-.63.02-.63.02-.63.02-.62.01-.63.02-.63.02-.63.01-.63.02-.63.01-.63.02-.62.01-.63.01-.63.01-.63.01-.63.01-.63.01h-.63l-.62.01-.63.01h-1.26l-.63.01h-4.4l-.63-.01h-.62l-.63-.01h-.63l-.63-.01h-.63l-.63-.01-.63-.01h-.62l-.63-.01-.63-.01-.63-.01-.63-.01h-.63l-.63-.01-.62-.01-.63-.01-.63-.01-.63-.01-.63-.01-.63-.01-.63-.01h-.62l-.63-.01-.63-.01-.63-.01h-.63l-.63-.01-.63-.01h-.62l-.63-.01h-1.26l-.63-.01h-2.51l-.63.01h-1.26l-.63.01-.62.01h-.63l-.63.01-.63.01-.63.02-.63.01-.63.01-.62.02-.63.01-.63.02-.63.02-.63.02-.63.02-.63.02-.62.02-.63.03-.63.02-.63.03-.63.02-.63.03-.63.03-.62.03-.63.03-.63.03-.63.03-.63.04-.63.03-.63.03-.62.04-.63.03-.63.04-.63.03-.63.04-.63.03-.63.04-.62.04-.63.04-.63.04-.63.03-.63.04-.63.04-.63.04-.62.04-.63.05-.63.04-.63.04-.63.04-.63.05-.62.05-.63.04-.63.05-.63.05-.63.05-.63.05-.63.05-.62.06-.63.06-.63.05-.63.07-.63.06-.63.06-.63.07-.62.07-.63.08-.63.07-.63.08-.63.08-.63.09-.63.09-.62.09-.63.1-.63.1-.63.1-.63.11-.63.11-.63.12-.62.12-.63.13-.63.13-.63.13-.63.14-.63.14-.63.15-.62.16-.63.15-.63.16-.63.17-.63.17-.63.18-.62.17-.63.19-.63.19-.63.19-.63.19-.63.2-.63.2-.62.21-.63.2-.63.22-.63.21-.63.21-.63.22-.63.22-.62.22-.63.23-.63.22-.63.22-.63.23-.63.22-.63.22-.62.23-.63.22-.63.22-.63.22-.63.21-.63.22-.63.21-.62.21-.63.2-.63.2-.63.2-.63.19-.63.19-.63.18-.62.18-.63.17-.63.16-.63.16-.63.16-.63.14-.63.14-.62.13-.63.13-.63.11-.63.11-.63.1-.63.1-.62.08-.63.08-.63.07-.63.06-.63.05-.63.05-.63.03-.62.03-.63.02-.63.02h-1.26l-.63-.01-.63-.02-.62-.03-.63-.03-.63-.04-.63-.05-.63-.05-.63-.07-.63-.06-.62-.07-.63-.08-.63-.09-.63-.08-.63-.1-.63-.1-.63-.1-.62-.11-.63-.11-.63-.11-.63-.12-.63-.12-.63-.12-.63-.13-.62-.12-.63-.13-.63-.13-.63-.14-.63-.13-.63-.13-.63-.14-.62-.14-.63-.13-.63-.14-.63-.14-.63-.13-.63-.14-.62-.14-.63-.13-.63-.14-.63-.14-.63-.13-.63-.13-.63-.14-.62-.13-.63-.13-.63-.13-.63-.13-.63-.13-.63-.13-.63-.13-.62-.13-.63-.12-.63-.13-.63-.12-.63-.13-.63-.12-.63-.12-.62-.13-.63-.12-.63-.12-.63-.12-.63-.13-.63-.12-.63-.12-.62-.12-.63-.12-.63-.13-.63-.12-.63-.12-.63-.12-.63-.13-.62-.12-.63-.12-.63-.12-.63-.13-.63-.12-.63-.13-.63-.12-.62-.13-.63-.12-.63-.13-.63-.12-.63-.13-.63-.13-.62-.12-.63-.13-.63-.13-.63-.13-.63-.12-.63-.13-.63-.13-.62-.12-.63-.13-.63-.13-.63-.12-.63-.13-.63-.12-.63-.13-.62-.12-.63-.12-.63-.13-.63-.12-.63-.12-.63-.12-.63-.12-.62-.12-.63-.11-.63-.12-.63-.11-.63-.11-.63-.12-.63-.1-.62-.11-.63-.11-.63-.1-.63-.11-.63-.1-.63-.1-.63-.1-.62-.09-.63-.09-.63-.1-.63-.09-.63-.08-.63-.09-.62-.08-.63-.08-.63-.08-.63-.08-.63-.07-.63-.08-.63-.07-.62-.06-.63-.07-.63-.06-.63-.06-.63-.06-.63-.06-.63-.05-.62-.06-.63-.05-.63-.05-.63-.04-.63-.05-.63-.04-.63-.04-.62-.04-.63-.04-.63-.03-.63-.04-.63-.03-.63-.03-.63-.03-.62-.02-.63-.03-.63-.02-.63-.03-.63-.02-.63-.02-.63-.02-.62-.02-.63-.01-.63-.02-.63-.01-.63-.02-.63-.01-.63-.01-.62-.01-.63-.01-.63-.01-.63-.01-.63-.01-.63-.01-.62-.01h-.63l-.63-.01h-.63l-.63-.01h-.63l-.63-.01h-.62l-.63-.01h-1.26l-.63-.01h-2.51l-.63-.01h-1.26zm-30.11-36.06h.94l.93-.01h2.81l.94-.01h.93l.94-.01h.93l.94-.01h.94l.93-.01.94-.01h.93l.94-.01.94-.01.93-.01.94-.01.93-.01.94-.01.93-.01.94-.02.94-.01.93-.02.94-.02.93-.01.94-.02.94-.02.93-.03.94-.02.93-.02.94-.03.94-.03.93-.03.94-.03.93-.03.94-.04.94-.04.93-.04.94-.04.93-.04.94-.05.94-.05.93-.05.94-.05.93-.06.94-.06.93-.06.94-.06.94-.07.93-.07.94-.07.93-.08.94-.08.94-.08.93-.08.94-.09.93-.09.94-.1.94-.09.93-.1.94-.11.93-.1.94-.11.94-.11.93-.12.94-.12.93-.12.94-.13.94-.13.93-.13.94-.13.93-.14.94-.14.93-.15.94-.14.94-.15.93-.16.94-.16.93-.15.94-.17.94-.16.93-.17.94-.17.93-.18.94-.18.94-.18.93-.18.94-.19.93-.18.94-.19.94-.2.93-.19.94-.2.93-.2.94-.21.94-.2.93-.21.94-.21.93-.21.94-.21.94-.22.93-.21.94-.22.93-.22.94-.22.93-.22.94-.22.94-.22.93-.22.94-.22.93-.22.94-.22.94-.22.93-.22.94-.21.93-.22.94-.21.94-.21.93-.21.94-.21.93-.2.94-.2.94-.19.93-.19.94-.19.93-.18.94-.17.94-.17.93-.17.94-.15.93-.16.94-.14.93-.14.94-.13.94-.12.93-.11.94-.11.93-.09.94-.09.94-.08.93-.07.94-.06.93-.05.94-.04.94-.03.93-.02.94-.01h.93l.94.01.94.01.93.03.94.04.93.05.94.06.94.06.93.08.94.09.93.09.94.11.93.11.94.12.94.13.93.13.94.15.93.15.94.15.94.17.93.17.94.17.93.18.94.19.94.18.93.2.94.2.93.2.94.2.94.2.93.21.94.21.93.21.94.21.94.21.93.22.94.21.93.21.94.21.94.21.93.21.94.2.93.2.94.21.93.19.94.2.94.19.93.19.94.19.93.18.94.17.94.18.93.17.94.16.93.16.94.16.94.15.93.15.94.14.93.14.94.13.94.13.93.12.94.12.93.11.94.11.94.11.93.1.94.1.93.09.94.08.93.09.94.08.94.07.93.07.94.07.93.06.94.07.94.05.93.06.94.05.93.05.94.04.94.04.93.04.94.04.93.04.94.03.94.03.93.03.94.03.93.03.94.02.94.03.93.02.94.03.93.02.94.02.93.02.94.02.94.02.93.02.94.03.93.02.94.02.94.02.93.02.94.02.93.03.94.02.94.03.93.02.94.03.93.03.94.03.94.03.93.03.94.03.93.04.94.03.94.04.93.03.94.04.93.04.94.04.94.04.93.05.94.04.93.05.94.04.93.05.94.05.94.05.93.05.94.05.93.05.94.06.94.05.93.06.94.05.93.06.94.05.94.06.93.05.94.06.93.06.94.05.94.06.93.06.94.06.93.05.94.06.94.05.93.06.94.06.93.05.94.05.93.06.94.05.94.05.93.05.94.05.93.05.94.05.94.05.93.04.94.05.93.04.94.05.94.04.93.04.94.04.93.04.94.03.94.04.93.03.94.04.93.03.94.03.94.03.93.03.94.02.93.03.94.02.94.02.93.02.94.02.93.02.94.02.93.01.94.02.94.01.93.01.94.02.93.01h.94l.94.01.93.01h.94l.93.01h.94l.94.01h6.55l.93-.01h1.88l.93-.01h1.87l.94-.01.93-.01h.94l.94-.01h.93l.94-.01h.93l.94-.01.94-.01h.93l.94-.01h.93l.94-.01h.94l.93-.01.94-.01h1.87l.94-.01h.93l.94-.01h1.87l.94-.01h8.42l.93.01h1.88l.93.01h.94l.93.01h.94l.94.01.93.01.94.01.93.01h.94l.94.01.93.01.94.01.93.02.94.01.94.01.93.01.94.02.93.01.94.01.94.02.93.01.94.02.93.01.94.02.93.01.94.02.94.02.93.01.94.02.93.01.94.02.94.02.93.01.94.02.93.02.94.01.94.02.93.02.94.01.93.02.94.02.94.01.93.02.94.01.93.02.94.01.94.01.93.02.94.01.93.02.94.01.93.01.94.01.94.01.93.02.94.01.93.01.94.01.94.01.93.01.94.01h.93l.94.01.94.01.93.01.94.01h.93l.94.01h.94l.93.01.94.01h.93l.94.01h1.87l.94.01h.93l.94.01h1.87l.94.01h2.8l.94.01h4.68l.94.01h8.42v.01l-.94.01h-8.42l-.94.01h-3.74l-.94.01h-2.8l-.94.01h-1.87l-.94.01h-1.87l-.93.01h-.94l-.94.01h-.93l-.94.01h-.93l-.94.01-.94.01h-.93l-.94.01-.93.01-.94.01h-.94l-.93.01-.94.01-.93.01-.94.01-.94.01-.93.01-.94.01-.93.01-.94.02-.94.01-.93.01-.94.01-.93.02-.94.01-.93.01-.94.02-.94.01-.93.02-.94.01-.93.02-.94.01-.94.02-.93.02-.94.01-.93.02-.94.01-.94.02-.93.02-.94.01-.93.02-.94.02-.94.01-.93.02-.94.02-.93.01-.94.02-.94.02-.93.01-.94.02-.93.01-.94.02-.93.01-.94.02-.94.01-.93.01-.94.02-.93.01-.94.01-.94.01-.93.01-.94.01-.93.01-.94.01-.94.01-.93.01-.94.01-.93.01H949l-.94.01-.93.01h-1.87l-.94.01h-1.87l-.94.01h-6.55l-.93-.01h-2.81l-.94-.01h-.93l-.94-.01h-.94l-.93-.01h-.94l-.93-.01h-.94l-.94-.01h-.93l-.94-.01-.93-.01h-.94l-.94-.01h-.93l-.94-.01-.93-.01h-.94l-.94-.01h-.93l-.94-.01h-.93l-.94-.01h-1.87l-.94-.01h-7.48l-.94.01h-1.87l-.94.01-.93.01h-.94l-.94.01-.93.01-.94.01-.93.02-.94.01-.94.01-.93.02-.94.02-.93.02-.94.02-.93.02-.94.02-.94.02-.93.03-.94.02-.93.03-.94.03-.94.03-.93.03-.94.03-.93.04-.94.03-.94.04-.93.04-.94.04-.93.04-.94.04-.94.04-.93.05-.94.04-.93.05-.94.05-.94.05-.93.05-.94.05-.93.05-.94.05-.94.05-.93.05-.94.06-.93.05-.94.06-.93.05-.94.06-.94.06-.93.05-.94.06-.93.06-.94.05-.94.06-.93.06-.94.05-.93.06-.94.06-.94.05-.93.06-.94.05-.93.06-.94.05-.94.05-.93.06-.94.05-.93.05-.94.05-.94.05-.93.04-.94.05-.93.05-.94.04-.93.04-.94.05-.94.04-.93.04-.94.04-.93.03-.94.04-.94.03-.93.04-.94.03-.93.03-.94.03-.94.03-.93.03-.94.02-.93.03-.94.03-.94.02-.93.02-.94.03-.93.02-.94.02-.94.02-.93.02-.94.02-.93.03-.94.02-.94.02-.93.02-.94.02-.93.02-.94.03-.93.02-.94.02-.94.03-.93.03-.94.03-.93.03-.94.03-.94.03-.93.04-.94.04-.93.04-.94.04-.94.04-.93.05-.94.05-.93.06-.94.05-.94.06-.93.07-.94.07-.93.07-.94.07-.94.08-.93.08-.94.09-.93.09-.94.1-.93.1-.94.1-.94.11-.93.12-.94.12-.93.12-.94.13-.94.13-.93.14-.94.14-.93.15-.94.15-.94.16-.93.16-.94.16-.93.17-.94.17-.94.18-.93.18-.94.19-.93.19-.94.19-.94.2-.93.19-.94.2-.93.21-.94.2-.93.21-.94.21-.94.21-.93.21-.94.21-.93.21-.94.22-.94.21-.93.21-.94.21-.93.2-.94.21-.94.2-.93.2-.94.2-.93.19-.94.19-.94.19-.93.18-.94.17-.93.17-.94.17-.94.15-.93.15-.94.15-.93.13-.94.13-.94.12-.93.11-.94.11-.93.09-.94.09-.93.07-.94.07-.94.06-.93.05-.94.04-.93.02-.94.02-.94.01h-.93l-.94-.01-.93-.02-.94-.03-.94-.04-.93-.05-.94-.06-.93-.07-.94-.08-.94-.09-.93-.1-.94-.1-.93-.11-.94-.13-.94-.12-.93-.14-.94-.15-.93-.15-.94-.15-.93-.17-.94-.17-.94-.17-.93-.18-.94-.19-.93-.19-.94-.19-.94-.2-.93-.2-.94-.21-.93-.21-.94-.21-.94-.21-.93-.22-.94-.21-.93-.22-.94-.22-.94-.22-.93-.22-.94-.22-.93-.22-.94-.22-.94-.22-.93-.22-.94-.22-.93-.22-.94-.22-.93-.21-.94-.22-.94-.21-.93-.21-.94-.21-.93-.21-.94-.2-.94-.21-.93-.2-.94-.2-.93-.19-.94-.2-.94-.19-.93-.19-.94-.18-.93-.18-.94-.18-.94-.18-.93-.18-.94-.17-.93-.17-.94-.16-.94-.17-.93-.16-.94-.15-.93-.16-.94-.15-.94-.14-.93-.15-.94-.14-.93-.14-.94-.13-.93-.14-.94-.12-.94-.13-.93-.12-.94-.12-.93-.12-.94-.11-.94-.11-.93-.11-.94-.1-.93-.1-.94-.1-.94-.09-.93-.09-.94-.09-.93-.08-.94-.08-.94-.08-.93-.08-.94-.07-.93-.07-.94-.07-.94-.06-.93-.06-.94-.06-.93-.06-.94-.05-.93-.05-.94-.05-.94-.05-.93-.04-.94-.04-.93-.04-.94-.04-.94-.04-.93-.03-.94-.03-.93-.03-.94-.03-.94-.03-.93-.02-.94-.03-.93-.02-.94-.02-.94-.02-.93-.02-.94-.01-.93-.02-.94-.01-.94-.02-.93-.01-.94-.01-.93-.01-.94-.01-.93-.01-.94-.01-.94-.01-.93-.01h-.94l-.93-.01h-.94l-.94-.01h-.93l-.94-.01h-.93l-.94-.01h-1.87l-.94-.01h-1.87zm-36.1-36.04h6.09l1.22-.01h3.65l1.22-.01h2.43l1.22-.01h1.22l1.21-.01h1.22l1.22-.01h1.22l1.22-.01 1.21-.01 1.22-.01 1.22-.01 1.22-.01 1.21-.01 1.22-.01 1.22-.01 1.22-.02 1.21-.01 1.22-.02 1.22-.01 1.22-.02 1.22-.02 1.21-.02 1.22-.02 1.22-.03 1.22-.02 1.21-.03 1.22-.02 1.22-.03 1.22-.03 1.21-.04 1.22-.03 1.22-.04 1.22-.03 1.21-.04 1.22-.05 1.22-.04 1.22-.04 1.22-.05 1.21-.05 1.22-.05 1.22-.06 1.22-.05 1.21-.06 1.22-.06 1.22-.06 1.22-.07 1.21-.06 1.22-.07 1.22-.08 1.22-.07 1.21-.08 1.22-.08 1.22-.08 1.22-.08 1.22-.09 1.21-.09 1.22-.1 1.22-.09 1.22-.1 1.21-.1 1.22-.11 1.22-.11 1.22-.11 1.21-.11 1.22-.12 1.22-.13 1.22-.12 1.22-.13 1.21-.14 1.22-.14 1.22-.14 1.22-.14 1.21-.16 1.22-.15 1.22-.16 1.22-.17 1.21-.17 1.22-.17 1.22-.18 1.22-.19 1.21-.19 1.22-.19 1.22-.2 1.22-.21 1.22-.21 1.21-.22 1.22-.22 1.22-.23 1.22-.23 1.21-.24 1.22-.24 1.22-.24 1.22-.26 1.21-.25 1.22-.26 1.22-.26 1.22-.27 1.22-.27 1.21-.27 1.22-.28 1.22-.27 1.22-.28 1.21-.28 1.22-.28 1.22-.27 1.22-.28 1.21-.28 1.22-.27 1.22-.27 1.22-.26 1.21-.26 1.22-.26 1.22-.25 1.22-.24 1.22-.23 1.21-.23 1.22-.22 1.22-.21 1.22-.19 1.21-.19 1.22-.17 1.22-.17 1.22-.15 1.21-.13 1.22-.12 1.22-.11 1.22-.09 1.21-.08 1.22-.07 1.22-.04 1.22-.04 1.22-.01h1.21l1.22.01 1.22.04 1.22.04 1.21.06 1.22.08 1.22.09 1.22.11 1.21.12 1.22.14 1.22.14 1.22.16 1.22.17 1.21.19 1.22.19 1.22.21 1.22.21 1.21.22 1.22.23 1.22.24 1.22.25 1.21.25 1.22.25 1.22.26 1.22.26 1.21.27 1.22.27 1.22.27 1.22.27 1.22.27 1.21.27 1.22.27 1.22.27 1.22.27 1.21.26 1.22.26 1.22.26 1.22.25 1.21.25 1.22.25 1.22.24 1.22.23 1.21.23 1.22.23 1.22.22 1.22.21 1.22.21 1.21.2 1.22.19 1.22.19 1.22.18 1.21.18 1.22.17 1.22.16 1.22.16 1.21.15 1.22.15 1.22.14 1.22.13 1.22.13 1.21.12 1.22.12 1.22.11 1.22.11 1.21.1 1.22.09 1.22.09 1.22.09 1.21.08 1.22.08 1.22.07 1.22.07 1.21.07 1.22.06 1.22.06 1.22.05 1.22.05 1.21.05 1.22.04 1.22.04 1.22.04 1.21.04 1.22.03 1.22.03 1.22.03 1.21.03 1.22.02 1.22.02 1.22.02 1.22.02 1.21.02 1.22.01 1.22.02 1.22.01 1.21.01 1.22.01 1.22.01 1.22.01 1.21.01 1.22.01 1.22.01 1.22.01h1.21l1.22.01 1.22.01 1.22.01 1.22.01 1.21.01 1.22.01 1.22.01 1.22.01 1.21.01 1.22.01 1.22.02 1.22.01 1.21.02 1.22.02 1.22.01 1.22.02 1.21.03 1.22.02 1.22.02 1.22.03 1.22.03 1.21.03 1.22.03 1.22.03 1.22.03 1.21.03 1.22.04 1.22.04 1.22.03 1.21.04 1.22.04 1.22.04 1.22.04 1.22.04 1.21.05 1.22.04 1.22.04 1.22.05 1.21.04 1.22.04 1.22.05 1.22.04 1.21.04 1.22.05 1.22.04 1.22.04 1.21.05 1.22.04 1.22.04 1.22.04 1.22.04 1.21.04 1.22.04 1.22.04 1.22.04 1.21.03 1.22.04 1.22.03 1.22.04 1.21.03 1.22.04 1.22.03 1.22.03 1.22.03 1.21.03 1.22.03 1.22.02 1.22.03 1.21.03 1.22.02 1.22.03 1.22.02 1.21.02 1.22.03 1.22.02 1.22.02 1.21.02 1.22.02 1.22.02 1.22.02 1.22.01 1.21.02 1.22.02 1.22.01 1.22.02 1.21.01 1.22.01 1.22.02 1.22.01 1.21.01 1.22.01 1.22.01 1.22.01 1.21.01 1.22.01 1.22.01 1.22.01 1.22.01h1.21l1.22.01 1.22.01h1.22l1.21.01h1.22l1.22.01h1.22l1.21.01h2.44l1.22.01h3.65l1.22.01H996l1.21-.01h3.66l1.21-.01h2.44l1.22-.01h2.43l1.22-.01h1.22l1.22-.01h1.21l1.22-.01h1.22l1.22-.01 1.21-.01h1.22l1.22-.01 1.22-.01h1.21l1.22-.01 1.22-.01h1.22l1.22-.01 1.21-.01 1.22-.01h1.22l1.22-.01 1.21-.01 1.22-.01h1.22l1.22-.01 1.21-.01h1.22l1.22-.01 1.22-.01h1.21l1.22-.01h1.22l1.22-.01h1.22l1.21-.01h1.22l1.22-.01h6.09l1.21-.01 1.22.01h6.09l1.22.01h1.22l1.21.01h1.22l1.22.01h1.22l1.21.01h1.22l1.22.01 1.22.01h1.21l1.22.01 1.22.01 1.22.01h1.22l1.21.01 1.22.01 1.22.01h1.22l1.21.01 1.22.01h1.22l1.22.01 1.21.01 1.22.01h1.22l1.22.01 1.22.01h1.21l1.22.01h1.22l1.22.01h1.21l1.22.01h1.22l1.22.01h2.43l1.22.01h1.22l1.21.01h3.66l1.22.01h4.87l1.21.01h9.74l1.22.01h4.87-2.43l-1.22.01h-10.96l-1.22.01h-4.87l-1.21.01h-3.66l-1.22.01h-2.43l-1.22.01h-2.43l-1.22.01h-1.22l-1.22.01h-1.21l-1.22.01h-1.22l-1.22.01-1.21.01h-1.22l-1.22.01-1.22.01h-1.22l-1.21.01-1.22.01h-1.22l-1.22.01-1.21.01-1.22.01h-1.22l-1.22.01-1.21.01-1.22.01h-1.22l-1.22.01-1.22.01h-1.21l-1.22.01-1.22.01h-1.22l-1.21.01-1.22.01h-2.44l-1.21.01h-1.22l-1.22.01h-3.65l-1.22.01h-4.87l-1.22-.01h-3.65l-1.22-.01h-2.43l-1.22-.01h-1.22l-1.22-.01-1.22-.01h-1.21l-1.22-.01h-1.22l-1.22-.01-1.21-.01-1.22-.01h-1.22l-1.22-.01-1.21-.01-1.22-.01h-1.22l-1.22-.01-1.21-.01h-1.22l-1.22-.01-1.22-.01-1.22-.01h-1.21l-1.22-.01-1.22-.01h-1.22l-1.21-.01h-1.22l-1.22-.01-1.22-.01h-1.21l-1.22-.01h-2.44l-1.21-.01h-1.22l-1.22-.01h-2.44l-1.21-.01H996l-1.22-.01H975.3l-1.22.01h-4.87l-1.22.01h-1.22l-1.22.01h-2.43l-1.22.01h-1.22l-1.21.01h-1.22l-1.22.01-1.22.01-1.21.01h-1.22l-1.22.01-1.22.01-1.22.01-1.21.01-1.22.01-1.22.01-1.22.01-1.21.01-1.22.01-1.22.02-1.22.01-1.21.01-1.22.02-1.22.01-1.22.02-1.21.02-1.22.02-1.22.01-1.22.02-1.22.02-1.21.02-1.22.02-1.22.02-1.22.03-1.21.02-1.22.02-1.22.03-1.22.02-1.21.03-1.22.03-1.22.02-1.22.03-1.21.03-1.22.03-1.22.03-1.22.04-1.22.03-1.21.03-1.22.04-1.22.03-1.22.04-1.21.03-1.22.04-1.22.04-1.22.04-1.21.04-1.22.04-1.22.04-1.22.04-1.22.04-1.21.05-1.22.04-1.22.04-1.22.05-1.21.04-1.22.04-1.22.05-1.22.04-1.21.05-1.22.04-1.22.04-1.22.05-1.21.04-1.22.04-1.22.04-1.22.04-1.22.04-1.21.04-1.22.04-1.22.03-1.22.04-1.21.03-1.22.03-1.22.04-1.22.03-1.21.02-1.22.03-1.22.03-1.22.02-1.22.02-1.21.03-1.22.02-1.22.02-1.22.01-1.21.02-1.22.02-1.22.01-1.22.01-1.21.01-1.22.02-1.22.01-1.22.01h-1.21l-1.22.01-1.22.01-1.22.01-1.22.01h-1.21l-1.22.01-1.22.01-1.22.01-1.21.01-1.22.01-1.22.01-1.22.01-1.21.01-1.22.01-1.22.02-1.22.01-1.21.02-1.22.02-1.22.02-1.22.02-1.22.02-1.21.03-1.22.03-1.22.03-1.22.03-1.21.04-1.22.04-1.22.04-1.22.04-1.21.05-1.22.05-1.22.05-1.22.06-1.22.06-1.21.07-1.22.07-1.22.07-1.22.08-1.21.08-1.22.09-1.22.09-1.22.09-1.21.11-1.22.1-1.22.11-1.22.12-1.21.12-1.22.13-1.22.13-1.22.14-1.22.15-1.21.15-1.22.16-1.22.16-1.22.17-1.21.18-1.22.18-1.22.19-1.22.19-1.21.2-1.22.21-1.22.21-1.22.22-1.22.23-1.21.23-1.22.23-1.22.24-1.22.25-1.21.25-1.22.25-1.22.26-1.22.26-1.21.27-1.22.26-1.22.27-1.22.27-1.21.27-1.22.27-1.22.27-1.22.27-1.22.27-1.21.27-1.22.26-1.22.26-1.22.26-1.21.25-1.22.24-1.22.24-1.22.23-1.21.22-1.22.21-1.22.21-1.22.19-1.21.19-1.22.17-1.22.16-1.22.15-1.22.13-1.21.12-1.22.11-1.22.09-1.22.08-1.21.06-1.22.05-1.22.03-1.22.01h-1.21l-1.22-.01-1.22-.04-1.22-.04-1.22-.07-1.21-.07-1.22-.1-1.22-.1-1.22-.13-1.21-.13-1.22-.15-1.22-.16-1.22-.18-1.21-.19-1.22-.19-1.22-.21-1.22-.22-1.21-.22-1.22-.24-1.22-.24-1.22-.25-1.22-.26-1.21-.26-1.22-.26-1.22-.27-1.22-.27-1.21-.28-1.22-.27-1.22-.28-1.22-.28-1.21-.28-1.22-.28-1.22-.27-1.22-.28-1.21-.27-1.22-.27-1.22-.26-1.22-.27-1.22-.26-1.21-.25-1.22-.25-1.22-.25-1.22-.24-1.21-.24-1.22-.23-1.22-.23-1.22-.22-1.21-.22-1.22-.21-1.22-.21-1.22-.2-1.22-.19-1.21-.19-1.22-.19-1.22-.18-1.22-.17-1.21-.17-1.22-.17-1.22-.16-1.22-.15-1.21-.15-1.22-.15-1.22-.14-1.22-.14-1.21-.14-1.22-.13-1.22-.12-1.22-.13-1.22-.11-1.21-.12-1.22-.11-1.22-.11-1.22-.11-1.21-.1-1.22-.1-1.22-.09-1.22-.1-1.21-.09-1.22-.08-1.22-.09-1.22-.08-1.22-.08-1.21-.08-1.22-.07-1.22-.07-1.22-.07-1.21-.07-1.22-.07-1.22-.06-1.22-.06-1.21-.06-1.22-.05-1.22-.06-1.22-.05-1.21-.05-1.22-.04-1.22-.05-1.22-.04-1.22-.05-1.21-.03-1.22-.04-1.22-.04-1.22-.03-1.21-.04-1.22-.03-1.22-.03-1.22-.02-1.21-.03-1.22-.02-1.22-.03-1.22-.02-1.21-.02-1.22-.02-1.22-.02-1.22-.01-1.22-.02-1.21-.01-1.22-.02-1.22-.01-1.22-.01-1.21-.01-1.22-.01-1.22-.01-1.22-.01-1.21-.01h-1.22l-1.22-.01-1.22-.01h-1.22l-1.21-.01h-1.22l-1.22-.01h-2.43l-1.22-.01h-4.87l-1.22-.01h-4.87zm1.52-36.04h2.54l1.26-.01h7.61l1.27-.01h2.53l1.27-.01h2.53l1.27-.01h1.27l1.27-.01h1.26l1.27-.01 1.27-.01 1.27-.01h1.26l1.27-.01 1.27-.01 1.27-.02 1.26-.01 1.27-.01 1.27-.02 1.27-.01 1.26-.02 1.27-.02 1.27-.02 1.27-.02 1.26-.03 1.27-.02 1.27-.03 1.27-.03 1.26-.03 1.27-.04 1.27-.04 1.27-.04 1.26-.04 1.27-.05 1.27-.05 1.27-.05 1.26-.06 1.27-.06 1.27-.06 1.27-.07 1.26-.07 1.27-.08 1.27-.08 1.27-.09 1.26-.09 1.27-.1 1.27-.1 1.27-.11 1.26-.11 1.27-.12 1.27-.13 1.27-.13 1.26-.14 1.27-.15 1.27-.15 1.27-.16 1.26-.17 1.27-.18 1.27-.18 1.27-.19 1.26-.2 1.27-.21 1.27-.21 1.27-.23 1.26-.23 1.27-.24 1.27-.24 1.27-.26 1.26-.26 1.27-.27 1.27-.28 1.27-.28 1.26-.29 1.27-.29 1.27-.3 1.27-.31 1.26-.31 1.27-.31 1.27-.32 1.27-.32 1.26-.32 1.27-.32 1.27-.33 1.27-.32 1.26-.33 1.27-.32 1.27-.32 1.27-.31 1.26-.32 1.27-.3 1.27-.3 1.27-.3 1.26-.29 1.27-.28 1.27-.27 1.27-.26 1.26-.25 1.27-.24 1.27-.23 1.27-.22 1.26-.2 1.27-.19 1.27-.18 1.27-.17 1.26-.14 1.27-.14 1.27-.12 1.27-.1 1.26-.09 1.27-.08 1.27-.06 1.27-.04 1.26-.03 1.27-.01h1.27l1.27.02 1.26.03 1.27.05 1.27.06 1.27.08 1.26.09 1.27.1 1.27.12 1.27.13 1.26.14 1.27.15 1.27.17 1.27.17 1.26.19 1.27.19 1.27.21 1.27.22 1.26.22 1.27.23 1.27.24 1.27.25 1.26.25 1.27.26 1.27.27 1.27.27 1.26.27 1.27.28 1.27.28 1.27.29 1.26.28 1.27.29 1.27.28 1.27.29 1.26.29 1.27.28 1.27.29 1.27.28 1.26.28 1.27.28 1.27.27 1.27.27 1.26.26 1.27.26 1.27.25 1.27.25 1.26.24 1.27.23 1.27.23 1.27.22 1.26.21 1.27.21 1.27.19 1.27.19 1.26.19 1.27.17 1.27.17 1.27.16 1.26.15 1.27.14 1.27.14 1.27.13 1.26.12 1.27.12 1.27.11 1.27.1 1.26.09 1.27.09 1.27.09 1.27.08 1.26.07 1.27.07 1.27.07 1.27.06 1.26.05 1.27.05 1.27.05 1.27.05 1.26.04 1.27.04 1.27.04 1.27.03 1.26.03 1.27.03 1.27.03 1.27.03 1.26.02 1.27.02 1.27.03 1.27.02 1.26.02 1.27.01 1.27.02 1.27.02 1.26.02 1.27.01 1.27.02 1.27.01 1.26.02 1.27.01 1.27.02 1.27.01 1.26.01 1.27.02 1.27.01 1.27.02 1.26.01 1.27.02 1.27.01 1.27.02 1.26.01 1.27.02 1.27.02 1.27.01 1.26.02 1.27.02 1.27.02 1.27.02 1.26.02 1.27.02 1.27.02 1.27.02 1.26.03 1.27.02 1.27.03 1.27.02 1.26.03 1.27.03 1.27.03 1.27.03 1.26.02 1.27.04 1.27.03 1.27.03 1.26.03 1.27.03 1.27.03 1.27.04 1.26.03 1.27.03 1.27.04 1.27.03 1.26.03 1.27.04 1.27.03 1.27.03 1.26.04 1.27.03 1.27.03 1.27.03 1.26.03 1.27.03 1.27.03 1.27.03 1.26.03 1.27.02 1.27.03 1.27.02 1.26.03 1.27.02 1.27.02 1.27.02 1.26.02 1.27.02 1.27.02 1.27.02 1.26.01 1.27.02 1.27.01 1.27.02 1.26.01 1.27.01 1.27.01 1.27.01 1.26.01 1.27.01 1.27.01 1.27.01h1.26l1.27.01h1.27l1.27.01h1.26l1.27.01h2.54l1.26.01h13.95l1.26-.01h2.54l1.27-.01h2.53l1.27-.01h2.53l1.27-.01h1.27l1.27-.01 1.26-.01h1.27l1.27-.01h1.27l1.26-.01 1.27-.01h1.27l1.27-.01 1.26-.01h1.27l1.27-.01 1.27-.01 1.26-.01h1.27l1.27-.01 1.27-.01h1.26l1.27-.01 1.27-.01h1.27l1.26-.01 1.27-.01h1.27l1.27-.01h1.26l1.27-.01h2.54l1.26-.01h3.81l1.26-.01h6.34l1.27.01h3.8l1.27.01h2.53l1.27.01h2.54l1.26.01h2.54l1.27.01h1.26l1.27.01h2.54l1.26.01h2.54l1.27.01h15.21l1.26-.01h3.81l1.26-.01h1.27l1.27-.01h2.53l1.27-.01h1.27l1.27-.01h2.53l1.27-.01h2.53l1.27-.01h5.07l1.27-.01h5.07l1.27.01h3.8l1.27.01h2.53l1.27.01h1.27l1.26.01h1.27l1.27.01h1.27l1.26.01 1.27.01h1.27l1.27.01 1.26.01h1.27l1.27.01 1.27.01 1.26.01h1.27l1.27.01 1.27.01h1.26l1.27.01 1.27.01h1.27l1.26.01 1.27.01h1.27l1.27.01h1.26l1.27.01h1.27l1.27.01h1.26l1.27.01h1.27l1.27.01h2.53l1.27.01h2.53l1.27.01h5.07l1.27.01h8.87l1.27.01h7.6l-1.26.01h-13.95l-1.26.01h-5.07l-1.27.01h-3.8l-1.27.01h-2.54l-1.26.01h-1.27l-1.27.01h-2.53l-1.27.01h-1.27l-1.27.01-1.26.01h-1.27l-1.27.01h-1.27l-1.26.01-1.27.01h-1.27l-1.27.01-1.26.01h-1.27l-1.27.01-1.27.01-1.26.01h-1.27l-1.27.01-1.27.01h-1.26l-1.27.01-1.27.01h-1.27l-1.26.01-1.27.01h-1.27l-1.27.01h-1.26l-1.27.01h-1.27l-1.27.01h-3.8l-1.27.01h-10.14l-1.26-.01h-3.81l-1.26-.01h-2.54l-1.27-.01h-2.53l-1.27-.01h-1.27l-1.26-.01h-2.54l-1.27-.01h-2.53l-1.27-.01h-3.8l-1.27-.01h-10.14l-1.27.01h-3.8l-1.27.01h-2.53l-1.27.01h-1.27l-1.26.01h-2.54l-1.27.01h-2.53l-1.27.01h-1.27l-1.26.01h-3.81l-1.26.01h-11.41l-1.27-.01h-2.53l-1.27-.01h-1.27l-1.27-.01h-1.26l-1.27-.01h-1.27l-1.27-.01h-1.26l-1.27-.01-1.27-.01h-1.27l-1.26-.01-1.27-.01h-1.27l-1.27-.01-1.26-.01-1.27-.01h-1.27l-1.27-.01-1.26-.01h-1.27l-1.27-.01-1.27-.01h-1.26l-1.27-.01-1.27-.01h-1.27l-1.26-.01h-1.27l-1.27-.01h-1.27l-1.26-.01h-2.54l-1.27-.01h-2.53l-1.27-.01h-5.07l-1.27-.01h-7.6l-1.27.01h-3.8l-1.27.01h-2.53l-1.27.01h-1.27l-1.27.01-1.26.01h-1.27l-1.27.01-1.27.01-1.26.01-1.27.01-1.27.01-1.27.01-1.26.02-1.27.01-1.27.01-1.27.02-1.26.02-1.27.01-1.27.02-1.27.02-1.26.02-1.27.02-1.27.02-1.27.03-1.26.02-1.27.03-1.27.02-1.27.03-1.26.03-1.27.02-1.27.03-1.27.03-1.26.03-1.27.03-1.27.04-1.27.03-1.26.03-1.27.03-1.27.04-1.27.03-1.26.03-1.27.04-1.27.03-1.27.03-1.26.04-1.27.03-1.27.03-1.27.03-1.26.04-1.27.03-1.27.03-1.27.03-1.26.03-1.27.03-1.27.03-1.27.02-1.26.03-1.27.03-1.27.02-1.27.03-1.26.02-1.27.02-1.27.02-1.27.02-1.26.03-1.27.02-1.27.01-1.27.02-1.26.02-1.27.02-1.27.01-1.27.02-1.26.02-1.27.01-1.27.02-1.27.01-1.26.02-1.27.01-1.27.02-1.27.01-1.26.01-1.27.02-1.27.01-1.27.02-1.26.01-1.27.02-1.27.01-1.27.02-1.26.01-1.27.02-1.27.02-1.27.02-1.26.02-1.27.02-1.27.02-1.27.02-1.26.03-1.27.02-1.27.03-1.27.03-1.26.03-1.27.04-1.27.03-1.27.04-1.26.05-1.27.04-1.27.05-1.27.05-1.26.06-1.27.06-1.27.06-1.27.07-1.26.08-1.27.07-1.27.09-1.27.09-1.26.1-1.27.1-1.27.11-1.27.11-1.26.12-1.27.13-1.27.14-1.27.15-1.26.15-1.27.16-1.27.16-1.27.18-1.26.18-1.27.19-1.27.2-1.27.2-1.26.22-1.27.22-1.27.22-1.27.24-1.26.24-1.27.24-1.27.26-1.27.25-1.26.27-1.27.27-1.27.27-1.27.27-1.26.28-1.27.28-1.27.29-1.27.28-1.26.29-1.27.29-1.27.29-1.27.28-1.26.29-1.27.28-1.27.28-1.27.28-1.26.27-1.27.27-1.27.27-1.27.26-1.26.25-1.27.25-1.27.24-1.27.23-1.26.23-1.27.21-1.27.21-1.27.2-1.26.18-1.27.18-1.27.16-1.27.16-1.26.14-1.27.13-1.27.11-1.27.11-1.26.09-1.27.07-1.27.06-1.27.05-1.26.03-1.27.02h-1.27l-1.27-.01-1.26-.03-1.27-.04-1.27-.06-1.27-.07-1.26-.09-1.27-.11-1.27-.12-1.27-.13-1.26-.15-1.27-.16-1.27-.18-1.27-.19-1.26-.21-1.27-.21-1.27-.23-1.27-.24-1.26-.26-1.27-.26-1.27-.27-1.27-.28-1.26-.29-1.27-.29-1.27-.3-1.27-.31-1.26-.31-1.27-.32-1.27-.32-1.27-.32-1.26-.32-1.27-.33-1.27-.32-1.27-.33-1.26-.32-1.27-.32-1.27-.32-1.27-.31-1.26-.31-1.27-.3-1.27-.3-1.27-.3-1.26-.29-1.27-.28-1.27-.28-1.27-.27-1.26-.26-1.27-.25-1.27-.25-1.27-.24-1.26-.23-1.27-.22-1.27-.22-1.27-.2-1.26-.2-1.27-.2-1.27-.18-1.27-.18-1.26-.16-1.27-.16-1.27-.16-1.27-.15-1.26-.14-1.27-.13-1.27-.13-1.27-.12-1.26-.11-1.27-.11-1.27-.1-1.27-.1-1.26-.09-1.27-.09-1.27-.08-1.27-.07-1.26-.08-1.27-.06-1.27-.07-1.27-.06-1.26-.06-1.27-.05-1.27-.05-1.27-.04-1.26-.05-1.27-.04-1.27-.04-1.27-.03-1.26-.03-1.27-.03-1.27-.03-1.27-.03-1.26-.02-1.27-.03-1.27-.02-1.27-.02-1.26-.01-1.27-.02-1.27-.01-1.27-.02-1.26-.01-1.27-.01-1.27-.01-1.27-.01-1.26-.01-1.27-.01-1.27-.01h-1.27l-1.26-.01h-1.27l-1.27-.01h-1.27l-1.26-.01h-2.54l-1.27-.01h-3.8l-1.27-.01h-8.87zm89.82-36.05.45-.01h2.65l.44-.01h1.33l.44-.01h.45l.44-.01h.89l.44-.01.44-.01h.44l.45-.01.44-.01h.44l.44-.01.45-.01.44-.01.44-.02.44-.01.45-.01.44-.02.44-.01.44-.02.45-.02.44-.02.44-.02.44-.03.45-.03.44-.02.44-.03.44-.04.45-.03.44-.04.44-.04.44-.04.45-.05.44-.04.44-.06.44-.05.45-.06.44-.06.44-.07.45-.07.44-.07.44-.08.44-.08.45-.09.44-.09.44-.1.44-.1.45-.11.44-.11.44-.12.44-.12.45-.13.44-.14.44-.14.44-.14.45-.15.44-.16.44-.17.44-.17.45-.17.44-.19.44-.19.44-.19.45-.2.44-.21.44-.21.44-.22.45-.22.44-.23.44-.23.44-.24.45-.24.44-.25.44-.25.45-.26.44-.26.44-.26.44-.27.45-.26.44-.27.44-.28.44-.27.45-.27.44-.28.44-.27.44-.28.45-.27.44-.27.44-.27.44-.27.45-.26.44-.27.44-.25.44-.26.45-.25.44-.24.44-.24.44-.23.45-.23.44-.22.44-.21.44-.21.45-.19.44-.19.44-.19.44-.17.45-.17.44-.15.44-.15.45-.14.44-.13.44-.13.44-.11.45-.11.44-.09.44-.09.44-.08.45-.07.44-.07.44-.06.44-.05.45-.04.44-.03.44-.03.44-.03.45-.02.44-.01.44-.01h.89l.44.01.44.01.44.01.45.01.44.02.44.01.44.02.45.02.44.03.44.02.44.02.45.02.44.02.44.03.45.02.44.02.44.01.44.02.45.02.44.01.44.02.44.01.45.01.44.01h.44l.44.01h.45l.44.01h1.77l.44-.01h.89l.44-.01h3.1l.44.01h.44l.44.01.45.01.44.02.44.02.45.02.44.02.44.03.44.04.45.03.44.05.44.04.44.05.45.06.44.06.44.07.44.07.45.08.44.08.44.09.44.1.45.1.44.1.44.12.44.11.45.13.44.13.44.13.44.14.45.15.44.15.44.15.44.16.45.17.44.16.44.18.44.18.45.18.44.18.44.19.45.19.44.19.44.2.44.2.45.2.44.2.44.2.44.21.45.2.44.2.44.21.44.2.45.21.44.2.44.2.44.2.45.2.44.2.44.19.44.2.45.19.44.18.44.19.44.18.45.18.44.17.44.17.44.17.45.16.44.16.44.15.44.15.45.15.44.14.44.13.45.14.44.12.44.13.44.11.45.12.44.11.44.1.44.1.45.1.44.09.44.09.44.08.45.08.44.08.44.07.44.07.45.07.44.06.44.06.44.06.45.05.44.05.44.05.44.04.45.05.44.04.44.04.44.03.45.04.44.03.44.03.44.03.45.03.44.03.44.03.45.03.44.02.44.03.44.03.45.02.44.03.44.02.44.02.45.03.44.02.44.03.44.02.45.03.44.02.44.02.44.03.45.03.44.02.44.03.44.02.45.03.44.03.44.02.44.03.45.03.44.03.44.03.44.03.45.03.44.03.44.03.44.03.45.03.44.03.44.03.45.03.44.03.44.04.44.03.45.03.44.03.44.04.44.03.45.03.44.03.44.04.44.03.45.03.44.03.44.04.44.03.45.03.44.03.44.04.44.03.45.03.44.03.44.03.44.03.45.03.44.03.44.03.44.03.45.03.44.03.44.03.44.03.45.03.44.03.44.02.45.03.44.03.44.02.44.03.45.02.44.03.44.02.44.02.45.03.44.02.44.02.44.02.45.02.44.02.44.01.44.02.45.02.44.02.44.01.44.02.45.01.44.01.44.02.44.01.45.01.44.01.44.01.44.01.45.01.44.01.44.01h.44l.45.01.44.01h.44l.45.01.44.01h.44l.44.01h.45l.44.01h.44l.44.01h.45l.44.01h.44l.44.01h.45l.44.01h.44l.44.01h.45l.44.01.44.01h.44l.45.01h.44l.44.01.44.01.45.01h.44l.44.01.44.01.45.01.44.01h.44l.44.01.45.01.44.01.44.01.45.01.44.01.44.01.44.01.45.01.44.01.44.01.44.01.45.01.44.01.44.01.44.01h.45l.44.01.44.01.44.01.45.01.44.01.44.01.44.01h.45l.44.01.44.01.44.01h.45l.44.01.44.01h.44l.45.01.44.01h.44l.44.01h.45l.44.01h.89l.44.01h.44l.44.01h.89l.44.01h1.33l.44.01h1.77l.44.01h3.1l.44.01h2.22v.01h-3.99l-.44.01h-2.21l-.44.01h-1.77l-.45.01h-.88l-.44.01h-.89l-.44.01h-.44l-.45.01h-.44l-.44.01h-.45l-.44.01h-.44l-.44.01h-.45l-.44.01-.44.01h-.44l-.45.01-.44.01h-.44l-.44.01-.45.01-.44.01-.44.01-.44.01h-.45l-.44.01-.44.01-.44.01-.45.01-.44.01-.44.01-.44.01-.45.01-.44.01-.44.01-.44.01-.45.01-.44.01-.44.01-.44.01-.45.01-.44.01h-.44l-.45.01-.44.01-.44.01-.44.01-.45.01-.44.01h-.44l-.44.01-.45.01-.44.01h-.44l-.44.01h-.45l-.44.01-.44.01h-.44l-.45.01h-.44l-.44.01h-.44l-.45.01h-.44l-.44.01h-.44l-.45.01h-.44l-.44.01h-.44l-.45.01h-.44l-.44.01-.44.01h-.45l-.44.01-.44.01h-.45l-.44.01-.44.01-.44.01-.45.01-.44.01-.44.01-.44.01-.45.01-.44.01-.44.01-.44.02-.45.01-.44.02-.44.01-.44.02-.45.01-.44.02-.44.02-.44.02-.45.02-.44.02-.44.02-.44.02-.45.02-.44.03-.44.02-.44.02-.45.03-.44.02-.44.03-.44.03-.45.02-.44.03-.44.03-.45.03-.44.02-.44.03-.44.03-.45.03-.44.03-.44.03-.44.03-.45.03-.44.03-.44.04-.44.03-.45.03-.44.03-.44.03-.44.04-.45.03-.44.03-.44.03-.44.04-.45.03-.44.03-.44.03-.44.04-.45.03-.44.03-.44.03-.44.04-.45.03-.44.03-.44.03-.44.03-.45.03-.44.04-.44.03-.45.03-.44.03-.44.03-.44.03-.45.03-.44.03-.44.03-.44.03-.45.02-.44.03-.44.03-.44.03-.45.02-.44.03-.44.03-.44.02-.45.03-.44.02-.44.03-.44.02-.45.03-.44.02-.44.02-.44.03-.45.02-.44.03-.44.02-.44.03-.45.02-.44.03-.44.02-.44.03-.45.02-.44.03-.44.03-.45.03-.44.03-.44.03-.44.04-.45.03-.44.04-.44.04-.44.04-.45.04-.44.05-.44.05-.44.05-.45.05-.44.06-.44.06-.44.06-.45.06-.44.07-.44.08-.44.07-.45.08-.44.09-.44.08-.44.1-.45.09-.44.1-.44.11-.44.11-.45.11-.44.12-.44.12-.44.13-.45.13-.44.14-.44.14-.45.15-.44.15-.44.15-.44.16-.45.16-.44.17-.44.17-.44.17-.45.18-.44.18-.44.18-.44.19-.45.19-.44.19-.44.2-.44.19-.45.2-.44.2-.44.21-.44.2-.45.2-.44.21-.44.2-.44.21-.45.2-.44.2-.44.21-.44.2-.45.2-.44.2-.44.19-.44.2-.45.19-.44.19-.44.18-.45.18-.44.18-.44.17-.44.17-.45.17-.44.16-.44.15-.44.15-.45.15-.44.14-.44.13-.44.13-.45.12-.44.12-.44.11-.44.11-.45.1-.44.09-.44.09-.44.09-.45.07-.44.08-.44.06-.44.07-.45.05-.44.05-.44.05-.44.04-.45.04-.44.03-.44.03-.44.03-.45.02-.44.02-.44.01-.45.01-.44.01-.44.01-.44.01h-2.22l-.44-.01h-1.33l-.44-.01h-2.65l-.45.01h-.44l-.44.01-.44.01-.45.01-.44.01-.44.01-.44.02-.45.01-.44.02-.44.02-.44.02-.45.02-.44.02-.44.02-.45.03-.44.02-.44.02-.44.02-.45.02-.44.02-.44.02-.44.02-.45.01-.44.01-.44.01h-.44l-.45.01-.44-.01-.44-.01-.44-.01-.45-.02-.44-.02-.44-.03-.44-.04-.45-.04-.44-.05-.44-.06-.44-.06-.45-.07-.44-.08-.44-.09-.44-.1-.45-.1-.44-.12-.44-.12-.44-.13-.45-.14-.44-.15-.44-.16-.45-.16-.44-.18-.44-.18-.44-.19-.45-.2-.44-.2-.44-.22-.44-.22-.45-.22-.44-.23-.44-.24-.44-.25-.45-.25-.44-.25-.44-.26-.44-.26-.45-.26-.44-.27-.44-.27-.44-.27-.45-.28-.44-.27-.44-.28-.44-.27-.45-.27-.44-.28-.44-.27-.44-.27-.45-.27-.44-.26-.44-.27-.44-.25-.45-.26-.44-.25-.44-.25-.45-.24-.44-.24-.44-.24-.44-.22-.45-.23-.44-.22-.44-.21-.44-.2-.45-.2-.44-.2-.44-.19-.44-.18-.45-.18-.44-.17-.44-.16-.44-.16-.45-.15-.44-.15-.44-.14-.44-.13-.45-.13-.44-.12-.44-.12-.44-.11-.45-.11-.44-.1-.44-.1-.44-.09-.45-.09-.44-.08-.44-.08-.44-.08-.45-.07-.44-.06-.44-.06-.45-.06-.44-.06-.44-.05-.44-.05-.45-.04-.44-.05-.44-.04-.44-.03-.45-.04-.44-.03-.44-.03-.44-.03-.45-.02-.44-.03-.44-.02-.44-.02-.45-.02-.44-.02-.44-.02-.44-.01-.45-.01-.44-.02-.44-.01-.44-.01-.45-.01-.44-.01-.44-.01h-.44l-.45-.01-.44-.01h-.44l-.44-.01h-.45l-.44-.01h-.44l-.45-.01h-1.32l-.45-.01h-1.77l-.44-.01h-1.33zm-42.37-36.06h3.29l.55-.01h1.1l.54-.01h1.1l.55-.01h.55l.55-.01h.55l.55-.01h.54l.55-.01.55-.01h.55l.55-.01.55-.01.55-.01.55-.01.54-.01.55-.01.55-.02.55-.01.55-.01.55-.02.55-.02.55-.01.54-.02.55-.02.55-.02.55-.02.55-.02.55-.03.55-.02.55-.03.54-.03.55-.02.55-.03.55-.03.55-.04.55-.03.55-.03.55-.04.55-.04.54-.03.55-.04.55-.04.55-.04.55-.05.55-.04.55-.04.55-.05.54-.04.55-.05.55-.05.55-.05.55-.04.55-.05.55-.05.55-.05.54-.06.55-.05.55-.05.55-.05.55-.05.55-.06.55-.05.55-.05.54-.05.55-.06.55-.05.55-.05.55-.06.55-.05.55-.05.55-.06.55-.05.54-.05.55-.05.55-.06.55-.05.55-.05.55-.05.55-.06.55-.05.54-.05.55-.05.55-.06.55-.05.55-.05.55-.06.55-.05.55-.05.54-.06.55-.05.55-.06.55-.06.55-.05.55-.06.55-.06.55-.06.54-.06.55-.06.55-.07.55-.06.55-.07.55-.07.55-.07.55-.07.54-.07.55-.08.55-.07.55-.08.55-.08.55-.09.55-.09.55-.09.55-.09.54-.09.55-.1.55-.11.55-.1.55-.11.55-.11.55-.12.55-.12.54-.13.55-.13.55-.13.55-.14.55-.14.55-.15.55-.15.55-.16.54-.16.55-.16.55-.17.55-.18.55-.18.55-.18.55-.19.55-.19.54-.19.55-.2.55-.21.55-.2.55-.21.55-.21.55-.22.55-.21.55-.22.54-.22.55-.22.55-.22.55-.22.55-.22.55-.22.55-.22.55-.22.54-.22.55-.21.55-.21.55-.21.55-.21.55-.2.55-.19.55-.2.54-.18.55-.18.55-.18.55-.17.55-.16.55-.16.55-.15.55-.15.54-.13.55-.13.55-.12.55-.12.55-.11.55-.09.55-.1.55-.08.54-.08.55-.07.55-.06.55-.05.55-.05.55-.04.55-.03.55-.03.55-.02.54-.01.55-.01h.55l.55.01.55.01.55.02.55.02.55.03.54.03.55.04.55.04.55.05.55.05.55.06.55.06.55.07.54.06.55.08.55.07.55.08.55.08.55.09.55.09.55.09.54.09.55.1.55.1.55.1.55.1.55.11.55.11.55.11.55.11.54.12.55.12.55.12.55.12.55.13.55.12.55.13.55.13.54.14.55.13.55.14.55.13.55.15.55.14.55.14.55.15.54.15.55.15.55.15.55.15.55.15.55.16.55.16.55.16.54.16.55.16.55.16.55.17.55.16.55.17.55.17.55.17.54.17.55.17.55.17.55.17.55.17.55.17.55.18.55.17.55.17.54.17.55.17.55.17.55.17.55.17.55.16.55.17.55.16.54.16.55.16.55.16.55.16.55.15.55.16.55.15.55.15.54.14.55.14.55.14.55.14.55.13.55.14.55.12.55.13.54.12.55.12.55.12.55.11.55.11.55.11.55.1.55.11.55.09.54.1.55.09.55.09.55.09.55.08.55.09.55.08.55.07.54.08.55.07.55.07.55.07.55.06.55.06.55.06.55.06.54.06.55.05.55.06.55.05.55.05.55.05.55.04.55.05.54.04.55.04.55.04.55.04.55.04.55.03.55.04.55.03.54.03.55.03.55.03.55.03.55.03.55.02.55.03.55.02.55.02.54.02.55.02.55.02.55.02.55.02.55.01.55.02.55.01.54.01.55.01.55.01.55.01.55.01.55.01h.55l.55.01.54.01h1.1l.55.01h2.2l.54.01h2.75l.55-.01h7.68l.55.01h1.65l.54.01h1.1l.55.01h.55l.55.01.55.01h.55l.54.01.55.01.55.01h.55l.55.01.55.01.55.01.55.01.54.01.55.02.55.01.55.01.55.01.55.01.55.02.55.01.55.01.54.02.55.01.55.02.55.01.55.02.55.01.55.02.55.01.54.02.55.01.55.02.55.01.55.02.55.01.55.02.55.01.54.02.55.01.55.02.55.01.55.02.55.01.55.02.55.01.54.01.55.02.55.01.55.01.55.02.55.01.55.01.55.01.55.01.54.01.55.01.55.01.55.01.55.01.55.01.55.01.55.01.54.01h.55l.55.01.55.01.55.01h.55l.55.01h.55l.54.01h.55l.55.01h.55l.55.01h1.1l.55.01h1.09l.55.01h2.2l.55.01h3.29l.55.01h3.84v.01h-4.39l-.55.01h-3.29l-.55.01h-1.65l-.55.01h-1.09l-.55.01h-1.1l-.55.01h-.55l-.55.01h-.55l-.54.01h-.55l-.55.01h-.55l-.55.01-.55.01h-.55l-.55.01-.54.01-.55.01-.55.01-.55.01h-.55l-.55.01-.55.01-.55.02-.54.01-.55.01-.55.01-.55.01-.55.01-.55.02-.55.01-.55.01-.55.01-.54.02-.55.01-.55.02-.55.01-.55.01-.55.02-.55.01-.55.02-.54.01-.55.02-.55.02-.55.01-.55.02-.55.01-.55.02-.55.01-.54.02-.55.01-.55.02-.55.01-.55.02-.55.01-.55.02-.55.01-.54.01-.55.02-.55.01-.55.01-.55.02-.55.01-.55.01-.55.01-.55.01-.54.02-.55.01-.55.01h-.55l-.55.01-.55.01-.55.01-.55.01-.54.01h-.55l-.55.01h-.55l-.55.01h-.55l-.55.01H802l-.54.01h-1.65l-.55.01h-6.58l-.55-.01h-4.39l-.55.01h-2.2l-.55.01h-.55l-.54.01h-.55l-.55.01-.55.01-.55.01-.55.01-.55.01-.55.01-.54.01-.55.01-.55.02-.55.01-.55.02-.55.02-.55.02-.55.01-.54.03-.55.02-.55.02-.55.02-.55.03-.55.03-.55.03-.55.02-.55.03-.54.04-.55.03-.55.03-.55.04-.55.04-.55.04-.55.04-.55.04-.54.04-.55.05-.55.04-.55.05-.55.05-.55.05-.55.05-.55.06-.54.06-.55.05-.55.07-.55.06-.55.06-.55.07-.55.07-.55.07-.54.08-.55.07-.55.08-.55.08-.55.09-.55.09-.55.09-.55.09-.54.09-.55.1-.55.1-.55.11-.55.11-.55.11-.55.11-.55.12-.55.12-.54.12-.55.12-.55.13-.55.13-.55.14-.55.14-.55.14-.55.14-.54.14-.55.15-.55.15-.55.15-.55.16-.55.16-.55.15-.55.16-.54.17-.55.16-.55.17-.55.16-.55.17-.55.17-.55.17-.55.17-.54.17-.55.17-.55.17-.55.18-.55.17-.55.17-.55.17-.55.17-.55.17-.54.17-.55.17-.55.17-.55.16-.55.17-.55.16-.55.17-.55.16-.54.16-.55.16-.55.16-.55.15-.55.16-.55.15-.55.15-.55.15-.54.15-.55.15-.55.14-.55.14-.55.14-.55.14-.55.14-.55.13-.54.14-.55.13-.55.13-.55.12-.55.13-.55.12-.55.12-.55.12-.54.11-.55.12-.55.11-.55.11-.55.11-.55.1-.55.1-.55.1-.55.1-.54.09-.55.09-.55.09-.55.09-.55.08-.55.08-.55.07-.55.07-.54.07-.55.07-.55.06-.55.05-.55.06-.55.04-.55.05-.55.04-.54.03-.55.03-.55.02-.55.02-.55.01-.55.01h-.55l-.55-.01-.54-.01-.55-.02-.55-.03-.55-.03-.55-.04-.55-.05-.55-.05-.55-.06-.55-.07-.54-.08-.55-.08-.55-.1-.55-.1-.55-.1-.55-.12-.55-.12-.55-.13-.54-.14-.55-.14-.55-.15-.55-.16-.55-.16-.55-.17-.55-.18-.55-.18-.54-.19-.55-.19-.55-.19-.55-.2-.55-.21-.55-.21-.55-.21-.55-.21-.54-.22-.55-.22-.55-.22-.55-.22-.55-.22-.55-.22-.55-.22-.55-.22-.54-.22-.55-.22-.55-.21-.55-.22-.55-.21-.55-.21-.55-.21-.55-.2-.55-.2-.54-.19-.55-.19-.55-.19-.55-.18-.55-.18-.55-.18-.55-.17-.55-.16-.54-.16-.55-.16-.55-.15-.55-.15-.55-.14-.55-.14-.55-.13-.55-.13-.54-.13-.55-.12-.55-.12-.55-.11-.55-.11-.55-.11-.55-.1-.55-.1-.54-.09-.55-.1-.55-.09-.55-.08-.55-.09-.55-.08-.55-.08-.55-.08-.55-.07-.54-.07-.55-.08-.55-.06-.55-.07-.55-.07-.55-.06-.55-.07-.55-.06-.54-.06-.55-.06-.55-.06-.55-.06-.55-.05-.55-.06-.55-.06-.55-.05-.54-.06-.55-.05-.55-.06-.55-.05-.55-.05-.55-.05-.55-.06-.55-.05-.54-.05-.55-.06-.55-.05-.55-.05-.55-.05-.55-.06-.55-.05-.55-.05-.54-.05-.55-.06-.55-.05-.55-.05-.55-.05-.55-.06-.55-.05-.55-.05-.55-.06-.54-.05-.55-.05-.55-.06-.55-.05-.55-.05-.55-.05-.55-.05-.55-.06-.54-.05-.55-.05-.55-.05-.55-.05-.55-.05-.55-.04-.55-.05-.55-.05-.54-.04-.55-.05-.55-.04-.55-.05-.55-.04-.55-.04-.55-.04-.55-.04-.54-.04-.55-.03-.55-.04-.55-.03-.55-.03-.55-.04-.55-.03-.55-.03-.55-.03-.54-.02-.55-.03-.55-.02-.55-.03-.55-.02-.55-.02-.55-.02-.55-.02-.54-.02-.55-.02-.55-.01-.55-.02-.55-.01-.55-.01-.55-.02-.55-.01-.54-.01-.55-.01-.55-.01-.55-.01-.55-.01-.55-.01h-.55l-.55-.01h-.54l-.55-.01-.55-.01h-1.1l-.55-.01h-.55l-.55-.01h-1.64l-.55-.01h-2.75l-.54-.01z" color="#000" shape-rendering="crispEdges"/><path fill="none" stroke="#000" d="M433.3 54.01V342.4h821.52V54.01H433.3Z" color="#000"/><text color="#000" font-family="Helvetica" font-size="12" text-anchor="middle" transform="translate(844.06 30.91)"><tspan>with_memcache: Violin plot</tspan></text></svg>