<?xml version="1.0" encoding="UTF-8"?>
<!DOCTYPE svg PUBLIC "-//W3C//DTD SVG 1.1//EN" "http://www.w3.org/Graphics/SVG/1.1/DTD/svg11.dtd">
<svg xmlns="http://www.w3.org/2000/svg" version="1.1"
     width="581px" height="351px" viewBox="-0.5 -0.5 581 351" class="ge-export-svg-dark">
    <defs>
        <style type="text/css">svg.ge-export-svg-dark &gt; * { filter: invert(100%)
            hue-rotate(180deg); }&#xa;svg.ge-export-svg-dark image { filter: invert(100%)
            hue-rotate(180deg) }
        </style>
    </defs>
    <g>
        <rect x="320" y="30" width="260" height="320" fill="none" stroke="rgb(0, 0, 0)"
              pointer-events="all"/>
        <rect x="340" y="50" width="40" height="280" fill="rgb(255, 255, 255)" stroke="rgb(0, 0, 0)"
              pointer-events="all"/>
        <path d="M 340 90 L 380 90" fill="none" stroke="rgb(0, 0, 0)" stroke-miterlimit="10"
              pointer-events="stroke"/>
        <path d="M 340 130 L 380 130" fill="none" stroke="rgb(0, 0, 0)" stroke-miterlimit="10"
              pointer-events="stroke"/>
        <path d="M 340 170 L 380 170" fill="none" stroke="rgb(0, 0, 0)" stroke-miterlimit="10"
              pointer-events="stroke"/>
        <ellipse cx="360" cy="210" rx="5" ry="5" fill="rgb(255, 255, 255)" stroke="rgb(0, 0, 0)"
                 pointer-events="all"/>
        <ellipse cx="360" cy="225" rx="5" ry="5" fill="rgb(255, 255, 255)" stroke="rgb(0, 0, 0)"
                 pointer-events="all"/>
        <ellipse cx="360" cy="240" rx="5" ry="5" fill="rgb(255, 255, 255)" stroke="rgb(0, 0, 0)"
                 pointer-events="all"/>
        <rect x="400" y="50" width="40" height="280" fill="rgb(255, 255, 255)" stroke="rgb(0, 0, 0)"
              pointer-events="all"/>
        <path d="M 400 90 L 440 90" fill="none" stroke="rgb(0, 0, 0)" stroke-miterlimit="10"
              pointer-events="stroke"/>
        <path d="M 400 130 L 440 130" fill="none" stroke="rgb(0, 0, 0)" stroke-miterlimit="10"
              pointer-events="stroke"/>
        <path d="M 400 170 L 440 170" fill="none" stroke="rgb(0, 0, 0)" stroke-miterlimit="10"
              pointer-events="stroke"/>
        <ellipse cx="420" cy="210" rx="5" ry="5" fill="rgb(255, 255, 255)" stroke="rgb(0, 0, 0)"
                 pointer-events="all"/>
        <ellipse cx="420" cy="225" rx="5" ry="5" fill="rgb(255, 255, 255)" stroke="rgb(0, 0, 0)"
                 pointer-events="all"/>
        <ellipse cx="420" cy="240" rx="5" ry="5" fill="rgb(255, 255, 255)" stroke="rgb(0, 0, 0)"
                 pointer-events="all"/>
        <rect x="460" y="50" width="40" height="280" fill="rgb(255, 255, 255)" stroke="rgb(0, 0, 0)"
              pointer-events="all"/>
        <path d="M 460 90 L 500 90" fill="none" stroke="rgb(0, 0, 0)" stroke-miterlimit="10"
              pointer-events="stroke"/>
        <path d="M 460 130 L 500 130" fill="none" stroke="rgb(0, 0, 0)" stroke-miterlimit="10"
              pointer-events="stroke"/>
        <path d="M 460 170 L 500 170" fill="none" stroke="rgb(0, 0, 0)" stroke-miterlimit="10"
              pointer-events="stroke"/>
        <ellipse cx="480" cy="210" rx="5" ry="5" fill="rgb(255, 255, 255)" stroke="rgb(0, 0, 0)"
                 pointer-events="all"/>
        <ellipse cx="480" cy="225" rx="5" ry="5" fill="rgb(255, 255, 255)" stroke="rgb(0, 0, 0)"
                 pointer-events="all"/>
        <ellipse cx="480" cy="240" rx="5" ry="5" fill="rgb(255, 255, 255)" stroke="rgb(0, 0, 0)"
                 pointer-events="all"/>
        <ellipse cx="555" cy="190" rx="5" ry="5" fill="rgb(255, 255, 255)" stroke="rgb(0, 0, 0)"
                 transform="rotate(180,555,190)" pointer-events="all"/>
        <ellipse cx="540" cy="190" rx="5" ry="5" fill="rgb(255, 255, 255)" stroke="rgb(0, 0, 0)"
                 transform="rotate(180,540,190)" pointer-events="all"/>
        <ellipse cx="525" cy="190" rx="5" ry="5" fill="rgb(255, 255, 255)" stroke="rgb(0, 0, 0)"
                 transform="rotate(90,525,190)" pointer-events="all"/>
        <rect x="320" y="0" width="60" height="30" fill="none" stroke="none" pointer-events="all"/>
        <g transform="translate(-0.5 -0.5)">
            <text x="350" y="19" fill="rgb(0, 0, 0)" font-family="Helvetica" font-size="12px"
                  text-anchor="middle">Rings
            </text>
        </g>
        <rect x="0" y="30" width="260" height="320" fill="none" stroke="rgb(0, 0, 0)"
              pointer-events="all"/>
        <path d="M 50 306.11 C 50 302.74 54.48 300 60 300 C 62.65 300 65.2 300.64 67.07 301.79 C 68.95 302.94 70 304.49 70 306.11 L 70 313.89 C 70 317.26 65.52 320 60 320 C 54.48 320 50 317.26 50 313.89 Z"
              fill="rgb(255, 255, 255)" stroke="rgb(0, 0, 0)" stroke-miterlimit="10"
              pointer-events="all"/>
        <path d="M 70 306.11 C 70 309.49 65.52 312.23 60 312.23 C 54.48 312.23 50 309.49 50 306.11"
              fill="none" stroke="rgb(0, 0, 0)" stroke-miterlimit="10" pointer-events="all"/>
        <path d="M 90 306.11 C 90 302.74 94.48 300 100 300 C 102.65 300 105.2 300.64 107.07 301.79 C 108.95 302.94 110 304.49 110 306.11 L 110 313.89 C 110 317.26 105.52 320 100 320 C 94.48 320 90 317.26 90 313.89 Z"
              fill="rgb(255, 255, 255)" stroke="rgb(0, 0, 0)" stroke-miterlimit="10"
              pointer-events="all"/>
        <path d="M 110 306.11 C 110 309.49 105.52 312.23 100 312.23 C 94.48 312.23 90 309.49 90 306.11"
              fill="none" stroke="rgb(0, 0, 0)" stroke-miterlimit="10" pointer-events="all"/>
        <ellipse cx="205" cy="310" rx="5" ry="5" fill="rgb(255, 255, 255)" stroke="rgb(0, 0, 0)"
                 transform="rotate(180,205,310)" pointer-events="all"/>
        <ellipse cx="190" cy="310" rx="5" ry="5" fill="rgb(255, 255, 255)" stroke="rgb(0, 0, 0)"
                 transform="rotate(180,190,310)" pointer-events="all"/>
        <ellipse cx="175" cy="310" rx="5" ry="5" fill="rgb(255, 255, 255)" stroke="rgb(0, 0, 0)"
                 transform="rotate(90,175,310)" pointer-events="all"/>
        <path d="M 130 306.11 C 130 302.74 134.48 300 140 300 C 142.65 300 145.2 300.64 147.07 301.79 C 148.95 302.94 150 304.49 150 306.11 L 150 313.89 C 150 317.26 145.52 320 140 320 C 134.48 320 130 317.26 130 313.89 Z"
              fill="rgb(255, 255, 255)" stroke="rgb(0, 0, 0)" stroke-miterlimit="10"
              pointer-events="all"/>
        <path d="M 150 306.11 C 150 309.49 145.52 312.23 140 312.23 C 134.48 312.23 130 309.49 130 306.11"
              fill="none" stroke="rgb(0, 0, 0)" stroke-miterlimit="10" pointer-events="all"/>
        <rect x="0" y="0" width="80" height="30" fill="none" stroke="none" pointer-events="all"/>
        <g transform="translate(-0.5 -0.5)">
            <text x="40" y="19" fill="rgb(0, 0, 0)" font-family="Helvetica" font-size="12px"
                  text-anchor="middle">Data store
            </text>
        </g>
        <rect x="120" y="-30" width="20" height="180" fill="rgb(255, 255, 255)"
              stroke="rgb(0, 0, 0)" transform="rotate(90,130,60)" pointer-events="all"/>
        <rect x="60" y="60" width="20" height="60" fill="rgb(255, 255, 255)" stroke="rgb(0, 0, 0)"
              transform="rotate(90,70,90)" pointer-events="all"/>
        <rect x="90" y="60" width="20" height="120" fill="rgb(255, 255, 255)" stroke="rgb(0, 0, 0)"
              transform="rotate(90,100,120)" pointer-events="all"/>
        <rect x="110" y="70" width="20" height="160" fill="rgb(255, 255, 255)" stroke="rgb(0, 0, 0)"
              transform="rotate(90,120,150)" pointer-events="all"/>
        <ellipse cx="130" cy="175" rx="5" ry="5" fill="rgb(255, 255, 255)" stroke="rgb(0, 0, 0)"
                 pointer-events="all"/>
        <ellipse cx="130" cy="190" rx="5" ry="5" fill="rgb(255, 255, 255)" stroke="rgb(0, 0, 0)"
                 pointer-events="all"/>
        <ellipse cx="130" cy="205" rx="5" ry="5" fill="rgb(255, 255, 255)" stroke="rgb(0, 0, 0)"
                 pointer-events="all"/>
        <path d="M 50 70 L 50 50" fill="none" stroke="rgb(0, 0, 0)" stroke-miterlimit="10"
              pointer-events="stroke"/>
        <path d="M 60 70 L 60 50" fill="none" stroke="rgb(0, 0, 0)" stroke-miterlimit="10"
              pointer-events="stroke"/>
        <path d="M 70 70 L 70 50" fill="none" stroke="rgb(0, 0, 0)" stroke-miterlimit="10"
              pointer-events="stroke"/>
        <path d="M 60 100 L 60 80" fill="none" stroke="rgb(0, 0, 0)" stroke-miterlimit="10"
              pointer-events="stroke"/>
        <path d="M 80 130 L 80 110" fill="none" stroke="rgb(0, 0, 0)" stroke-miterlimit="10"
              pointer-events="stroke"/>
        <path d="M 120 130 L 120 110" fill="none" stroke="rgb(0, 0, 0)" stroke-miterlimit="10"
              pointer-events="stroke"/>
        <path d="M 120 160 L 120 140" fill="none" stroke="rgb(0, 0, 0)" stroke-miterlimit="10"
              pointer-events="stroke"/>
        <ellipse cx="102.5" cy="60" rx="2.5" ry="2.5" fill="rgb(255, 255, 255)"
                 stroke="rgb(0, 0, 0)" transform="rotate(180,102.5,60)" pointer-events="all"/>
        <ellipse cx="92.5" cy="60" rx="2.5" ry="2.5" fill="rgb(255, 255, 255)" stroke="rgb(0, 0, 0)"
                 transform="rotate(180,92.5,60)" pointer-events="all"/>
        <ellipse cx="82.5" cy="60" rx="2.5" ry="2.5" fill="rgb(255, 255, 255)" stroke="rgb(0, 0, 0)"
                 transform="rotate(90,82.5,60)" pointer-events="all"/>
        <path d="M 80 100 L 80 80" fill="none" stroke="rgb(0, 0, 0)" stroke-miterlimit="10"
              pointer-events="stroke"/>
        <path d="M 360 70 Q 300 100 255 115 Q 210 130 165.91 147.63" fill="none"
              stroke="rgb(0, 0, 0)" stroke-miterlimit="10" pointer-events="stroke"/>
        <path d="M 161.04 149.58 L 166.24 143.74 L 165.91 147.63 L 168.84 150.23 Z"
              fill="rgb(0, 0, 0)" stroke="rgb(0, 0, 0)" stroke-miterlimit="10"
              pointer-events="all"/>
        <path d="M 420 150 Q 310 110 265 125 Q 220 140 60.73 62.78" fill="none"
              stroke="rgb(0, 0, 0)" stroke-miterlimit="10" pointer-events="stroke"/>
        <path d="M 56.01 60.49 L 63.83 60.39 L 60.73 62.78 L 60.78 66.69 Z" fill="rgb(0, 0, 0)"
              stroke="rgb(0, 0, 0)" stroke-miterlimit="10" pointer-events="all"/>
        <path d="M 360 150 Q 300 160 255 180 Q 210 200 104.71 295.72" fill="none"
              stroke="rgb(0, 0, 0)" stroke-miterlimit="10" pointer-events="stroke"/>
        <path d="M 100.83 299.25 L 103.65 291.95 L 104.71 295.72 L 108.36 297.13 Z"
              fill="rgb(0, 0, 0)" stroke="rgb(0, 0, 0)" stroke-miterlimit="10"
              pointer-events="all"/>
        <path d="M 0 270 L 260 270" fill="none" stroke="rgb(0, 0, 0)" stroke-miterlimit="10"
              pointer-events="stroke"/>
        <rect x="-25" y="295" width="80" height="30" fill="none" stroke="none"
              transform="rotate(270,15,310)" pointer-events="all"/>
        <g transform="translate(-0.5 -0.5)rotate(270 15 310.0000000000001)">
            <text x="15" y="314" fill="rgb(0, 0, 0)" font-family="Helvetica" font-size="12px"
                  text-anchor="middle">Files
            </text>
        </g>
        <rect x="-25" y="134.5" width="80" height="30" fill="none" stroke="none"
              transform="rotate(270,15,149.5)" pointer-events="all"/>
        <g transform="translate(-0.5 -0.5)rotate(270 15 149.5)">
            <text x="15" y="153" fill="rgb(0, 0, 0)" font-family="Helvetica" font-size="12px"
                  text-anchor="middle">Buckets
            </text>
        </g>
    </g>
</svg>
