<svg xmlns="http://www.w3.org/2000/svg" width="581" height="351" class="ge-export-svg-dark" viewBox="-0.5 -0.5 581 351"><defs><style><![CDATA[svg.ge-export-svg-dark>*{filter:invert(100%) hue-rotate(180deg)}]]></style></defs><path fill="none" stroke="#000" d="M320 30h260v320H320z" pointer-events="all"/><path fill="#FFF" stroke="#000" d="M340 50h40v280h-40z" pointer-events="all"/><path fill="none" stroke="#000" stroke-miterlimit="10" d="M340 90h40m-40 40h40m-40 40h40" pointer-events="stroke"/><circle cx="360" cy="210" r="5" fill="#FFF" stroke="#000" pointer-events="all"/><circle cx="360" cy="225" r="5" fill="#FFF" stroke="#000" pointer-events="all"/><circle cx="360" cy="240" r="5" fill="#FFF" stroke="#000" pointer-events="all"/><path fill="#FFF" stroke="#000" d="M400 50h40v280h-40z" pointer-events="all"/><path fill="none" stroke="#000" stroke-miterlimit="10" d="M400 90h40m-40 40h40m-40 40h40" pointer-events="stroke"/><circle cx="420" cy="210" r="5" fill="#FFF" stroke="#000" pointer-events="all"/><circle cx="420" cy="225" r="5" fill="#FFF" stroke="#000" pointer-events="all"/><circle cx="420" cy="240" r="5" fill="#FFF" stroke="#000" pointer-events="all"/><path fill="#FFF" stroke="#000" d="M460 50h40v280h-40z" pointer-events="all"/><path fill="none" stroke="#000" stroke-miterlimit="10" d="M460 90h40m-40 40h40m-40 40h40" pointer-events="stroke"/><circle cx="480" cy="210" r="5" fill="#FFF" stroke="#000" pointer-events="all"/><circle cx="480" cy="225" r="5" fill="#FFF" stroke="#000" pointer-events="all"/><circle cx="480" cy="240" r="5" fill="#FFF" stroke="#000" pointer-events="all"/><circle cx="555" cy="190" r="5" fill="#FFF" stroke="#000" pointer-events="all" transform="rotate(180 555 190)"/><circle cx="540" cy="190" r="5" fill="#FFF" stroke="#000" pointer-events="all" transform="rotate(180 540 190)"/><circle cx="525" cy="190" r="5" fill="#FFF" stroke="#000" pointer-events="all" transform="rotate(90 525 190)"/><path fill="none" d="M320 0h60v30h-60z" pointer-events="all"/><text x="350" y="19" font-family="Helvetica" font-size="12" text-anchor="middle" transform="translate(-.5 -.5)">Rings
            </text><path fill="none" stroke="#000" d="M0 30h260v320H0z" pointer-events="all"/><path fill="#FFF" stroke="#000" stroke-miterlimit="10" d="M50 306.11c0-3.37 4.48-6.11 10-6.11 2.65 0 5.2.64 7.07 1.79 1.88 1.15 2.93 2.7 2.93 4.32v7.78c0 3.37-4.48 6.11-10 6.11s-10-2.74-10-6.11Z" pointer-events="all"/><path fill="none" stroke="#000" stroke-miterlimit="10" d="M70 306.11c0 3.38-4.48 6.12-10 6.12s-10-2.74-10-6.12" pointer-events="all"/><path fill="#FFF" stroke="#000" stroke-miterlimit="10" d="M90 306.11c0-3.37 4.48-6.11 10-6.11 2.65 0 5.2.64 7.07 1.79 1.88 1.15 2.93 2.7 2.93 4.32v7.78c0 3.37-4.48 6.11-10 6.11s-10-2.74-10-6.11Z" pointer-events="all"/><path fill="none" stroke="#000" stroke-miterlimit="10" d="M110 306.11c0 3.38-4.48 6.12-10 6.12s-10-2.74-10-6.12" pointer-events="all"/><circle cx="205" cy="310" r="5" fill="#FFF" stroke="#000" pointer-events="all" transform="rotate(180 205 310)"/><circle cx="190" cy="310" r="5" fill="#FFF" stroke="#000" pointer-events="all" transform="rotate(180 190 310)"/><circle cx="175" cy="310" r="5" fill="#FFF" stroke="#000" pointer-events="all" transform="rotate(90 175 310)"/><path fill="#FFF" stroke="#000" stroke-miterlimit="10" d="M130 306.11c0-3.37 4.48-6.11 10-6.11 2.65 0 5.2.64 7.07 1.79 1.88 1.15 2.93 2.7 2.93 4.32v7.78c0 3.37-4.48 6.11-10 6.11s-10-2.74-10-6.11Z" pointer-events="all"/><path fill="none" stroke="#000" stroke-miterlimit="10" d="M150 306.11c0 3.38-4.48 6.12-10 6.12s-10-2.74-10-6.12" pointer-events="all"/><path fill="none" d="M0 0h80v30H0z" pointer-events="all"/><text x="40" y="19" font-family="Helvetica" font-size="12" text-anchor="middle" transform="translate(-.5 -.5)">Data store
            </text><path fill="#FFF" stroke="#000" d="M220 50v20H40V50zM100 80v20H40V80zm60 30v20H40v-20zm40 30v20H40v-20z" pointer-events="all"/><circle cx="130" cy="175" r="5" fill="#FFF" stroke="#000" pointer-events="all"/><circle cx="130" cy="190" r="5" fill="#FFF" stroke="#000" pointer-events="all"/><circle cx="130" cy="205" r="5" fill="#FFF" stroke="#000" pointer-events="all"/><path fill="none" stroke="#000" stroke-miterlimit="10" d="M50 70V50m10 20V50m10 20V50m-10 50V80m20 50v-20m40 20v-20m0 50v-20" pointer-events="stroke"/><circle cx="102.5" cy="60" r="2.5" fill="#FFF" stroke="#000" pointer-events="all" transform="rotate(180 102.5 60)"/><circle cx="92.5" cy="60" r="2.5" fill="#FFF" stroke="#000" pointer-events="all" transform="rotate(180 92.5 60)"/><circle cx="82.5" cy="60" r="2.5" fill="#FFF" stroke="#000" pointer-events="all" transform="rotate(90 82.5 60)"/><path fill="none" stroke="#000" stroke-miterlimit="10" d="M80 100V80m280-10q-60 30-105 45t-89.09 32.63" pointer-events="stroke"/><path stroke="#000" stroke-miterlimit="10" d="m161.04 149.58 5.2-5.84-.33 3.89 2.93 2.6Z" pointer-events="all"/><path fill="none" stroke="#000" stroke-miterlimit="10" d="M420 150q-110-40-155-25T60.73 62.78" pointer-events="stroke"/><path stroke="#000" stroke-miterlimit="10" d="m56.01 60.49 7.82-.1-3.1 2.39.05 3.91Z" pointer-events="all"/><path fill="none" stroke="#000" stroke-miterlimit="10" d="M360 150q-60 10-105 30T104.71 295.72" pointer-events="stroke"/><path stroke="#000" stroke-miterlimit="10" d="m100.83 299.25 2.82-7.3 1.06 3.77 3.65 1.41Z" pointer-events="all"/><path fill="none" stroke="#000" stroke-miterlimit="10" d="M0 270h260" pointer-events="stroke"/><path fill="none" d="M0 350v-80h30v80z" pointer-events="all"/><text x="15" y="314" font-family="Helvetica" font-size="12" text-anchor="middle" transform="rotate(-90 14.5 310)">Files
            </text><path fill="none" d="M0 189.5v-80h30v80z" pointer-events="all"/><text x="15" y="153" font-family="Helvetica" font-size="12" text-anchor="middle" transform="rotate(-90 14.5 149.5)">Buckets
            </text></svg>